<svg xmlns="http://www.w3.org/2000/svg" xmlns:xlink="http://www.w3.org/1999/xlink" width="1920" height="4048" viewBox="0 0 1920 4048"><defs><filter id="a" x="144" y="1518" width="408" height="433" filterUnits="userSpaceOnUse"><feOffset dy="3" input="SourceAlpha"/><feGaussianBlur stdDeviation="5" result="b"/><feFlood flood-opacity="0.161"/><feComposite operator="in" in2="b"/><feComposite in="SourceGraphic"/></filter><filter id="c" x="144" y="948" width="408" height="433" filterUnits="userSpaceOnUse"><feOffset dy="3" input="SourceAlpha"/><feGaussianBlur stdDeviation="5" result="d"/><feFlood flood-opacity="0.161"/><feComposite operator="in" in2="d"/><feComposite in="SourceGraphic"/></filter><filter id="e" x="144" y="2050" width="408" height="433" filterUnits="userSpaceOnUse"><feOffset dy="3" input="SourceAlpha"/><feGaussianBlur stdDeviation="5" result="f"/><feFlood flood-opacity="0.161"/><feComposite operator="in" in2="f"/><feComposite in="SourceGraphic"/></filter><filter id="g" x="557" y="1518" width="408" height="433" filterUnits="userSpaceOnUse"><feOffset dy="3" input="SourceAlpha"/><feGaussianBlur stdDeviation="5" result="h"/><feFlood flood-opacity="0.161"/><feComposite operator="in" in2="h"/><feComposite in="SourceGraphic"/></filter><filter id="i" x="557" y="948" width="408" height="433" filterUnits="userSpaceOnUse"><feOffset dy="3" input="SourceAlpha"/><feGaussianBlur stdDeviation="5" result="j"/><feFlood flood-opacity="0.161"/><feComposite operator="in" in2="j"/><feComposite in="SourceGraphic"/></filter><filter id="k" x="557" y="2050" width="408" height="433" filterUnits="userSpaceOnUse"><feOffset dy="3" input="SourceAlpha"/><feGaussianBlur stdDeviation="5" result="l"/><feFlood flood-opacity="0.161"/><feComposite operator="in" in2="l"/><feComposite in="SourceGraphic"/></filter><filter id="m" x="969" y="1518" width="408" height="433" filterUnits="userSpaceOnUse"><feOffset dy="3" input="SourceAlpha"/><feGaussianBlur stdDeviation="5" result="n"/><feFlood flood-opacity="0.161"/><feComposite operator="in" in2="n"/><feComposite in="SourceGraphic"/></filter><filter id="o" x="969" y="948" width="408" height="433" filterUnits="userSpaceOnUse"><feOffset dy="3" input="SourceAlpha"/><feGaussianBlur stdDeviation="5" result="p"/><feFlood flood-opacity="0.161"/><feComposite operator="in" in2="p"/><feComposite in="SourceGraphic"/></filter><filter id="q" x="969" y="2050" width="408" height="433" filterUnits="userSpaceOnUse"><feOffset dy="3" input="SourceAlpha"/><feGaussianBlur stdDeviation="5" result="r"/><feFlood flood-opacity="0.161"/><feComposite operator="in" in2="r"/><feComposite in="SourceGraphic"/></filter><filter id="s" x="1381" y="1518" width="408" height="433" filterUnits="userSpaceOnUse"><feOffset dy="3" input="SourceAlpha"/><feGaussianBlur stdDeviation="5" result="t"/><feFlood flood-opacity="0.161"/><feComposite operator="in" in2="t"/><feComposite in="SourceGraphic"/></filter><filter id="u" x="1381" y="948" width="408" height="433" filterUnits="userSpaceOnUse"><feOffset dy="3" input="SourceAlpha"/><feGaussianBlur stdDeviation="5" result="v"/><feFlood flood-opacity="0.161"/><feComposite operator="in" in2="v"/><feComposite in="SourceGraphic"/></filter><filter id="w" x="1381" y="2050" width="408" height="433" filterUnits="userSpaceOnUse"><feOffset dy="3" input="SourceAlpha"/><feGaussianBlur stdDeviation="5" result="x"/><feFlood flood-opacity="0.161"/><feComposite operator="in" in2="x"/><feComposite in="SourceGraphic"/></filter><pattern id="y" preserveAspectRatio="none" width="100%" height="100%" viewBox="0 0 3062 940"><image width="3062" height="940" xlink:href="Cached%20landing-image.png"/></pattern><clipPath id="z"><rect width="156" height="77" fill="#fff" stroke="#707070" stroke-width="1"/></clipPath><pattern id="aa" preserveAspectRatio="none" width="100%" height="100%" viewBox="0 0 3398 1734"><image width="3398" height="1734" xlink:href="Cached%20landing-image2.png"/></pattern><pattern id="ab" width="1" height="1" viewBox="112.491 0 762 646"><image preserveAspectRatio="xMidYMid slice" width="969" height="646" xlink:href="Cached%20landing-image3.jpg"/></pattern><pattern id="ac" preserveAspectRatio="none" width="100%" height="100%" viewBox="0 0 480 470"><image width="480" height="470" xlink:href="Cached%20landing-image5.png"/></pattern><filter id="ad" x="144" y="488" width="408" height="433" filterUnits="userSpaceOnUse"><feOffset dy="3" input="SourceAlpha"/><feGaussianBlur stdDeviation="5" result="ae"/><feFlood flood-opacity="0.161"/><feComposite operator="in" in2="ae"/><feComposite in="SourceGraphic"/></filter><pattern id="af" preserveAspectRatio="xMidYMid slice" width="100%" height="100%" viewBox="0 0 426 284"><image width="426" height="284" xlink:href="Cached%20landing-image7.png"/></pattern><filter id="aj" x="557" y="488" width="408" height="433" filterUnits="userSpaceOnUse"><feOffset dy="3" input="SourceAlpha"/><feGaussianBlur stdDeviation="5" result="ak"/><feFlood flood-opacity="0.161"/><feComposite operator="in" in2="ak"/><feComposite in="SourceGraphic"/></filter><pattern id="al" preserveAspectRatio="xMidYMid slice" width="100%" height="100%" viewBox="0 0 426 280"><image width="426" height="280" xlink:href="Cached%20landing-image8.png"/></pattern><filter id="ap" x="969" y="488" width="408" height="433" filterUnits="userSpaceOnUse"><feOffset dy="3" input="SourceAlpha"/><feGaussianBlur stdDeviation="5" result="aq"/><feFlood flood-opacity="0.161"/><feComposite operator="in" in2="aq"/><feComposite in="SourceGraphic"/></filter><pattern id="ar" preserveAspectRatio="xMidYMid slice" width="100%" height="100%" viewBox="0 0 424 278"><image width="424" height="278" xlink:href="Cached%20landing-image9.png"/></pattern><filter id="av" x="1381" y="488" width="408" height="433" filterUnits="userSpaceOnUse"><feOffset dy="3" input="SourceAlpha"/><feGaussianBlur stdDeviation="5" result="aw"/><feFlood flood-opacity="0.161"/><feComposite operator="in" in2="aw"/><feComposite in="SourceGraphic"/></filter><pattern id="ax" preserveAspectRatio="xMidYMid slice" width="100%" height="100%" viewBox="0 0 428 280"><image width="428" height="280" xlink:href="Cached%20landing-image10.png"/></pattern><clipPath id="bc"><rect width="1920" height="4048"/></clipPath></defs><g id="bb" clip-path="url(#bc)"><rect width="1920" height="4048" fill="#fff"/><g transform="translate(0 1030)"><g transform="matrix(1, 0, 0, 1, 0, -1030)" filter="url(#a)"><rect width="378" height="403" rx="16" transform="translate(159 1530)" fill="#fff"/></g><g transform="translate(178.771 772.504)"><g transform="translate(0.229 0.496)"><text fill="#23454f" font-size="20" font-family="Poppins-Bold, Poppins" font-weight="700"><tspan x="0" y="21">Name of asset and title category</tspan></text><text transform="translate(0 27)" fill="#23454f" font-size="15" font-family="Poppins-Medium, Poppins" font-weight="500"><tspan x="0" y="16">By </tspan><tspan y="16" fill="#46b175">House of motion studio</tspan><tspan y="16" xml:space="preserve"> in </tspan><tspan y="16" fill="#fa7808">Motion graphics </tspan></text></g></g><g transform="translate(178.771 837.518)"><rect width="64" height="45" transform="translate(0.229 0.482)" fill="#d7deb6"/><g transform="translate(8.859 7.875)"><g transform="translate(0 0)"><text transform="translate(0.37 22.607)" fill="#23454f" font-size="22" font-family="Poppins-SemiBold, Poppins" font-weight="600"><tspan x="0" y="0">N3k</tspan></text></g></g></g><g transform="translate(-200.608 -540.92)"><path d="M757.512,1398.24c0,1.149.039,2.3-.012,3.448-.036.794.215,1.111,1.047,1.077,1.369-.056,2.742,0,4.112-.022a1.49,1.49,0,0,1,1.624.883,1.811,1.811,0,0,1-.288,1.993c-2.787,2.84-5.564,5.691-8.405,8.477a1.657,1.657,0,0,1-2.492-.11c-2.717-2.723-5.411-5.469-8.119-8.2a1.826,1.826,0,0,1-.4-2.186,1.759,1.759,0,0,1,1.842-1.014c1.324.055,2.655-.027,3.979.03.769.033.974-.24.959-.98-.044-2.166-.022-4.332-.013-6.5.007-2.037,1.242-3.424,3.054-3.455a3.088,3.088,0,0,1,3.112,3.374C757.521,1396.117,757.512,1397.178,757.512,1398.24Z" transform="translate(-50.537 -2.355)" fill="#5ace8d"/><path d="M750.007,1446.727q-5.909,0-11.818,0a2.1,2.1,0,0,1-2.257-1.666,2.06,2.06,0,0,1,.988-2.4,3.051,3.051,0,0,1,1.663-.364c7.613-.008,15.227-.022,22.84.005,1.9.007,2.944,1.09,2.69,2.624-.192,1.159-1.056,1.792-2.554,1.8C757.709,1446.738,753.858,1446.729,750.007,1446.727Z" transform="translate(-46.544 -26.059)" fill="#5ace8d"/><path d="M661.837,1404.324q0,8.1-.006,16.2c0,.553.161,1.179-.494,1.536s-1.1-.144-1.56-.425c-3.247-1.981-6.489-3.97-9.705-6a1.43,1.43,0,0,0-1.772.007c-3.215,2.031-6.462,4.012-9.7,6-.473.29-.929.738-1.573.4-.661-.345-.5-.97-.5-1.525-.005-10.712.011-21.424-.023-32.135,0-1.273.46-1.729,1.709-1.724q11.025.045,22.05,0c1.191-.006,1.623.355,1.61,1.6C661.8,1393.612,661.837,1398.968,661.837,1404.324Zm-14.127,9.524a2.382,2.382,0,0,1,2.995.026c2.705,1.76,5.5,3.381,8.241,5.086.709.441,1.05.536,1.048-.52q-.033-14.473,0-28.947c0-.748-.225-.98-.978-.977q-9.83.038-19.659,0c-.712,0-1,.138-1,.935.026,9.957.016,19.915.016,30.141C641.632,1417.6,644.711,1415.786,647.709,1413.848Z" transform="translate(0)" fill="#5ace8d"/><path d="M651.386,1408.9c-.663,0-1.326.018-1.989-.005-.632-.022-1.179-.274-1.191-.977-.013-.779.566-1.043,1.251-1.055,1.149-.02,2.3-.036,3.447,0,.638.022.852-.21.83-.837-.038-1.1.008-2.209-.016-3.313-.015-.692.137-1.326.916-1.344s.969.6.952,1.3c-.025,1.015.059,2.037-.024,3.047-.08.968.305,1.214,1.2,1.153,1.012-.07,2.032-.026,3.048-.011.663.01,1.321.167,1.29.982-.028.721-.642.865-1.26.867-1.1,0-2.212.047-3.314-.012-.789-.043-.994.267-.932,1,.094,1.1.117,2.2.17,3.308.032.671-.091,1.337-.887,1.365s-.967-.6-.958-1.3c.014-.972-.061-1.949.02-2.915s-.207-1.409-1.231-1.26a9.317,9.317,0,0,1-1.324.01Z" transform="translate(-5.487 -6.891)" fill="#5ace8d"/></g></g><g transform="translate(0 460)"><g transform="matrix(1, 0, 0, 1, 0, -460)" filter="url(#c)"><rect width="378" height="403" rx="16" transform="translate(159 960)" fill="#fff"/></g><g transform="translate(178.771 772.504)"><g transform="translate(0.229 0.496)"><text fill="#23454f" font-size="20" font-family="Poppins-Bold, Poppins" font-weight="700"><tspan x="0" y="21">Name of asset and title category</tspan></text><text transform="translate(0 27)" fill="#23454f" font-size="15" font-family="Poppins-Medium, Poppins" font-weight="500"><tspan x="0" y="16">By </tspan><tspan y="16" fill="#46b175">House of motion studio</tspan><tspan y="16" xml:space="preserve"> in </tspan><tspan y="16" fill="#fa7808">Motion graphics </tspan></text></g></g><g transform="translate(178.771 837.518)"><rect width="64" height="45" transform="translate(0.229 0.482)" fill="#d7deb6"/><g transform="translate(8.859 7.875)"><g transform="translate(0 0)"><text transform="translate(0.37 22.607)" fill="#23454f" font-size="22" font-family="Poppins-SemiBold, Poppins" font-weight="600"><tspan x="0" y="0">N3k</tspan></text></g></g></g><g transform="translate(-200.608 -540.92)"><path d="M757.512,1398.24c0,1.149.039,2.3-.012,3.448-.036.794.215,1.111,1.047,1.077,1.369-.056,2.742,0,4.112-.022a1.49,1.49,0,0,1,1.624.883,1.811,1.811,0,0,1-.288,1.993c-2.787,2.84-5.564,5.691-8.405,8.477a1.657,1.657,0,0,1-2.492-.11c-2.717-2.723-5.411-5.469-8.119-8.2a1.826,1.826,0,0,1-.4-2.186,1.759,1.759,0,0,1,1.842-1.014c1.324.055,2.655-.027,3.979.03.769.033.974-.24.959-.98-.044-2.166-.022-4.332-.013-6.5.007-2.037,1.242-3.424,3.054-3.455a3.088,3.088,0,0,1,3.112,3.374C757.521,1396.117,757.512,1397.178,757.512,1398.24Z" transform="translate(-50.537 -2.355)" fill="#5ace8d"/><path d="M750.007,1446.727q-5.909,0-11.818,0a2.1,2.1,0,0,1-2.257-1.666,2.06,2.06,0,0,1,.988-2.4,3.051,3.051,0,0,1,1.663-.364c7.613-.008,15.227-.022,22.84.005,1.9.007,2.944,1.09,2.69,2.624-.192,1.159-1.056,1.792-2.554,1.8C757.709,1446.738,753.858,1446.729,750.007,1446.727Z" transform="translate(-46.544 -26.059)" fill="#5ace8d"/><path d="M661.837,1404.324q0,8.1-.006,16.2c0,.553.161,1.179-.494,1.536s-1.1-.144-1.56-.425c-3.247-1.981-6.489-3.97-9.705-6a1.43,1.43,0,0,0-1.772.007c-3.215,2.031-6.462,4.012-9.7,6-.473.29-.929.738-1.573.4-.661-.345-.5-.97-.5-1.525-.005-10.712.011-21.424-.023-32.135,0-1.273.46-1.729,1.709-1.724q11.025.045,22.05,0c1.191-.006,1.623.355,1.61,1.6C661.8,1393.612,661.837,1398.968,661.837,1404.324Zm-14.127,9.524a2.382,2.382,0,0,1,2.995.026c2.705,1.76,5.5,3.381,8.241,5.086.709.441,1.05.536,1.048-.52q-.033-14.473,0-28.947c0-.748-.225-.98-.978-.977q-9.83.038-19.659,0c-.712,0-1,.138-1,.935.026,9.957.016,19.915.016,30.141C641.632,1417.6,644.711,1415.786,647.709,1413.848Z" transform="translate(0)" fill="#5ace8d"/><path d="M651.386,1408.9c-.663,0-1.326.018-1.989-.005-.632-.022-1.179-.274-1.191-.977-.013-.779.566-1.043,1.251-1.055,1.149-.02,2.3-.036,3.447,0,.638.022.852-.21.83-.837-.038-1.1.008-2.209-.016-3.313-.015-.692.137-1.326.916-1.344s.969.6.952,1.3c-.025,1.015.059,2.037-.024,3.047-.08.968.305,1.214,1.2,1.153,1.012-.07,2.032-.026,3.048-.011.663.01,1.321.167,1.29.982-.028.721-.642.865-1.26.867-1.1,0-2.212.047-3.314-.012-.789-.043-.994.267-.932,1,.094,1.1.117,2.2.17,3.308.032.671-.091,1.337-.887,1.365s-.967-.6-.958-1.3c.014-.972-.061-1.949.02-2.915s-.207-1.409-1.231-1.26a9.317,9.317,0,0,1-1.324.01Z" transform="translate(-5.487 -6.891)" fill="#5ace8d"/></g></g><g transform="translate(0 1562)"><g transform="matrix(1, 0, 0, 1, 0, -1562)" filter="url(#e)"><rect width="378" height="403" rx="16" transform="translate(159 2062)" fill="#fff"/></g><g transform="translate(178.771 772.504)"><g transform="translate(0.229 0.496)"><text fill="#23454f" font-size="20" font-family="Poppins-Bold, Poppins" font-weight="700"><tspan x="0" y="21">Name of asset and title category</tspan></text><text transform="translate(0 27)" fill="#23454f" font-size="15" font-family="Poppins-Medium, Poppins" font-weight="500"><tspan x="0" y="16">By </tspan><tspan y="16" fill="#46b175">House of motion studio</tspan><tspan y="16" xml:space="preserve"> in </tspan><tspan y="16" fill="#fa7808">Motion graphics </tspan></text></g></g><g transform="translate(178.771 837.518)"><rect width="64" height="45" transform="translate(0.229 0.482)" fill="#d7deb6"/><g transform="translate(8.859 7.875)"><g transform="translate(0 0)"><text transform="translate(0.37 22.607)" fill="#23454f" font-size="22" font-family="Poppins-SemiBold, Poppins" font-weight="600"><tspan x="0" y="0">N3k</tspan></text></g></g></g><g transform="translate(-200.608 -540.92)"><path d="M757.512,1398.24c0,1.149.039,2.3-.012,3.448-.036.794.215,1.111,1.047,1.077,1.369-.056,2.742,0,4.112-.022a1.49,1.49,0,0,1,1.624.883,1.811,1.811,0,0,1-.288,1.993c-2.787,2.84-5.564,5.691-8.405,8.477a1.657,1.657,0,0,1-2.492-.11c-2.717-2.723-5.411-5.469-8.119-8.2a1.826,1.826,0,0,1-.4-2.186,1.759,1.759,0,0,1,1.842-1.014c1.324.055,2.655-.027,3.979.03.769.033.974-.24.959-.98-.044-2.166-.022-4.332-.013-6.5.007-2.037,1.242-3.424,3.054-3.455a3.088,3.088,0,0,1,3.112,3.374C757.521,1396.117,757.512,1397.178,757.512,1398.24Z" transform="translate(-50.537 -2.355)" fill="#5ace8d"/><path d="M750.007,1446.727q-5.909,0-11.818,0a2.1,2.1,0,0,1-2.257-1.666,2.06,2.06,0,0,1,.988-2.4,3.051,3.051,0,0,1,1.663-.364c7.613-.008,15.227-.022,22.84.005,1.9.007,2.944,1.09,2.69,2.624-.192,1.159-1.056,1.792-2.554,1.8C757.709,1446.738,753.858,1446.729,750.007,1446.727Z" transform="translate(-46.544 -26.059)" fill="#5ace8d"/><path d="M661.837,1404.324q0,8.1-.006,16.2c0,.553.161,1.179-.494,1.536s-1.1-.144-1.56-.425c-3.247-1.981-6.489-3.97-9.705-6a1.43,1.43,0,0,0-1.772.007c-3.215,2.031-6.462,4.012-9.7,6-.473.29-.929.738-1.573.4-.661-.345-.5-.97-.5-1.525-.005-10.712.011-21.424-.023-32.135,0-1.273.46-1.729,1.709-1.724q11.025.045,22.05,0c1.191-.006,1.623.355,1.61,1.6C661.8,1393.612,661.837,1398.968,661.837,1404.324Zm-14.127,9.524a2.382,2.382,0,0,1,2.995.026c2.705,1.76,5.5,3.381,8.241,5.086.709.441,1.05.536,1.048-.52q-.033-14.473,0-28.947c0-.748-.225-.98-.978-.977q-9.83.038-19.659,0c-.712,0-1,.138-1,.935.026,9.957.016,19.915.016,30.141C641.632,1417.6,644.711,1415.786,647.709,1413.848Z" transform="translate(0)" fill="#5ace8d"/><path d="M651.386,1408.9c-.663,0-1.326.018-1.989-.005-.632-.022-1.179-.274-1.191-.977-.013-.779.566-1.043,1.251-1.055,1.149-.02,2.3-.036,3.447,0,.638.022.852-.21.83-.837-.038-1.1.008-2.209-.016-3.313-.015-.692.137-1.326.916-1.344s.969.6.952,1.3c-.025,1.015.059,2.037-.024,3.047-.08.968.305,1.214,1.2,1.153,1.012-.07,2.032-.026,3.048-.011.663.01,1.321.167,1.29.982-.028.721-.642.865-1.26.867-1.1,0-2.212.047-3.314-.012-.789-.043-.994.267-.932,1,.094,1.1.117,2.2.17,3.308.032.671-.091,1.337-.887,1.365s-.967-.6-.958-1.3c.014-.972-.061-1.949.02-2.915s-.207-1.409-1.231-1.26a9.317,9.317,0,0,1-1.324.01Z" transform="translate(-5.487 -6.891)" fill="#5ace8d"/></g></g><g transform="translate(413 1030)"><g transform="matrix(1, 0, 0, 1, -413, -1030)" filter="url(#g)"><rect width="378" height="403" rx="16" transform="translate(572 1530)" fill="#fff"/></g><g transform="translate(178.771 772.504)"><g transform="translate(0.229 0.496)"><text fill="#23454f" font-size="20" font-family="Poppins-Bold, Poppins" font-weight="700"><tspan x="0" y="21">Name of asset and title category</tspan></text><text transform="translate(0 27)" fill="#23454f" font-size="15" font-family="Poppins-Medium, Poppins" font-weight="500"><tspan x="0" y="16">By </tspan><tspan y="16" fill="#46b175">House of motion studio</tspan><tspan y="16" xml:space="preserve"> in </tspan><tspan y="16" fill="#fa7808">Motion graphics </tspan></text></g></g><g transform="translate(178.771 837.518)"><rect width="64" height="45" transform="translate(0.229 0.482)" fill="#d7deb6"/><g transform="translate(8.859 7.875)"><g transform="translate(0 0)"><text transform="translate(0.37 22.607)" fill="#23454f" font-size="22" font-family="Poppins-SemiBold, Poppins" font-weight="600"><tspan x="0" y="0">N3k</tspan></text></g></g></g><g transform="translate(-200.608 -540.92)"><path d="M757.512,1398.24c0,1.149.039,2.3-.012,3.448-.036.794.215,1.111,1.047,1.077,1.369-.056,2.742,0,4.112-.022a1.49,1.49,0,0,1,1.624.883,1.811,1.811,0,0,1-.288,1.993c-2.787,2.84-5.564,5.691-8.405,8.477a1.657,1.657,0,0,1-2.492-.11c-2.717-2.723-5.411-5.469-8.119-8.2a1.826,1.826,0,0,1-.4-2.186,1.759,1.759,0,0,1,1.842-1.014c1.324.055,2.655-.027,3.979.03.769.033.974-.24.959-.98-.044-2.166-.022-4.332-.013-6.5.007-2.037,1.242-3.424,3.054-3.455a3.088,3.088,0,0,1,3.112,3.374C757.521,1396.117,757.512,1397.178,757.512,1398.24Z" transform="translate(-50.537 -2.355)" fill="#5ace8d"/><path d="M750.007,1446.727q-5.909,0-11.818,0a2.1,2.1,0,0,1-2.257-1.666,2.06,2.06,0,0,1,.988-2.4,3.051,3.051,0,0,1,1.663-.364c7.613-.008,15.227-.022,22.84.005,1.9.007,2.944,1.09,2.69,2.624-.192,1.159-1.056,1.792-2.554,1.8C757.709,1446.738,753.858,1446.729,750.007,1446.727Z" transform="translate(-46.544 -26.059)" fill="#5ace8d"/><path d="M661.837,1404.324q0,8.1-.006,16.2c0,.553.161,1.179-.494,1.536s-1.1-.144-1.56-.425c-3.247-1.981-6.489-3.97-9.705-6a1.43,1.43,0,0,0-1.772.007c-3.215,2.031-6.462,4.012-9.7,6-.473.29-.929.738-1.573.4-.661-.345-.5-.97-.5-1.525-.005-10.712.011-21.424-.023-32.135,0-1.273.46-1.729,1.709-1.724q11.025.045,22.05,0c1.191-.006,1.623.355,1.61,1.6C661.8,1393.612,661.837,1398.968,661.837,1404.324Zm-14.127,9.524a2.382,2.382,0,0,1,2.995.026c2.705,1.76,5.5,3.381,8.241,5.086.709.441,1.05.536,1.048-.52q-.033-14.473,0-28.947c0-.748-.225-.98-.978-.977q-9.83.038-19.659,0c-.712,0-1,.138-1,.935.026,9.957.016,19.915.016,30.141C641.632,1417.6,644.711,1415.786,647.709,1413.848Z" transform="translate(0)" fill="#5ace8d"/><path d="M651.386,1408.9c-.663,0-1.326.018-1.989-.005-.632-.022-1.179-.274-1.191-.977-.013-.779.566-1.043,1.251-1.055,1.149-.02,2.3-.036,3.447,0,.638.022.852-.21.83-.837-.038-1.1.008-2.209-.016-3.313-.015-.692.137-1.326.916-1.344s.969.6.952,1.3c-.025,1.015.059,2.037-.024,3.047-.08.968.305,1.214,1.2,1.153,1.012-.07,2.032-.026,3.048-.011.663.01,1.321.167,1.29.982-.028.721-.642.865-1.26.867-1.1,0-2.212.047-3.314-.012-.789-.043-.994.267-.932,1,.094,1.1.117,2.2.17,3.308.032.671-.091,1.337-.887,1.365s-.967-.6-.958-1.3c.014-.972-.061-1.949.02-2.915s-.207-1.409-1.231-1.26a9.317,9.317,0,0,1-1.324.01Z" transform="translate(-5.487 -6.891)" fill="#5ace8d"/></g></g><g transform="translate(413 460)"><g transform="matrix(1, 0, 0, 1, -413, -460)" filter="url(#i)"><rect width="378" height="403" rx="16" transform="translate(572 960)" fill="#fff"/></g><g transform="translate(178.771 772.504)"><g transform="translate(0.229 0.496)"><text fill="#23454f" font-size="20" font-family="Poppins-Bold, Poppins" font-weight="700"><tspan x="0" y="21">Name of asset and title category</tspan></text><text transform="translate(0 27)" fill="#23454f" font-size="15" font-family="Poppins-Medium, Poppins" font-weight="500"><tspan x="0" y="16">By </tspan><tspan y="16" fill="#46b175">House of motion studio</tspan><tspan y="16" xml:space="preserve"> in </tspan><tspan y="16" fill="#fa7808">Motion graphics </tspan></text></g></g><g transform="translate(178.771 837.518)"><rect width="64" height="45" transform="translate(0.229 0.482)" fill="#d7deb6"/><g transform="translate(8.859 7.875)"><g transform="translate(0 0)"><text transform="translate(0.37 22.607)" fill="#23454f" font-size="22" font-family="Poppins-SemiBold, Poppins" font-weight="600"><tspan x="0" y="0">N3k</tspan></text></g></g></g><g transform="translate(-200.608 -540.92)"><path d="M757.512,1398.24c0,1.149.039,2.3-.012,3.448-.036.794.215,1.111,1.047,1.077,1.369-.056,2.742,0,4.112-.022a1.49,1.49,0,0,1,1.624.883,1.811,1.811,0,0,1-.288,1.993c-2.787,2.84-5.564,5.691-8.405,8.477a1.657,1.657,0,0,1-2.492-.11c-2.717-2.723-5.411-5.469-8.119-8.2a1.826,1.826,0,0,1-.4-2.186,1.759,1.759,0,0,1,1.842-1.014c1.324.055,2.655-.027,3.979.03.769.033.974-.24.959-.98-.044-2.166-.022-4.332-.013-6.5.007-2.037,1.242-3.424,3.054-3.455a3.088,3.088,0,0,1,3.112,3.374C757.521,1396.117,757.512,1397.178,757.512,1398.24Z" transform="translate(-50.537 -2.355)" fill="#5ace8d"/><path d="M750.007,1446.727q-5.909,0-11.818,0a2.1,2.1,0,0,1-2.257-1.666,2.06,2.06,0,0,1,.988-2.4,3.051,3.051,0,0,1,1.663-.364c7.613-.008,15.227-.022,22.84.005,1.9.007,2.944,1.09,2.69,2.624-.192,1.159-1.056,1.792-2.554,1.8C757.709,1446.738,753.858,1446.729,750.007,1446.727Z" transform="translate(-46.544 -26.059)" fill="#5ace8d"/><path d="M661.837,1404.324q0,8.1-.006,16.2c0,.553.161,1.179-.494,1.536s-1.1-.144-1.56-.425c-3.247-1.981-6.489-3.97-9.705-6a1.43,1.43,0,0,0-1.772.007c-3.215,2.031-6.462,4.012-9.7,6-.473.29-.929.738-1.573.4-.661-.345-.5-.97-.5-1.525-.005-10.712.011-21.424-.023-32.135,0-1.273.46-1.729,1.709-1.724q11.025.045,22.05,0c1.191-.006,1.623.355,1.61,1.6C661.8,1393.612,661.837,1398.968,661.837,1404.324Zm-14.127,9.524a2.382,2.382,0,0,1,2.995.026c2.705,1.76,5.5,3.381,8.241,5.086.709.441,1.05.536,1.048-.52q-.033-14.473,0-28.947c0-.748-.225-.98-.978-.977q-9.83.038-19.659,0c-.712,0-1,.138-1,.935.026,9.957.016,19.915.016,30.141C641.632,1417.6,644.711,1415.786,647.709,1413.848Z" transform="translate(0)" fill="#5ace8d"/><path d="M651.386,1408.9c-.663,0-1.326.018-1.989-.005-.632-.022-1.179-.274-1.191-.977-.013-.779.566-1.043,1.251-1.055,1.149-.02,2.3-.036,3.447,0,.638.022.852-.21.83-.837-.038-1.1.008-2.209-.016-3.313-.015-.692.137-1.326.916-1.344s.969.6.952,1.3c-.025,1.015.059,2.037-.024,3.047-.08.968.305,1.214,1.2,1.153,1.012-.07,2.032-.026,3.048-.011.663.01,1.321.167,1.29.982-.028.721-.642.865-1.26.867-1.1,0-2.212.047-3.314-.012-.789-.043-.994.267-.932,1,.094,1.1.117,2.2.17,3.308.032.671-.091,1.337-.887,1.365s-.967-.6-.958-1.3c.014-.972-.061-1.949.02-2.915s-.207-1.409-1.231-1.26a9.317,9.317,0,0,1-1.324.01Z" transform="translate(-5.487 -6.891)" fill="#5ace8d"/></g></g><g transform="translate(413 1562)"><g transform="matrix(1, 0, 0, 1, -413, -1562)" filter="url(#k)"><rect width="378" height="403" rx="16" transform="translate(572 2062)" fill="#fff"/></g><g transform="translate(178.771 772.504)"><g transform="translate(0.229 0.496)"><text fill="#23454f" font-size="20" font-family="Poppins-Bold, Poppins" font-weight="700"><tspan x="0" y="21">Name of asset and title category</tspan></text><text transform="translate(0 27)" fill="#23454f" font-size="15" font-family="Poppins-Medium, Poppins" font-weight="500"><tspan x="0" y="16">By </tspan><tspan y="16" fill="#46b175">House of motion studio</tspan><tspan y="16" xml:space="preserve"> in </tspan><tspan y="16" fill="#fa7808">Motion graphics </tspan></text></g></g><g transform="translate(178.771 837.518)"><rect width="64" height="45" transform="translate(0.229 0.482)" fill="#d7deb6"/><g transform="translate(8.859 7.875)"><g transform="translate(0 0)"><text transform="translate(0.37 22.607)" fill="#23454f" font-size="22" font-family="Poppins-SemiBold, Poppins" font-weight="600"><tspan x="0" y="0">N3k</tspan></text></g></g></g><g transform="translate(-200.608 -540.92)"><path d="M757.512,1398.24c0,1.149.039,2.3-.012,3.448-.036.794.215,1.111,1.047,1.077,1.369-.056,2.742,0,4.112-.022a1.49,1.49,0,0,1,1.624.883,1.811,1.811,0,0,1-.288,1.993c-2.787,2.84-5.564,5.691-8.405,8.477a1.657,1.657,0,0,1-2.492-.11c-2.717-2.723-5.411-5.469-8.119-8.2a1.826,1.826,0,0,1-.4-2.186,1.759,1.759,0,0,1,1.842-1.014c1.324.055,2.655-.027,3.979.03.769.033.974-.24.959-.98-.044-2.166-.022-4.332-.013-6.5.007-2.037,1.242-3.424,3.054-3.455a3.088,3.088,0,0,1,3.112,3.374C757.521,1396.117,757.512,1397.178,757.512,1398.24Z" transform="translate(-50.537 -2.355)" fill="#5ace8d"/><path d="M750.007,1446.727q-5.909,0-11.818,0a2.1,2.1,0,0,1-2.257-1.666,2.06,2.06,0,0,1,.988-2.4,3.051,3.051,0,0,1,1.663-.364c7.613-.008,15.227-.022,22.84.005,1.9.007,2.944,1.09,2.69,2.624-.192,1.159-1.056,1.792-2.554,1.8C757.709,1446.738,753.858,1446.729,750.007,1446.727Z" transform="translate(-46.544 -26.059)" fill="#5ace8d"/><path d="M661.837,1404.324q0,8.1-.006,16.2c0,.553.161,1.179-.494,1.536s-1.1-.144-1.56-.425c-3.247-1.981-6.489-3.97-9.705-6a1.43,1.43,0,0,0-1.772.007c-3.215,2.031-6.462,4.012-9.7,6-.473.29-.929.738-1.573.4-.661-.345-.5-.97-.5-1.525-.005-10.712.011-21.424-.023-32.135,0-1.273.46-1.729,1.709-1.724q11.025.045,22.05,0c1.191-.006,1.623.355,1.61,1.6C661.8,1393.612,661.837,1398.968,661.837,1404.324Zm-14.127,9.524a2.382,2.382,0,0,1,2.995.026c2.705,1.76,5.5,3.381,8.241,5.086.709.441,1.05.536,1.048-.52q-.033-14.473,0-28.947c0-.748-.225-.98-.978-.977q-9.83.038-19.659,0c-.712,0-1,.138-1,.935.026,9.957.016,19.915.016,30.141C641.632,1417.6,644.711,1415.786,647.709,1413.848Z" transform="translate(0)" fill="#5ace8d"/><path d="M651.386,1408.9c-.663,0-1.326.018-1.989-.005-.632-.022-1.179-.274-1.191-.977-.013-.779.566-1.043,1.251-1.055,1.149-.02,2.3-.036,3.447,0,.638.022.852-.21.83-.837-.038-1.1.008-2.209-.016-3.313-.015-.692.137-1.326.916-1.344s.969.6.952,1.3c-.025,1.015.059,2.037-.024,3.047-.08.968.305,1.214,1.2,1.153,1.012-.07,2.032-.026,3.048-.011.663.01,1.321.167,1.29.982-.028.721-.642.865-1.26.867-1.1,0-2.212.047-3.314-.012-.789-.043-.994.267-.932,1,.094,1.1.117,2.2.17,3.308.032.671-.091,1.337-.887,1.365s-.967-.6-.958-1.3c.014-.972-.061-1.949.02-2.915s-.207-1.409-1.231-1.26a9.317,9.317,0,0,1-1.324.01Z" transform="translate(-5.487 -6.891)" fill="#5ace8d"/></g></g><g transform="translate(825 1030)"><g transform="matrix(1, 0, 0, 1, -825, -1030)" filter="url(#m)"><rect width="378" height="403" rx="16" transform="translate(984 1530)" fill="#fff"/></g><g transform="translate(178.771 772.504)"><g transform="translate(0.229 0.496)"><text fill="#23454f" font-size="20" font-family="Poppins-Bold, Poppins" font-weight="700"><tspan x="0" y="21">Name of asset and title category</tspan></text><text transform="translate(0 27)" fill="#23454f" font-size="15" font-family="Poppins-Medium, Poppins" font-weight="500"><tspan x="0" y="16">By </tspan><tspan y="16" fill="#46b175">House of motion studio</tspan><tspan y="16" xml:space="preserve"> in </tspan><tspan y="16" fill="#fa7808">Motion graphics </tspan></text></g></g><g transform="translate(178.771 837.518)"><rect width="64" height="45" transform="translate(0.229 0.482)" fill="#d7deb6"/><g transform="translate(8.859 7.875)"><g transform="translate(0 0)"><text transform="translate(0.37 22.607)" fill="#23454f" font-size="22" font-family="Poppins-SemiBold, Poppins" font-weight="600"><tspan x="0" y="0">N3k</tspan></text></g></g></g><g transform="translate(-200.608 -540.92)"><path d="M757.512,1398.24c0,1.149.039,2.3-.012,3.448-.036.794.215,1.111,1.047,1.077,1.369-.056,2.742,0,4.112-.022a1.49,1.49,0,0,1,1.624.883,1.811,1.811,0,0,1-.288,1.993c-2.787,2.84-5.564,5.691-8.405,8.477a1.657,1.657,0,0,1-2.492-.11c-2.717-2.723-5.411-5.469-8.119-8.2a1.826,1.826,0,0,1-.4-2.186,1.759,1.759,0,0,1,1.842-1.014c1.324.055,2.655-.027,3.979.03.769.033.974-.24.959-.98-.044-2.166-.022-4.332-.013-6.5.007-2.037,1.242-3.424,3.054-3.455a3.088,3.088,0,0,1,3.112,3.374C757.521,1396.117,757.512,1397.178,757.512,1398.24Z" transform="translate(-50.537 -2.355)" fill="#5ace8d"/><path d="M750.007,1446.727q-5.909,0-11.818,0a2.1,2.1,0,0,1-2.257-1.666,2.06,2.06,0,0,1,.988-2.4,3.051,3.051,0,0,1,1.663-.364c7.613-.008,15.227-.022,22.84.005,1.9.007,2.944,1.09,2.69,2.624-.192,1.159-1.056,1.792-2.554,1.8C757.709,1446.738,753.858,1446.729,750.007,1446.727Z" transform="translate(-46.544 -26.059)" fill="#5ace8d"/><path d="M661.837,1404.324q0,8.1-.006,16.2c0,.553.161,1.179-.494,1.536s-1.1-.144-1.56-.425c-3.247-1.981-6.489-3.97-9.705-6a1.43,1.43,0,0,0-1.772.007c-3.215,2.031-6.462,4.012-9.7,6-.473.29-.929.738-1.573.4-.661-.345-.5-.97-.5-1.525-.005-10.712.011-21.424-.023-32.135,0-1.273.46-1.729,1.709-1.724q11.025.045,22.05,0c1.191-.006,1.623.355,1.61,1.6C661.8,1393.612,661.837,1398.968,661.837,1404.324Zm-14.127,9.524a2.382,2.382,0,0,1,2.995.026c2.705,1.76,5.5,3.381,8.241,5.086.709.441,1.05.536,1.048-.52q-.033-14.473,0-28.947c0-.748-.225-.98-.978-.977q-9.83.038-19.659,0c-.712,0-1,.138-1,.935.026,9.957.016,19.915.016,30.141C641.632,1417.6,644.711,1415.786,647.709,1413.848Z" transform="translate(0)" fill="#5ace8d"/><path d="M651.386,1408.9c-.663,0-1.326.018-1.989-.005-.632-.022-1.179-.274-1.191-.977-.013-.779.566-1.043,1.251-1.055,1.149-.02,2.3-.036,3.447,0,.638.022.852-.21.83-.837-.038-1.1.008-2.209-.016-3.313-.015-.692.137-1.326.916-1.344s.969.6.952,1.3c-.025,1.015.059,2.037-.024,3.047-.08.968.305,1.214,1.2,1.153,1.012-.07,2.032-.026,3.048-.011.663.01,1.321.167,1.29.982-.028.721-.642.865-1.26.867-1.1,0-2.212.047-3.314-.012-.789-.043-.994.267-.932,1,.094,1.1.117,2.2.17,3.308.032.671-.091,1.337-.887,1.365s-.967-.6-.958-1.3c.014-.972-.061-1.949.02-2.915s-.207-1.409-1.231-1.26a9.317,9.317,0,0,1-1.324.01Z" transform="translate(-5.487 -6.891)" fill="#5ace8d"/></g></g><g transform="translate(825 460)"><g transform="matrix(1, 0, 0, 1, -825, -460)" filter="url(#o)"><rect width="378" height="403" rx="16" transform="translate(984 960)" fill="#fff"/></g><g transform="translate(178.771 772.504)"><g transform="translate(0.229 0.496)"><text fill="#23454f" font-size="20" font-family="Poppins-Bold, Poppins" font-weight="700"><tspan x="0" y="21">Name of asset and title category</tspan></text><text transform="translate(0 27)" fill="#23454f" font-size="15" font-family="Poppins-Medium, Poppins" font-weight="500"><tspan x="0" y="16">By </tspan><tspan y="16" fill="#46b175">House of motion studio</tspan><tspan y="16" xml:space="preserve"> in </tspan><tspan y="16" fill="#fa7808">Motion graphics </tspan></text></g></g><g transform="translate(178.771 837.518)"><rect width="64" height="45" transform="translate(0.229 0.482)" fill="#d7deb6"/><g transform="translate(8.859 7.875)"><g transform="translate(0 0)"><text transform="translate(0.37 22.607)" fill="#23454f" font-size="22" font-family="Poppins-SemiBold, Poppins" font-weight="600"><tspan x="0" y="0">N3k</tspan></text></g></g></g><g transform="translate(-200.608 -540.92)"><path d="M757.512,1398.24c0,1.149.039,2.3-.012,3.448-.036.794.215,1.111,1.047,1.077,1.369-.056,2.742,0,4.112-.022a1.49,1.49,0,0,1,1.624.883,1.811,1.811,0,0,1-.288,1.993c-2.787,2.84-5.564,5.691-8.405,8.477a1.657,1.657,0,0,1-2.492-.11c-2.717-2.723-5.411-5.469-8.119-8.2a1.826,1.826,0,0,1-.4-2.186,1.759,1.759,0,0,1,1.842-1.014c1.324.055,2.655-.027,3.979.03.769.033.974-.24.959-.98-.044-2.166-.022-4.332-.013-6.5.007-2.037,1.242-3.424,3.054-3.455a3.088,3.088,0,0,1,3.112,3.374C757.521,1396.117,757.512,1397.178,757.512,1398.24Z" transform="translate(-50.537 -2.355)" fill="#5ace8d"/><path d="M750.007,1446.727q-5.909,0-11.818,0a2.1,2.1,0,0,1-2.257-1.666,2.06,2.06,0,0,1,.988-2.4,3.051,3.051,0,0,1,1.663-.364c7.613-.008,15.227-.022,22.84.005,1.9.007,2.944,1.09,2.69,2.624-.192,1.159-1.056,1.792-2.554,1.8C757.709,1446.738,753.858,1446.729,750.007,1446.727Z" transform="translate(-46.544 -26.059)" fill="#5ace8d"/><path d="M661.837,1404.324q0,8.1-.006,16.2c0,.553.161,1.179-.494,1.536s-1.1-.144-1.56-.425c-3.247-1.981-6.489-3.97-9.705-6a1.43,1.43,0,0,0-1.772.007c-3.215,2.031-6.462,4.012-9.7,6-.473.29-.929.738-1.573.4-.661-.345-.5-.97-.5-1.525-.005-10.712.011-21.424-.023-32.135,0-1.273.46-1.729,1.709-1.724q11.025.045,22.05,0c1.191-.006,1.623.355,1.61,1.6C661.8,1393.612,661.837,1398.968,661.837,1404.324Zm-14.127,9.524a2.382,2.382,0,0,1,2.995.026c2.705,1.76,5.5,3.381,8.241,5.086.709.441,1.05.536,1.048-.52q-.033-14.473,0-28.947c0-.748-.225-.98-.978-.977q-9.83.038-19.659,0c-.712,0-1,.138-1,.935.026,9.957.016,19.915.016,30.141C641.632,1417.6,644.711,1415.786,647.709,1413.848Z" transform="translate(0)" fill="#5ace8d"/><path d="M651.386,1408.9c-.663,0-1.326.018-1.989-.005-.632-.022-1.179-.274-1.191-.977-.013-.779.566-1.043,1.251-1.055,1.149-.02,2.3-.036,3.447,0,.638.022.852-.21.83-.837-.038-1.1.008-2.209-.016-3.313-.015-.692.137-1.326.916-1.344s.969.6.952,1.3c-.025,1.015.059,2.037-.024,3.047-.08.968.305,1.214,1.2,1.153,1.012-.07,2.032-.026,3.048-.011.663.01,1.321.167,1.29.982-.028.721-.642.865-1.26.867-1.1,0-2.212.047-3.314-.012-.789-.043-.994.267-.932,1,.094,1.1.117,2.2.17,3.308.032.671-.091,1.337-.887,1.365s-.967-.6-.958-1.3c.014-.972-.061-1.949.02-2.915s-.207-1.409-1.231-1.26a9.317,9.317,0,0,1-1.324.01Z" transform="translate(-5.487 -6.891)" fill="#5ace8d"/></g></g><g transform="translate(825 1562)"><g transform="matrix(1, 0, 0, 1, -825, -1562)" filter="url(#q)"><rect width="378" height="403" rx="16" transform="translate(984 2062)" fill="#fff"/></g><g transform="translate(178.771 772.504)"><g transform="translate(0.229 0.496)"><text fill="#23454f" font-size="20" font-family="Poppins-Bold, Poppins" font-weight="700"><tspan x="0" y="21">Name of asset and title category</tspan></text><text transform="translate(0 27)" fill="#23454f" font-size="15" font-family="Poppins-Medium, Poppins" font-weight="500"><tspan x="0" y="16">By </tspan><tspan y="16" fill="#46b175">House of motion studio</tspan><tspan y="16" xml:space="preserve"> in </tspan><tspan y="16" fill="#fa7808">Motion graphics </tspan></text></g></g><g transform="translate(178.771 837.518)"><rect width="64" height="45" transform="translate(0.229 0.482)" fill="#d7deb6"/><g transform="translate(8.859 7.875)"><g transform="translate(0 0)"><text transform="translate(0.37 22.607)" fill="#23454f" font-size="22" font-family="Poppins-SemiBold, Poppins" font-weight="600"><tspan x="0" y="0">N3k</tspan></text></g></g></g><g transform="translate(-200.608 -540.92)"><path d="M757.512,1398.24c0,1.149.039,2.3-.012,3.448-.036.794.215,1.111,1.047,1.077,1.369-.056,2.742,0,4.112-.022a1.49,1.49,0,0,1,1.624.883,1.811,1.811,0,0,1-.288,1.993c-2.787,2.84-5.564,5.691-8.405,8.477a1.657,1.657,0,0,1-2.492-.11c-2.717-2.723-5.411-5.469-8.119-8.2a1.826,1.826,0,0,1-.4-2.186,1.759,1.759,0,0,1,1.842-1.014c1.324.055,2.655-.027,3.979.03.769.033.974-.24.959-.98-.044-2.166-.022-4.332-.013-6.5.007-2.037,1.242-3.424,3.054-3.455a3.088,3.088,0,0,1,3.112,3.374C757.521,1396.117,757.512,1397.178,757.512,1398.24Z" transform="translate(-50.537 -2.355)" fill="#5ace8d"/><path d="M750.007,1446.727q-5.909,0-11.818,0a2.1,2.1,0,0,1-2.257-1.666,2.06,2.06,0,0,1,.988-2.4,3.051,3.051,0,0,1,1.663-.364c7.613-.008,15.227-.022,22.84.005,1.9.007,2.944,1.09,2.69,2.624-.192,1.159-1.056,1.792-2.554,1.8C757.709,1446.738,753.858,1446.729,750.007,1446.727Z" transform="translate(-46.544 -26.059)" fill="#5ace8d"/><path d="M661.837,1404.324q0,8.1-.006,16.2c0,.553.161,1.179-.494,1.536s-1.1-.144-1.56-.425c-3.247-1.981-6.489-3.97-9.705-6a1.43,1.43,0,0,0-1.772.007c-3.215,2.031-6.462,4.012-9.7,6-.473.29-.929.738-1.573.4-.661-.345-.5-.97-.5-1.525-.005-10.712.011-21.424-.023-32.135,0-1.273.46-1.729,1.709-1.724q11.025.045,22.05,0c1.191-.006,1.623.355,1.61,1.6C661.8,1393.612,661.837,1398.968,661.837,1404.324Zm-14.127,9.524a2.382,2.382,0,0,1,2.995.026c2.705,1.76,5.5,3.381,8.241,5.086.709.441,1.05.536,1.048-.52q-.033-14.473,0-28.947c0-.748-.225-.98-.978-.977q-9.83.038-19.659,0c-.712,0-1,.138-1,.935.026,9.957.016,19.915.016,30.141C641.632,1417.6,644.711,1415.786,647.709,1413.848Z" transform="translate(0)" fill="#5ace8d"/><path d="M651.386,1408.9c-.663,0-1.326.018-1.989-.005-.632-.022-1.179-.274-1.191-.977-.013-.779.566-1.043,1.251-1.055,1.149-.02,2.3-.036,3.447,0,.638.022.852-.21.83-.837-.038-1.1.008-2.209-.016-3.313-.015-.692.137-1.326.916-1.344s.969.6.952,1.3c-.025,1.015.059,2.037-.024,3.047-.08.968.305,1.214,1.2,1.153,1.012-.07,2.032-.026,3.048-.011.663.01,1.321.167,1.29.982-.028.721-.642.865-1.26.867-1.1,0-2.212.047-3.314-.012-.789-.043-.994.267-.932,1,.094,1.1.117,2.2.17,3.308.032.671-.091,1.337-.887,1.365s-.967-.6-.958-1.3c.014-.972-.061-1.949.02-2.915s-.207-1.409-1.231-1.26a9.317,9.317,0,0,1-1.324.01Z" transform="translate(-5.487 -6.891)" fill="#5ace8d"/></g></g><g transform="translate(1237 1030)"><g transform="matrix(1, 0, 0, 1, -1237, -1030)" filter="url(#s)"><rect width="378" height="403" rx="16" transform="translate(1396 1530)" fill="#fff"/></g><g transform="translate(178.771 772.504)"><g transform="translate(0.229 0.496)"><text fill="#23454f" font-size="20" font-family="Poppins-Bold, Poppins" font-weight="700"><tspan x="0" y="21">Name of asset and title category</tspan></text><text transform="translate(0 27)" fill="#23454f" font-size="15" font-family="Poppins-Medium, Poppins" font-weight="500"><tspan x="0" y="16">By </tspan><tspan y="16" fill="#46b175">House of motion studio</tspan><tspan y="16" xml:space="preserve"> in </tspan><tspan y="16" fill="#fa7808">Motion graphics </tspan></text></g></g><g transform="translate(178.771 837.518)"><rect width="64" height="45" transform="translate(0.229 0.482)" fill="#d7deb6"/><g transform="translate(8.859 7.875)"><g transform="translate(0 0)"><text transform="translate(0.37 22.607)" fill="#23454f" font-size="22" font-family="Poppins-SemiBold, Poppins" font-weight="600"><tspan x="0" y="0">N3k</tspan></text></g></g></g><g transform="translate(-200.608 -540.92)"><path d="M757.512,1398.24c0,1.149.039,2.3-.012,3.448-.036.794.215,1.111,1.047,1.077,1.369-.056,2.742,0,4.112-.022a1.49,1.49,0,0,1,1.624.883,1.811,1.811,0,0,1-.288,1.993c-2.787,2.84-5.564,5.691-8.405,8.477a1.657,1.657,0,0,1-2.492-.11c-2.717-2.723-5.411-5.469-8.119-8.2a1.826,1.826,0,0,1-.4-2.186,1.759,1.759,0,0,1,1.842-1.014c1.324.055,2.655-.027,3.979.03.769.033.974-.24.959-.98-.044-2.166-.022-4.332-.013-6.5.007-2.037,1.242-3.424,3.054-3.455a3.088,3.088,0,0,1,3.112,3.374C757.521,1396.117,757.512,1397.178,757.512,1398.24Z" transform="translate(-50.537 -2.355)" fill="#5ace8d"/><path d="M750.007,1446.727q-5.909,0-11.818,0a2.1,2.1,0,0,1-2.257-1.666,2.06,2.06,0,0,1,.988-2.4,3.051,3.051,0,0,1,1.663-.364c7.613-.008,15.227-.022,22.84.005,1.9.007,2.944,1.09,2.69,2.624-.192,1.159-1.056,1.792-2.554,1.8C757.709,1446.738,753.858,1446.729,750.007,1446.727Z" transform="translate(-46.544 -26.059)" fill="#5ace8d"/><path d="M661.837,1404.324q0,8.1-.006,16.2c0,.553.161,1.179-.494,1.536s-1.1-.144-1.56-.425c-3.247-1.981-6.489-3.97-9.705-6a1.43,1.43,0,0,0-1.772.007c-3.215,2.031-6.462,4.012-9.7,6-.473.29-.929.738-1.573.4-.661-.345-.5-.97-.5-1.525-.005-10.712.011-21.424-.023-32.135,0-1.273.46-1.729,1.709-1.724q11.025.045,22.05,0c1.191-.006,1.623.355,1.61,1.6C661.8,1393.612,661.837,1398.968,661.837,1404.324Zm-14.127,9.524a2.382,2.382,0,0,1,2.995.026c2.705,1.76,5.5,3.381,8.241,5.086.709.441,1.05.536,1.048-.52q-.033-14.473,0-28.947c0-.748-.225-.98-.978-.977q-9.83.038-19.659,0c-.712,0-1,.138-1,.935.026,9.957.016,19.915.016,30.141C641.632,1417.6,644.711,1415.786,647.709,1413.848Z" transform="translate(0)" fill="#5ace8d"/><path d="M651.386,1408.9c-.663,0-1.326.018-1.989-.005-.632-.022-1.179-.274-1.191-.977-.013-.779.566-1.043,1.251-1.055,1.149-.02,2.3-.036,3.447,0,.638.022.852-.21.83-.837-.038-1.1.008-2.209-.016-3.313-.015-.692.137-1.326.916-1.344s.969.6.952,1.3c-.025,1.015.059,2.037-.024,3.047-.08.968.305,1.214,1.2,1.153,1.012-.07,2.032-.026,3.048-.011.663.01,1.321.167,1.29.982-.028.721-.642.865-1.26.867-1.1,0-2.212.047-3.314-.012-.789-.043-.994.267-.932,1,.094,1.1.117,2.2.17,3.308.032.671-.091,1.337-.887,1.365s-.967-.6-.958-1.3c.014-.972-.061-1.949.02-2.915s-.207-1.409-1.231-1.26a9.317,9.317,0,0,1-1.324.01Z" transform="translate(-5.487 -6.891)" fill="#5ace8d"/></g></g><g transform="translate(1237 460)"><g transform="matrix(1, 0, 0, 1, -1237, -460)" filter="url(#u)"><rect width="378" height="403" rx="16" transform="translate(1396 960)" fill="#fff"/></g><g transform="translate(178.771 772.504)"><g transform="translate(0.229 0.496)"><text fill="#23454f" font-size="20" font-family="Poppins-Bold, Poppins" font-weight="700"><tspan x="0" y="21">Name of asset and title category</tspan></text><text transform="translate(0 27)" fill="#23454f" font-size="15" font-family="Poppins-Medium, Poppins" font-weight="500"><tspan x="0" y="16">By </tspan><tspan y="16" fill="#46b175">House of motion studio</tspan><tspan y="16" xml:space="preserve"> in </tspan><tspan y="16" fill="#fa7808">Motion graphics </tspan></text></g></g><g transform="translate(178.771 837.518)"><rect width="64" height="45" transform="translate(0.229 0.482)" fill="#d7deb6"/><g transform="translate(8.859 7.875)"><g transform="translate(0 0)"><text transform="translate(0.37 22.607)" fill="#23454f" font-size="22" font-family="Poppins-SemiBold, Poppins" font-weight="600"><tspan x="0" y="0">N3k</tspan></text></g></g></g><g transform="translate(-200.608 -540.92)"><path d="M757.512,1398.24c0,1.149.039,2.3-.012,3.448-.036.794.215,1.111,1.047,1.077,1.369-.056,2.742,0,4.112-.022a1.49,1.49,0,0,1,1.624.883,1.811,1.811,0,0,1-.288,1.993c-2.787,2.84-5.564,5.691-8.405,8.477a1.657,1.657,0,0,1-2.492-.11c-2.717-2.723-5.411-5.469-8.119-8.2a1.826,1.826,0,0,1-.4-2.186,1.759,1.759,0,0,1,1.842-1.014c1.324.055,2.655-.027,3.979.03.769.033.974-.24.959-.98-.044-2.166-.022-4.332-.013-6.5.007-2.037,1.242-3.424,3.054-3.455a3.088,3.088,0,0,1,3.112,3.374C757.521,1396.117,757.512,1397.178,757.512,1398.24Z" transform="translate(-50.537 -2.355)" fill="#5ace8d"/><path d="M750.007,1446.727q-5.909,0-11.818,0a2.1,2.1,0,0,1-2.257-1.666,2.06,2.06,0,0,1,.988-2.4,3.051,3.051,0,0,1,1.663-.364c7.613-.008,15.227-.022,22.84.005,1.9.007,2.944,1.09,2.69,2.624-.192,1.159-1.056,1.792-2.554,1.8C757.709,1446.738,753.858,1446.729,750.007,1446.727Z" transform="translate(-46.544 -26.059)" fill="#5ace8d"/><path d="M661.837,1404.324q0,8.1-.006,16.2c0,.553.161,1.179-.494,1.536s-1.1-.144-1.56-.425c-3.247-1.981-6.489-3.97-9.705-6a1.43,1.43,0,0,0-1.772.007c-3.215,2.031-6.462,4.012-9.7,6-.473.29-.929.738-1.573.4-.661-.345-.5-.97-.5-1.525-.005-10.712.011-21.424-.023-32.135,0-1.273.46-1.729,1.709-1.724q11.025.045,22.05,0c1.191-.006,1.623.355,1.61,1.6C661.8,1393.612,661.837,1398.968,661.837,1404.324Zm-14.127,9.524a2.382,2.382,0,0,1,2.995.026c2.705,1.76,5.5,3.381,8.241,5.086.709.441,1.05.536,1.048-.52q-.033-14.473,0-28.947c0-.748-.225-.98-.978-.977q-9.83.038-19.659,0c-.712,0-1,.138-1,.935.026,9.957.016,19.915.016,30.141C641.632,1417.6,644.711,1415.786,647.709,1413.848Z" transform="translate(0)" fill="#5ace8d"/><path d="M651.386,1408.9c-.663,0-1.326.018-1.989-.005-.632-.022-1.179-.274-1.191-.977-.013-.779.566-1.043,1.251-1.055,1.149-.02,2.3-.036,3.447,0,.638.022.852-.21.83-.837-.038-1.1.008-2.209-.016-3.313-.015-.692.137-1.326.916-1.344s.969.6.952,1.3c-.025,1.015.059,2.037-.024,3.047-.08.968.305,1.214,1.2,1.153,1.012-.07,2.032-.026,3.048-.011.663.01,1.321.167,1.29.982-.028.721-.642.865-1.26.867-1.1,0-2.212.047-3.314-.012-.789-.043-.994.267-.932,1,.094,1.1.117,2.2.17,3.308.032.671-.091,1.337-.887,1.365s-.967-.6-.958-1.3c.014-.972-.061-1.949.02-2.915s-.207-1.409-1.231-1.26a9.317,9.317,0,0,1-1.324.01Z" transform="translate(-5.487 -6.891)" fill="#5ace8d"/></g></g><g transform="translate(1237 1562)"><g transform="matrix(1, 0, 0, 1, -1237, -1562)" filter="url(#w)"><rect width="378" height="403" rx="16" transform="translate(1396 2062)" fill="#fff"/></g><g transform="translate(178.771 772.504)"><g transform="translate(0.229 0.496)"><text fill="#23454f" font-size="20" font-family="Poppins-Bold, Poppins" font-weight="700"><tspan x="0" y="21">Name of asset and title category</tspan></text><text transform="translate(0 27)" fill="#23454f" font-size="15" font-family="Poppins-Medium, Poppins" font-weight="500"><tspan x="0" y="16">By </tspan><tspan y="16" fill="#46b175">House of motion studio</tspan><tspan y="16" xml:space="preserve"> in </tspan><tspan y="16" fill="#fa7808">Motion graphics </tspan></text></g></g><g transform="translate(178.771 837.518)"><rect width="64" height="45" transform="translate(0.229 0.482)" fill="#d7deb6"/><g transform="translate(8.859 7.875)"><g transform="translate(0 0)"><text transform="translate(0.37 22.607)" fill="#23454f" font-size="22" font-family="Poppins-SemiBold, Poppins" font-weight="600"><tspan x="0" y="0">N3k</tspan></text></g></g></g><g transform="translate(-200.608 -540.92)"><path d="M757.512,1398.24c0,1.149.039,2.3-.012,3.448-.036.794.215,1.111,1.047,1.077,1.369-.056,2.742,0,4.112-.022a1.49,1.49,0,0,1,1.624.883,1.811,1.811,0,0,1-.288,1.993c-2.787,2.84-5.564,5.691-8.405,8.477a1.657,1.657,0,0,1-2.492-.11c-2.717-2.723-5.411-5.469-8.119-8.2a1.826,1.826,0,0,1-.4-2.186,1.759,1.759,0,0,1,1.842-1.014c1.324.055,2.655-.027,3.979.03.769.033.974-.24.959-.98-.044-2.166-.022-4.332-.013-6.5.007-2.037,1.242-3.424,3.054-3.455a3.088,3.088,0,0,1,3.112,3.374C757.521,1396.117,757.512,1397.178,757.512,1398.24Z" transform="translate(-50.537 -2.355)" fill="#5ace8d"/><path d="M750.007,1446.727q-5.909,0-11.818,0a2.1,2.1,0,0,1-2.257-1.666,2.06,2.06,0,0,1,.988-2.4,3.051,3.051,0,0,1,1.663-.364c7.613-.008,15.227-.022,22.84.005,1.9.007,2.944,1.09,2.69,2.624-.192,1.159-1.056,1.792-2.554,1.8C757.709,1446.738,753.858,1446.729,750.007,1446.727Z" transform="translate(-46.544 -26.059)" fill="#5ace8d"/><path d="M661.837,1404.324q0,8.1-.006,16.2c0,.553.161,1.179-.494,1.536s-1.1-.144-1.56-.425c-3.247-1.981-6.489-3.97-9.705-6a1.43,1.43,0,0,0-1.772.007c-3.215,2.031-6.462,4.012-9.7,6-.473.29-.929.738-1.573.4-.661-.345-.5-.97-.5-1.525-.005-10.712.011-21.424-.023-32.135,0-1.273.46-1.729,1.709-1.724q11.025.045,22.05,0c1.191-.006,1.623.355,1.61,1.6C661.8,1393.612,661.837,1398.968,661.837,1404.324Zm-14.127,9.524a2.382,2.382,0,0,1,2.995.026c2.705,1.76,5.5,3.381,8.241,5.086.709.441,1.05.536,1.048-.52q-.033-14.473,0-28.947c0-.748-.225-.98-.978-.977q-9.83.038-19.659,0c-.712,0-1,.138-1,.935.026,9.957.016,19.915.016,30.141C641.632,1417.6,644.711,1415.786,647.709,1413.848Z" transform="translate(0)" fill="#5ace8d"/><path d="M651.386,1408.9c-.663,0-1.326.018-1.989-.005-.632-.022-1.179-.274-1.191-.977-.013-.779.566-1.043,1.251-1.055,1.149-.02,2.3-.036,3.447,0,.638.022.852-.21.83-.837-.038-1.1.008-2.209-.016-3.313-.015-.692.137-1.326.916-1.344s.969.6.952,1.3c-.025,1.015.059,2.037-.024,3.047-.08.968.305,1.214,1.2,1.153,1.012-.07,2.032-.026,3.048-.011.663.01,1.321.167,1.29.982-.028.721-.642.865-1.26.867-1.1,0-2.212.047-3.314-.012-.789-.043-.994.267-.932,1,.094,1.1.117,2.2.17,3.308.032.671-.091,1.337-.887,1.365s-.967-.6-.958-1.3c.014-.972-.061-1.949.02-2.915s-.207-1.409-1.231-1.26a9.317,9.317,0,0,1-1.324.01Z" transform="translate(-5.487 -6.891)" fill="#5ace8d"/></g></g><rect width="1985" height="178" transform="translate(-27 203)" fill="#23454f"/><rect width="845" height="13" transform="translate(0 113)" fill="#5ace8d"/><rect width="1920" height="589" transform="translate(0 3440)" fill="url(#y)"/><rect width="1920" height="877" transform="translate(0 2563)" fill="#5ace8d"/><text transform="translate(156 279)" fill="#fff" font-size="36" font-family="Poppins-Bold, Poppins" font-weight="700"><tspan x="0" y="0">Accelerate projects </tspan><tspan y="0" font-family="Poppins-LightItalic, Poppins" font-weight="300" font-style="italic">with</tspan><tspan y="0"> </tspan><tspan x="0" y="47">ready-to-use creative assets</tspan></text><g transform="translate(156.411 431)"><g transform="translate(0)"><text transform="translate(-0.411 27)" fill="#23454f" font-size="26" font-family="Poppins-SemiBold, Poppins" font-weight="600"><tspan x="0" y="0">Recently added </tspan></text></g></g><g transform="translate(156.411 1457)"><g transform="translate(0)"><text transform="translate(-0.411 27)" fill="#23454f" font-size="26" font-family="Poppins-SemiBold, Poppins" font-weight="600"><tspan x="0" y="0">Staff picks</tspan></text></g></g><g transform="translate(156.411 2000)"><g transform="translate(0)"><text transform="translate(-0.411 27)" fill="#23454f" font-size="26" font-family="Poppins-SemiBold, Poppins" font-weight="600"><tspan x="0" y="0">Recently viewed</tspan></text></g></g><g transform="translate(1101 3209)"><path d="M10.695,0H263.355c5.906,0,10.695,3.582,10.695,8V53c0,4.418-4.788,8-10.695,8H10.695C4.788,61,0,57.418,0,53V8C0,3.582,4.788,0,10.695,0Z" fill="#23454f"/><text transform="translate(31 39)" fill="#fff" font-size="26" font-family="Poppins-Bold, Poppins" font-weight="700"><tspan x="0" y="0">Start uploading</tspan></text></g><text transform="translate(1101 2931)" fill="#fff" font-size="50" font-family="Poppins-Bold, Poppins" font-weight="700"><tspan x="0" y="0">Join the creative </tspan><tspan font-family="Poppins-MediumItalic, Poppins" font-weight="500" font-style="italic"><tspan x="0" y="58">rich geng </tspan><tspan y="58" font-family="Poppins-Bold, Poppins" font-weight="700" font-style="normal">today</tspan></tspan></text><text transform="translate(1101 2772)" fill="#fff" font-size="74" font-family="Poppins-SemiBold, Poppins" font-weight="600"><tspan x="0" y="0">55</tspan></text><text transform="translate(1314 2772)" fill="#fff" font-size="74" font-family="Poppins-SemiBold, Poppins" font-weight="600"><tspan x="0" y="0">500</tspan></text><text transform="translate(1102 3032)" fill="#fff" font-size="22" font-family="Poppins-Regular, Poppins"><tspan x="0" y="23">Make money by converting all your unapproved </tspan><tspan x="0" y="56">residual creatives into creative stock for an </tspan><tspan x="0" y="89">awaiting global creative marketplace and start </tspan><tspan x="0" y="122">earning on your own terms.</tspan></text><text transform="translate(1101 2810)" fill="#fff" font-size="20" font-family="Poppins-SemiBoldItalic, Poppins" font-weight="600" font-style="italic"><tspan x="0" y="0">NEW ASSETS </tspan><tspan x="0" y="22">ADDED </tspan></text><text transform="translate(1314 2810)" fill="#fff" font-size="20" font-family="Poppins-SemiBoldItalic, Poppins" font-weight="600" font-style="italic"><tspan x="0" y="0">STOCK </tspan><tspan x="0" y="22">DOWNLOADS</tspan></text><rect width="1960" height="148" transform="translate(-18 -22)" fill="#fff"/><g transform="translate(0 -10)"><g transform="translate(158 40)" clip-path="url(#z)"><rect width="2602" height="1327" transform="translate(-253 -24)" fill="url(#aa)"/></g><text transform="translate(222 103)" fill="#5ace8d" font-size="19" font-family="Poppins-Bold, Poppins" font-weight="700"><tspan x="0" y="0">marketplace</tspan></text></g><rect width="762" height="646" rx="20" transform="translate(250 2687)" fill="url(#ab)"/><rect width="327" height="111" rx="16" transform="translate(161 2926)" fill="#fff2e6"/><image width="73" height="81" transform="translate(193 2942)" xlink:href="Cached%20landing-image4.png"/><rect width="80" height="78" transform="translate(293 2942)" fill="url(#ac)"/><image width="84" height="84" transform="translate(387 2936)" xlink:href="Cached%20landing-image6.png"/><g transform="matrix(1, 0, 0, 1, 0, 0)" filter="url(#ad)"><rect width="378" height="403" rx="16" transform="translate(159 500)" fill="#fff"/></g><g transform="translate(178.771 772.504)"><g transform="translate(0.229 0.496)"><text fill="#23454f" font-size="20" font-family="Poppins-Bold, Poppins" font-weight="700"><tspan x="0" y="21">Name of asset and title category</tspan></text><text transform="translate(0 27)" fill="#23454f" font-size="15" font-family="Poppins-Medium, Poppins" font-weight="500"><tspan x="0" y="16">By </tspan><tspan y="16" fill="#46b175">House of motion studio</tspan><tspan y="16" xml:space="preserve"> in </tspan><tspan y="16" fill="#fa7808">Motion graphics </tspan></text></g></g><g transform="translate(178.771 837.518)"><rect width="64" height="45" transform="translate(0.229 0.482)" fill="#d7deb6"/><g transform="translate(8.859 7.875)"><g transform="translate(0 0)"><text transform="translate(0.37 22.607)" fill="#23454f" font-size="22" font-family="Poppins-SemiBold, Poppins" font-weight="600"><tspan x="0" y="0">N3k</tspan></text></g></g></g><g transform="translate(-200.608 -540.92)"><path d="M757.512,1398.24c0,1.149.039,2.3-.012,3.448-.036.794.215,1.111,1.047,1.077,1.369-.056,2.742,0,4.112-.022a1.49,1.49,0,0,1,1.624.883,1.811,1.811,0,0,1-.288,1.993c-2.787,2.84-5.564,5.691-8.405,8.477a1.657,1.657,0,0,1-2.492-.11c-2.717-2.723-5.411-5.469-8.119-8.2a1.826,1.826,0,0,1-.4-2.186,1.759,1.759,0,0,1,1.842-1.014c1.324.055,2.655-.027,3.979.03.769.033.974-.24.959-.98-.044-2.166-.022-4.332-.013-6.5.007-2.037,1.242-3.424,3.054-3.455a3.088,3.088,0,0,1,3.112,3.374C757.521,1396.117,757.512,1397.178,757.512,1398.24Z" transform="translate(-50.537 -2.355)" fill="#5ace8d"/><path d="M750.007,1446.727q-5.909,0-11.818,0a2.1,2.1,0,0,1-2.257-1.666,2.06,2.06,0,0,1,.988-2.4,3.051,3.051,0,0,1,1.663-.364c7.613-.008,15.227-.022,22.84.005,1.9.007,2.944,1.09,2.69,2.624-.192,1.159-1.056,1.792-2.554,1.8C757.709,1446.738,753.858,1446.729,750.007,1446.727Z" transform="translate(-46.544 -26.059)" fill="#5ace8d"/><path d="M661.837,1404.324q0,8.1-.006,16.2c0,.553.161,1.179-.494,1.536s-1.1-.144-1.56-.425c-3.247-1.981-6.489-3.97-9.705-6a1.43,1.43,0,0,0-1.772.007c-3.215,2.031-6.462,4.012-9.7,6-.473.29-.929.738-1.573.4-.661-.345-.5-.97-.5-1.525-.005-10.712.011-21.424-.023-32.135,0-1.273.46-1.729,1.709-1.724q11.025.045,22.05,0c1.191-.006,1.623.355,1.61,1.6C661.8,1393.612,661.837,1398.968,661.837,1404.324Zm-14.127,9.524a2.382,2.382,0,0,1,2.995.026c2.705,1.76,5.5,3.381,8.241,5.086.709.441,1.05.536,1.048-.52q-.033-14.473,0-28.947c0-.748-.225-.98-.978-.977q-9.83.038-19.659,0c-.712,0-1,.138-1,.935.026,9.957.016,19.915.016,30.141C641.632,1417.6,644.711,1415.786,647.709,1413.848Z" transform="translate(0)" fill="#5ace8d"/><path d="M651.386,1408.9c-.663,0-1.326.018-1.989-.005-.632-.022-1.179-.274-1.191-.977-.013-.779.566-1.043,1.251-1.055,1.149-.02,2.3-.036,3.447,0,.638.022.852-.21.83-.837-.038-1.1.008-2.209-.016-3.313-.015-.692.137-1.326.916-1.344s.969.6.952,1.3c-.025,1.015.059,2.037-.024,3.047-.08.968.305,1.214,1.2,1.153,1.012-.07,2.032-.026,3.048-.011.663.01,1.321.167,1.29.982-.028.721-.642.865-1.26.867-1.1,0-2.212.047-3.314-.012-.789-.043-.994.267-.932,1,.094,1.1.117,2.2.17,3.308.032.671-.091,1.337-.887,1.365s-.967-.6-.958-1.3c.014-.972-.061-1.949.02-2.915s-.207-1.409-1.231-1.26a9.317,9.317,0,0,1-1.324.01Z" transform="translate(-5.487 -6.891)" fill="#5ace8d"/></g><rect width="378" height="256" transform="translate(159 500)" fill="url(#af)"/><rect width="378" height="256" transform="translate(159 1530)" fill="url(#af)"/><rect width="378" height="256" transform="translate(159 960)" fill="url(#af)"/><rect width="378" height="256" transform="translate(159 2062)" fill="url(#af)"/><g transform="translate(413)"><g transform="matrix(1, 0, 0, 1, -413, 0)" filter="url(#aj)"><rect width="378" height="403" rx="16" transform="translate(572 500)" fill="#fff"/></g><g transform="translate(178.771 772.504)"><g transform="translate(0.229 0.496)"><text fill="#23454f" font-size="20" font-family="Poppins-Bold, Poppins" font-weight="700"><tspan x="0" y="21">Name of asset and title category</tspan></text><text transform="translate(0 27)" fill="#23454f" font-size="15" font-family="Poppins-Medium, Poppins" font-weight="500"><tspan x="0" y="16">By </tspan><tspan y="16" fill="#46b175">House of motion studio</tspan><tspan y="16" xml:space="preserve"> in </tspan><tspan y="16" fill="#fa7808">Motion graphics </tspan></text></g></g><g transform="translate(178.771 837.518)"><rect width="64" height="45" transform="translate(0.229 0.482)" fill="#d7deb6"/><g transform="translate(8.859 7.875)"><g transform="translate(0 0)"><text transform="translate(0.37 22.607)" fill="#23454f" font-size="22" font-family="Poppins-SemiBold, Poppins" font-weight="600"><tspan x="0" y="0">N3k</tspan></text></g></g></g><g transform="translate(-200.608 -540.92)"><path d="M757.512,1398.24c0,1.149.039,2.3-.012,3.448-.036.794.215,1.111,1.047,1.077,1.369-.056,2.742,0,4.112-.022a1.49,1.49,0,0,1,1.624.883,1.811,1.811,0,0,1-.288,1.993c-2.787,2.84-5.564,5.691-8.405,8.477a1.657,1.657,0,0,1-2.492-.11c-2.717-2.723-5.411-5.469-8.119-8.2a1.826,1.826,0,0,1-.4-2.186,1.759,1.759,0,0,1,1.842-1.014c1.324.055,2.655-.027,3.979.03.769.033.974-.24.959-.98-.044-2.166-.022-4.332-.013-6.5.007-2.037,1.242-3.424,3.054-3.455a3.088,3.088,0,0,1,3.112,3.374C757.521,1396.117,757.512,1397.178,757.512,1398.24Z" transform="translate(-50.537 -2.355)" fill="#5ace8d"/><path d="M750.007,1446.727q-5.909,0-11.818,0a2.1,2.1,0,0,1-2.257-1.666,2.06,2.06,0,0,1,.988-2.4,3.051,3.051,0,0,1,1.663-.364c7.613-.008,15.227-.022,22.84.005,1.9.007,2.944,1.09,2.69,2.624-.192,1.159-1.056,1.792-2.554,1.8C757.709,1446.738,753.858,1446.729,750.007,1446.727Z" transform="translate(-46.544 -26.059)" fill="#5ace8d"/><path d="M661.837,1404.324q0,8.1-.006,16.2c0,.553.161,1.179-.494,1.536s-1.1-.144-1.56-.425c-3.247-1.981-6.489-3.97-9.705-6a1.43,1.43,0,0,0-1.772.007c-3.215,2.031-6.462,4.012-9.7,6-.473.29-.929.738-1.573.4-.661-.345-.5-.97-.5-1.525-.005-10.712.011-21.424-.023-32.135,0-1.273.46-1.729,1.709-1.724q11.025.045,22.05,0c1.191-.006,1.623.355,1.61,1.6C661.8,1393.612,661.837,1398.968,661.837,1404.324Zm-14.127,9.524a2.382,2.382,0,0,1,2.995.026c2.705,1.76,5.5,3.381,8.241,5.086.709.441,1.05.536,1.048-.52q-.033-14.473,0-28.947c0-.748-.225-.98-.978-.977q-9.83.038-19.659,0c-.712,0-1,.138-1,.935.026,9.957.016,19.915.016,30.141C641.632,1417.6,644.711,1415.786,647.709,1413.848Z" transform="translate(0)" fill="#5ace8d"/><path d="M651.386,1408.9c-.663,0-1.326.018-1.989-.005-.632-.022-1.179-.274-1.191-.977-.013-.779.566-1.043,1.251-1.055,1.149-.02,2.3-.036,3.447,0,.638.022.852-.21.83-.837-.038-1.1.008-2.209-.016-3.313-.015-.692.137-1.326.916-1.344s.969.6.952,1.3c-.025,1.015.059,2.037-.024,3.047-.08.968.305,1.214,1.2,1.153,1.012-.07,2.032-.026,3.048-.011.663.01,1.321.167,1.29.982-.028.721-.642.865-1.26.867-1.1,0-2.212.047-3.314-.012-.789-.043-.994.267-.932,1,.094,1.1.117,2.2.17,3.308.032.671-.091,1.337-.887,1.365s-.967-.6-.958-1.3c.014-.972-.061-1.949.02-2.915s-.207-1.409-1.231-1.26a9.317,9.317,0,0,1-1.324.01Z" transform="translate(-5.487 -6.891)" fill="#5ace8d"/></g></g><rect width="378" height="256" transform="translate(571 500)" fill="url(#al)"/><rect width="378" height="256" transform="translate(571 1530)" fill="url(#al)"/><rect width="378" height="256" transform="translate(571 960)" fill="url(#al)"/><rect width="378" height="256" transform="translate(571 2062)" fill="url(#al)"/><g transform="translate(825)"><g transform="matrix(1, 0, 0, 1, -825, 0)" filter="url(#ap)"><rect width="378" height="403" rx="16" transform="translate(984 500)" fill="#fff"/></g><g transform="translate(178.771 772.504)"><g transform="translate(0.229 0.496)"><text fill="#23454f" font-size="20" font-family="Poppins-Bold, Poppins" font-weight="700"><tspan x="0" y="21">Name of asset and title category</tspan></text><text transform="translate(0 27)" fill="#23454f" font-size="15" font-family="Poppins-Medium, Poppins" font-weight="500"><tspan x="0" y="16">By </tspan><tspan y="16" fill="#46b175">House of motion studio</tspan><tspan y="16" xml:space="preserve"> in </tspan><tspan y="16" fill="#fa7808">Motion graphics </tspan></text></g></g><g transform="translate(178.771 837.518)"><rect width="64" height="45" transform="translate(0.229 0.482)" fill="#d7deb6"/><g transform="translate(8.859 7.875)"><g transform="translate(0 0)"><text transform="translate(0.37 22.607)" fill="#23454f" font-size="22" font-family="Poppins-SemiBold, Poppins" font-weight="600"><tspan x="0" y="0">N3k</tspan></text></g></g></g><g transform="translate(-200.608 -540.92)"><path d="M757.512,1398.24c0,1.149.039,2.3-.012,3.448-.036.794.215,1.111,1.047,1.077,1.369-.056,2.742,0,4.112-.022a1.49,1.49,0,0,1,1.624.883,1.811,1.811,0,0,1-.288,1.993c-2.787,2.84-5.564,5.691-8.405,8.477a1.657,1.657,0,0,1-2.492-.11c-2.717-2.723-5.411-5.469-8.119-8.2a1.826,1.826,0,0,1-.4-2.186,1.759,1.759,0,0,1,1.842-1.014c1.324.055,2.655-.027,3.979.03.769.033.974-.24.959-.98-.044-2.166-.022-4.332-.013-6.5.007-2.037,1.242-3.424,3.054-3.455a3.088,3.088,0,0,1,3.112,3.374C757.521,1396.117,757.512,1397.178,757.512,1398.24Z" transform="translate(-50.537 -2.355)" fill="#5ace8d"/><path d="M750.007,1446.727q-5.909,0-11.818,0a2.1,2.1,0,0,1-2.257-1.666,2.06,2.06,0,0,1,.988-2.4,3.051,3.051,0,0,1,1.663-.364c7.613-.008,15.227-.022,22.84.005,1.9.007,2.944,1.09,2.69,2.624-.192,1.159-1.056,1.792-2.554,1.8C757.709,1446.738,753.858,1446.729,750.007,1446.727Z" transform="translate(-46.544 -26.059)" fill="#5ace8d"/><path d="M661.837,1404.324q0,8.1-.006,16.2c0,.553.161,1.179-.494,1.536s-1.1-.144-1.56-.425c-3.247-1.981-6.489-3.97-9.705-6a1.43,1.43,0,0,0-1.772.007c-3.215,2.031-6.462,4.012-9.7,6-.473.29-.929.738-1.573.4-.661-.345-.5-.97-.5-1.525-.005-10.712.011-21.424-.023-32.135,0-1.273.46-1.729,1.709-1.724q11.025.045,22.05,0c1.191-.006,1.623.355,1.61,1.6C661.8,1393.612,661.837,1398.968,661.837,1404.324Zm-14.127,9.524a2.382,2.382,0,0,1,2.995.026c2.705,1.76,5.5,3.381,8.241,5.086.709.441,1.05.536,1.048-.52q-.033-14.473,0-28.947c0-.748-.225-.98-.978-.977q-9.83.038-19.659,0c-.712,0-1,.138-1,.935.026,9.957.016,19.915.016,30.141C641.632,1417.6,644.711,1415.786,647.709,1413.848Z" transform="translate(0)" fill="#5ace8d"/><path d="M651.386,1408.9c-.663,0-1.326.018-1.989-.005-.632-.022-1.179-.274-1.191-.977-.013-.779.566-1.043,1.251-1.055,1.149-.02,2.3-.036,3.447,0,.638.022.852-.21.83-.837-.038-1.1.008-2.209-.016-3.313-.015-.692.137-1.326.916-1.344s.969.6.952,1.3c-.025,1.015.059,2.037-.024,3.047-.08.968.305,1.214,1.2,1.153,1.012-.07,2.032-.026,3.048-.011.663.01,1.321.167,1.29.982-.028.721-.642.865-1.26.867-1.1,0-2.212.047-3.314-.012-.789-.043-.994.267-.932,1,.094,1.1.117,2.2.17,3.308.032.671-.091,1.337-.887,1.365s-.967-.6-.958-1.3c.014-.972-.061-1.949.02-2.915s-.207-1.409-1.231-1.26a9.317,9.317,0,0,1-1.324.01Z" transform="translate(-5.487 -6.891)" fill="#5ace8d"/></g></g><rect width="378" height="256" transform="translate(984 500)" fill="url(#ar)"/><rect width="378" height="256" transform="translate(984 1530)" fill="url(#ar)"/><rect width="378" height="256" transform="translate(984 960)" fill="url(#ar)"/><rect width="378" height="256" transform="translate(984 2062)" fill="url(#ar)"/><g transform="translate(1237)"><g transform="matrix(1, 0, 0, 1, -1237, 0)" filter="url(#av)"><rect width="378" height="403" rx="16" transform="translate(1396 500)" fill="#fff"/></g><g transform="translate(178.771 772.504)"><g transform="translate(0.229 0.496)"><text fill="#23454f" font-size="20" font-family="Poppins-Bold, Poppins" font-weight="700"><tspan x="0" y="21">Name of asset and title category</tspan></text><text transform="translate(0 27)" fill="#23454f" font-size="15" font-family="Poppins-Medium, Poppins" font-weight="500"><tspan x="0" y="16">By </tspan><tspan y="16" fill="#46b175">House of motion studio</tspan><tspan y="16" xml:space="preserve"> in </tspan><tspan y="16" fill="#fa7808">Motion graphics </tspan></text></g></g><g transform="translate(178.771 837.518)"><rect width="64" height="45" transform="translate(0.229 0.482)" fill="#d7deb6"/><g transform="translate(8.859 7.875)"><g transform="translate(0 0)"><text transform="translate(0.37 22.607)" fill="#23454f" font-size="22" font-family="Poppins-SemiBold, Poppins" font-weight="600"><tspan x="0" y="0">N3k</tspan></text></g></g></g><g transform="translate(-200.608 -540.92)"><path d="M757.512,1398.24c0,1.149.039,2.3-.012,3.448-.036.794.215,1.111,1.047,1.077,1.369-.056,2.742,0,4.112-.022a1.49,1.49,0,0,1,1.624.883,1.811,1.811,0,0,1-.288,1.993c-2.787,2.84-5.564,5.691-8.405,8.477a1.657,1.657,0,0,1-2.492-.11c-2.717-2.723-5.411-5.469-8.119-8.2a1.826,1.826,0,0,1-.4-2.186,1.759,1.759,0,0,1,1.842-1.014c1.324.055,2.655-.027,3.979.03.769.033.974-.24.959-.98-.044-2.166-.022-4.332-.013-6.5.007-2.037,1.242-3.424,3.054-3.455a3.088,3.088,0,0,1,3.112,3.374C757.521,1396.117,757.512,1397.178,757.512,1398.24Z" transform="translate(-50.537 -2.355)" fill="#5ace8d"/><path d="M750.007,1446.727q-5.909,0-11.818,0a2.1,2.1,0,0,1-2.257-1.666,2.06,2.06,0,0,1,.988-2.4,3.051,3.051,0,0,1,1.663-.364c7.613-.008,15.227-.022,22.84.005,1.9.007,2.944,1.09,2.69,2.624-.192,1.159-1.056,1.792-2.554,1.8C757.709,1446.738,753.858,1446.729,750.007,1446.727Z" transform="translate(-46.544 -26.059)" fill="#5ace8d"/><path d="M661.837,1404.324q0,8.1-.006,16.2c0,.553.161,1.179-.494,1.536s-1.1-.144-1.56-.425c-3.247-1.981-6.489-3.97-9.705-6a1.43,1.43,0,0,0-1.772.007c-3.215,2.031-6.462,4.012-9.7,6-.473.29-.929.738-1.573.4-.661-.345-.5-.97-.5-1.525-.005-10.712.011-21.424-.023-32.135,0-1.273.46-1.729,1.709-1.724q11.025.045,22.05,0c1.191-.006,1.623.355,1.61,1.6C661.8,1393.612,661.837,1398.968,661.837,1404.324Zm-14.127,9.524a2.382,2.382,0,0,1,2.995.026c2.705,1.76,5.5,3.381,8.241,5.086.709.441,1.05.536,1.048-.52q-.033-14.473,0-28.947c0-.748-.225-.98-.978-.977q-9.83.038-19.659,0c-.712,0-1,.138-1,.935.026,9.957.016,19.915.016,30.141C641.632,1417.6,644.711,1415.786,647.709,1413.848Z" transform="translate(0)" fill="#5ace8d"/><path d="M651.386,1408.9c-.663,0-1.326.018-1.989-.005-.632-.022-1.179-.274-1.191-.977-.013-.779.566-1.043,1.251-1.055,1.149-.02,2.3-.036,3.447,0,.638.022.852-.21.83-.837-.038-1.1.008-2.209-.016-3.313-.015-.692.137-1.326.916-1.344s.969.6.952,1.3c-.025,1.015.059,2.037-.024,3.047-.08.968.305,1.214,1.2,1.153,1.012-.07,2.032-.026,3.048-.011.663.01,1.321.167,1.29.982-.028.721-.642.865-1.26.867-1.1,0-2.212.047-3.314-.012-.789-.043-.994.267-.932,1,.094,1.1.117,2.2.17,3.308.032.671-.091,1.337-.887,1.365s-.967-.6-.958-1.3c.014-.972-.061-1.949.02-2.915s-.207-1.409-1.231-1.26a9.317,9.317,0,0,1-1.324.01Z" transform="translate(-5.487 -6.891)" fill="#5ace8d"/></g></g><rect width="378" height="256" transform="translate(1396 500)" fill="url(#ax)"/><rect width="378" height="256" transform="translate(1396 1530)" fill="url(#ax)"/><rect width="378" height="256" transform="translate(1396 960)" fill="url(#ax)"/><rect width="378" height="256" transform="translate(1396 2062)" fill="url(#ax)"/><path d="M-448.757-72.262l12.65,11.745-12.65,11.852" transform="translate(2206.106 1803.463)" fill="none" stroke="#46b175" stroke-width="5"/><g transform="translate(-308.25 -430.999)"><g transform="translate(425 557)" fill="#f2f2f2" stroke="#707070" stroke-width="1"><rect width="1344.5" height="78" rx="31" stroke="none"/><rect x="0.5" y="0.5" width="1343.5" height="77" rx="30.5" fill="none"/></g><path d="M-567.009,1658.683c3.375-3.384,6.419-6.458,9.5-9.5a1.142,1.142,0,0,0,.288-1.62,10.055,10.055,0,0,1,.713-11.063,10.125,10.125,0,0,1,10.26-4.271,10.584,10.584,0,0,1,8.783,10.4,10.593,10.593,0,0,1-8.759,10.311,10.162,10.162,0,0,1-6.851-1.2.885.885,0,0,0-1.294.184c-2.9,2.945-5.852,5.84-8.741,8.8-.6.618-.951.593-1.53,0C-565.352,1659.994-566.184,1659.384-567.009,1658.683Zm12.714-15.812a6.28,6.28,0,0,0,6.59,6.064,6.357,6.357,0,0,0,6.025-6.841,6.315,6.315,0,0,0-6.559-5.8A6.24,6.24,0,0,0-554.3,1642.871Z" transform="translate(1216.232 -1048.641)" fill="#5ace8d"/><text transform="translate(703.5 605)" fill="#9a9a9a" font-size="20" font-family="Poppins-Light, Poppins" font-weight="300"><tspan x="0" y="0">Search photos, vectors, brushes, and many more</tspan></text><path d="M376,78H31A30.974,30.974,0,0,1,0,47V31A30.974,30.974,0,0,1,31,0H376V78Z" transform="translate(251 557)" fill="#5ace8d"/><g transform="translate(465 581)"><text transform="translate(0 25)" fill="#fff" font-size="24" font-family="Poppins-SemiBold, Poppins" font-weight="600"><tspan x="0" y="0">All items</tspan></text><path d="M13087.789,897.3l8.134,8.4,8.55-8.4" transform="translate(-12969.463 -884.499)" fill="none" stroke="#fff" stroke-width="2"/></g></g><g transform="translate(853.72 -2280.402)"><path d="M4.76,0H117.227c2.629,0,4.76,2.807,4.76,6.269V41.534c0,3.462-2.131,6.269-4.76,6.269H4.76C2.131,47.8,0,45,0,41.534V6.269C0,2.807,2.131,0,4.76,0Z" transform="translate(798.293 2329)" fill="#5ace8d"/><text transform="translate(836.952 2358.62)" fill="#fff" font-size="20" font-family="Poppins-Bold, Poppins" font-weight="700"><tspan x="0" y="0">Join</tspan></text></g><g transform="translate(716.045 -2284)"><text transform="translate(847.624 2367)" fill="#23454f" font-size="22" font-family="Poppins-Medium, Poppins" font-weight="500"><tspan x="0" y="0">Log in</tspan></text></g><g transform="translate(616.701 -2284)"><text transform="translate(847.624 2367)" fill="#23454f" font-size="22" font-family="Poppins-Medium, Poppins" font-weight="500"><tspan x="0" y="0">Pricing</tspan></text></g><g transform="translate(517.357 -2284)"><text transform="translate(798.624 2367)" fill="#23454f" font-size="22" font-family="Poppins-Medium, Poppins" font-weight="500"><tspan x="0" y="0">Contribute</tspan></text></g><g transform="translate(1050 126)" fill="#fff" stroke="#707070" stroke-width="1"><rect width="905" height="78" stroke="none"/><rect x="0.5" y="0.5" width="904" height="77" fill="none"/></g><g transform="translate(861.376 -2194.5)"><text transform="translate(856.624 2368)" fill="#46b175" font-size="22" font-family="Poppins-Medium, Poppins" font-weight="500"><tspan x="0" y="0">More</tspan></text></g><g transform="translate(-179.643 -2189)"><text transform="translate(1279.643 2362)" fill="#23454f" font-size="19" font-family="Poppins-Medium, Poppins" font-weight="500"><tspan x="0" y="0" xml:space="preserve">Graphics    Fonts    Photos    Illustrations    Icons   Mockups    3D</tspan></text></g><g transform="translate(-15745.58 -377.299)"><g transform="translate(16706.598 687.299)"><g transform="translate(0 0)"><text transform="translate(26 12)" fill="#a5b1aa" font-size="11" font-family="Poppins-Medium, Poppins" font-weight="500"><tspan x="-16.604" y="0">Brand</tspan><tspan x="-26.372" y="13">Mock ups</tspan></text></g></g><g transform="translate(16818.732 687.299)"><g transform="translate(0 0)"><text transform="translate(18 12)" fill="#a5b1aa" font-size="11" font-family="Poppins-Medium, Poppins" font-weight="500"><tspan x="-11.957" y="0">Font</tspan><tspan x="-18.381" y="13">Family</tspan></text></g></g><g transform="translate(16910.639 687.018)"><g transform="translate(0 0)"><text transform="translate(31 12)" fill="#a5b1aa" font-size="11" font-family="Poppins-Medium, Poppins" font-weight="500"><tspan x="-30.91" y="0">Indigenous</tspan><tspan x="-20.955" y="13">Images</tspan></text></g></g><g transform="translate(17031.404 687.018)"><g transform="translate(0 0)"><text transform="translate(22 12)" fill="#a5b1aa" font-size="11" font-family="Poppins-Medium, Poppins" font-weight="500"><tspan x="-22.028" y="0">Custom</tspan><tspan x="-21.983" y="13">Brushes</tspan></text></g></g><path d="M571.435,1247.69c.029,10.9-8.719,19.924-19.488,19.849-11.417-.08-19.893-8.337-19.941-19.83A19.331,19.331,0,0,1,551.552,1228,19.609,19.609,0,0,1,571.435,1247.69Zm-20.161,7.884c1.778-.293,3.912-.008,4.7-.908,1.786-2.029,3.876-4.591,4.008-7.036.12-2.172-1.776-5.042-3.635-6.555-1.551-1.26-4.325-1.109-6.583-1.373-1.767-.207-7.388,6.042-6.761,8.042a19.125,19.125,0,0,0,4.08,6.769C547.913,1255.436,549.944,1255.277,551.273,1255.574Zm-9.61-9.482c3.153-5.478,6.008-10.438,9.117-15.834-5.771.6-10.063,2.608-13.042,6.979a1.842,1.842,0,0,0-.21,1.553C538.728,1241.063,540.047,1243.271,541.663,1246.093Zm20.094,3.644-9.229,15.537c5.667-.56,9.746-2.732,12.872-6.612a2.487,2.487,0,0,0,.356-2.176C564.661,1254.352,563.33,1252.338,561.758,1249.736Zm-16.914,5.549-9.136-15.245a5.1,5.1,0,0,0-.543,1.189,70.789,70.789,0,0,0-.889,9.931c.046,1.4,1.428,3.6,2.631,3.943C539.127,1255.742,541.663,1255.285,544.844,1255.285Zm20.729-17.493c-1.508-3.5-7.556-7.461-11.094-7.35a1.77,1.77,0,0,0-1.281.532c-1.367,2.132-2.642,4.325-4.138,6.818Zm-6.866,2.4c3.082,5.124,5.855,9.736,8.908,14.814a16.943,16.943,0,0,0,.394-13.505c-.208-.528-.853-1.224-1.325-1.25C564.227,1240.128,561.762,1240.2,558.707,1240.2Zm-4.354,17.57H537.785c1.509,3.6,7.893,7.639,11.362,7.325a1.513,1.513,0,0,0,1.036-.53C551.552,1262.411,552.858,1260.22,554.353,1257.766Z" transform="translate(16388.74 -601.364)" fill="#46b175"/><path d="M471.037,1240.69c2.1-2.346,4.124-4.765,6.321-7.015,2.979-3.051,5.287-2.914,8.411-.034,5.541,5.115,5.539,7.371,0,12.384-1.662,1.505-3.381,2.95-5.073,4.421l.5,1.008c2.532,0,5.065-.008,7.6,0,4.509.015,6.017,1.518,6.052,6.019.065,7.855-.656,8.585-8.53,8.589q-12.44.007-24.883,0c-4.539-.008-6.155-1.656-6.163-6.258q-.025-13.575-.015-27.151c0-4.434,1.8-6.2,6.283-6.209.922,0,1.843-.006,2.765.006,3.8.054,5.658,1.9,5.717,5.752.04,2.587.008,5.174.008,7.763Zm-7.568,9.83.107.927a22.342,22.342,0,0,1,3.576.027c7.048,1.157,12.354-1.258,16.971-6.788,4.3-5.151,4.662-5.189-.386-9.843-1.535-1.413-2.937-1.453-4.384-.027Q471.4,1242.655,463.469,1250.52Zm-5.918,1.088.738.486c1.321-1.119,2.568-2.344,3.979-3.335,4.707-3.312,6.029-7.753,5.623-13.4-.478-6.671-.312-6.862-7-6.639-2.291.075-3.361,1.122-3.346,3.4.025,4.1,0,8.2,0,12.3Zm15.126,2.111c-4.375,0-8.541-.08-12.7.036-1.9.052-2.61,1.53-2.377,3.191.319,2.289-1.484,5.914,1.847,6.513,4.251.765,8.746.185,13.228.185Zm10.067,9.914c0-3,.05-5.751-.048-8.5-.017-.484-.623-1.321-1.01-1.354a39.864,39.864,0,0,0-5.507-.044,1.539,1.539,0,0,0-1.082,1.029c-.09,2.967-.05,5.935-.05,9.082,2.136,0,3.88.015,5.625-.008C481.241,1263.832,481.811,1263.729,482.744,1263.633Zm2.134-4.857h.015a22.746,22.746,0,0,0,.052,3.488,2.132,2.132,0,0,0,1.136,1.512c4.723,1.136,6.474-.262,6.528-5.067.006-.5.034-1,.017-1.5-.094-2.8-.809-3.549-3.616-3.568-4.763-.03-4.071-.369-4.132,4.132C484.874,1258.109,484.878,1258.442,484.878,1258.776Z" transform="translate(16263.543 -599.804)" fill="#46b175"/><path d="M508.034,1234.8c-2.425,0-4.927-.107-7.409.063-.795.053-1.5.952-2.321,1.252a11.052,11.052,0,0,1-3.8.906c-.344,0-.927-1.745-.948-2.7-.159-6.847-.124-6.847,6.593-6.847q14.824,0,29.648,0c3.308,0,3.317.021,3.314,3.426,0,1.256,0,2.512-.023,3.767-.038,2.344-2.562,3.935-3.956,2.262-2.524-3.025-5.621-1.868-8.556-2.132a17.7,17.7,0,0,0-2.486.159v9.361c0,4.69.057,9.382-.027,14.071-.038,2.176.65,3.648,2.962,3.832,2.207.176,2.136,1.637,2.073,3.224-.067,1.782-1.342,1.642-2.511,1.644q-7.286.016-14.572-.008c-1.151,0-2.465.2-2.505-1.614-.033-1.545-.235-3.08,2.036-3.245a2.726,2.726,0,0,0,2.864-2.874q.019-11.808-.031-23.616A3.888,3.888,0,0,0,508.034,1234.8Zm22.654-4.9h-34.7v5.34a7.372,7.372,0,0,1,6.849-2.786,32.7,32.7,0,0,0,5.025,0c2.059-.17,2.8.57,2.767,2.683-.1,7.289-.09,14.583-.013,21.872.031,3.107.155,6.134-3.382,7.621h11.4c-.9-1.581-2.591-3.191-2.648-4.855-.283-8.455-.178-16.924-.086-25.388.006-.629,1-1.815,1.478-1.786,4.442.262,9.241-1.591,13.312,2.427Z" transform="translate(16326.256 -600.835)" fill="#46b175"/><path d="M626.36,1258.227c2.01.924,3.184,5.832,1.874,7.138a2.5,2.5,0,0,1-1.6.5c-5.109.078-10.22.084-15.327.166-1.759.027-2.289-.784-2.3-2.464-.036-4.233-.1-4.233,2.245-5.27-.625-3.35-3-5.182-5.807-6.6-3.09-1.562-3.1-1.522-1.143-4.459q6.343-9.512,12.681-19.023c1.591-2.375,2.111-2.38,3.7-.006,4.381,6.541,8.685,13.134,13.128,19.63,1.262,1.845,1.3,2.8-1.027,3.658A9.562,9.562,0,0,0,626.36,1258.227Zm-5.707-26.006-.685.251c0,2.25-.126,4.507.057,6.742a5.687,5.687,0,0,0,1.237,2.962c1.478,1.79,1.639,3.648.149,5.157a3.456,3.456,0,0,1-5.136.029c-1.465-1.505-1.392-3.493.161-5.145.436-.465,1.145-.973,1.166-1.484.115-2.771.054-5.553.054-8.331l-.66-.151-11.277,16.935c3.889,2.08,7.006,4.5,7.937,8.839.065.3.767.656,1.18.664,3,.057,6,.03,9.128.03.7-4.826,3.975-7.346,7.975-9.558C628.1,1243.4,624.379,1237.812,620.653,1232.221Zm-1.851,31.509c2,0,4.012.1,6-.063.57-.046,1.08-.851,1.616-1.306-.537-.449-1.061-1.269-1.61-1.285q-5.878-.17-11.761-.011c-.583.015-1.149.75-1.723,1.151.572.508,1.109,1.386,1.727,1.449A56.559,56.559,0,0,0,618.8,1263.731Z" transform="translate(16541.301 -599.795)" fill="#46b175"/><path d="M603.292,1227.776c1.551,1.264,3.287,2.113,4.119,3.5,1.088,1.818.625,3.9-.987,5.516q-6.213,6.22-12.432,12.44c-1.48,1.482-2.927,3-4.446,4.438a9.786,9.786,0,0,0-3.3,5.369,7.293,7.293,0,0,1-3.583,4.516,96.555,96.555,0,0,1-11.989,4.119c-.541.165-1.306-.4-1.969-.623a5.933,5.933,0,0,1,.738-1.738,8.791,8.791,0,0,0,2.107-6.493c-.168-5.239,2.191-8.025,7.317-9.138a5.066,5.066,0,0,0,2.266-1.386c5.956-5.889,11.834-11.86,17.824-17.713C600.028,1229.541,601.506,1228.914,603.292,1227.776Zm-11.665,20.448c4.556-4.53,9.065-8.887,13.36-13.445a3.258,3.258,0,0,0-.212-3.212c-.623-.6-2.669-.771-3.243-.228-4.551,4.3-8.9,8.809-13.252,13.2Zm-18.369,17.17a77.5,77.5,0,0,0,8.337-3.778,6.562,6.562,0,0,0,2.608-3.711,4.739,4.739,0,0,0-4.266-5.872,5.806,5.806,0,0,0-6.237,5.478C573.5,1259.879,573.428,1262.256,573.258,1265.394Zm13.17-19.2-3.465,3.635,3.182,3.411,3.78-3.266Z" transform="translate(16468.465 -602.042)" fill="#46b175"/><g transform="translate(17249.359 627.537)"><path d="M657.539,1229.232c.486.208,1.044.4,1.556.669,5.536,2.954,11.078,5.9,16.591,8.9,2.132,1.159,2.149,1.883,0,3.017-4.434,2.339-9.331,4.033-13.279,7-3.8,2.855-6.727,1.8-10.021-.048-3.7-2.082-7.335-4.279-11.025-6.382a12.637,12.637,0,0,0-2.312-.916c-1.52-.507-1.8-1.51-.447-2.26,6-3.323,12.088-6.493,18.149-9.713A5.242,5.242,0,0,1,657.539,1229.232Zm16.191,11.044c-4.585-2.461-8.7-4.671-12.811-6.872a13.91,13.91,0,0,0-2.681-1.34,3.176,3.176,0,0,0-2.1.258c-4.748,2.417-9.461,4.908-14.174,7.4-.18.094-.252.4-.461.748a10.6,10.6,0,0,0,1.537,1.218c3.664,1.952,7.385,3.8,11.017,5.809,2.185,1.212,4.281,1.681,6.537.3,2.13-1.306,4.252-2.627,6.419-3.868C669.078,1242.737,671.2,1241.643,673.73,1240.276Z" transform="translate(-637.732 -1229.232)" fill="#46b175"/><path d="M642.172,1243.287c4.428,2.464,9.212,5.166,14.05,7.766a2.609,2.609,0,0,0,2.115-.019c4.866-2.566,9.681-5.23,14.042-7.61l1.006-2.864,3.616,1.945c-.394.56-.665,1.342-1.206,1.643-3.8,2.12-7.65,4.141-11.486,6.193-.073.038-.172.044-.231.1-6.457,5.927-11.639.8-17.077-1.983-2.658-1.363-5.325-2.715-7.9-4.22-.6-.35-.83-1.312-1.231-1.991l3.757-1.616Z" transform="translate(-637.581 -1216.812)" fill="#46b175"/><path d="M642.006,1244.859c.824-2.206,2.21-1.237,3.161-.807,2.136.962,4.124,2.25,6.252,3.229a3.313,3.313,0,0,0,2.516.121c4.847-2.432,9.623-5.006,14.379-7.516l-.256-3.033a32.17,32.17,0,0,1,3.994,1.795,2.356,2.356,0,0,1-.43,1.9q-8.8,4.873-17.727,9.5a3.037,3.037,0,0,1-2.373-.145C648.379,1248.33,645.306,1246.623,642.006,1244.859Z" transform="translate(-633.046 -1220.877)" fill="#46b175"/><path d="M642.13,1239.57l2.7,1.729c-2.038,1.218-4.593.292-7.015-2.578l4.038-1.635Z" transform="translate(-637.638 -1220.622)" fill="#46b175"/></g><text transform="translate(17159.805 699.018)" fill="#a5b1aa" font-size="11" font-family="Poppins-Medium, Poppins" font-weight="500"><tspan x="-22.143" y="0">Graphic</tspan><tspan x="-28.441" y="13">templates</tspan></text><text transform="translate(17267.627 699.018)" fill="#a5b1aa" font-size="11" font-family="Poppins-Medium, Poppins" font-weight="500"><tspan x="-9.938" y="0">Psd</tspan><tspan x="-20.647" y="13">Actions</tspan></text></g><text transform="translate(1639 289)" fill="#5ace8d" font-size="58" font-family="Poppins-Bold, Poppins" font-weight="700"><tspan x="0" y="0">561K </tspan><tspan font-size="23" font-family="Poppins-Medium, Poppins" font-weight="500"><tspan x="0" y="27">Creative </tspan><tspan x="0" y="54">stock</tspan></tspan></text><path d="M16168.5,448V565" transform="translate(-14573.331 -207)" fill="none" stroke="#fff" stroke-width="1"/><path d="M15931.485,7358.317V7474.81" transform="translate(-14658 -4642)" fill="none" stroke="#23454f" stroke-width="1"/><g transform="translate(1368 -400)"><g transform="translate(188 845)"><text transform="translate(-203 -8)" fill="#23454f" font-size="20" font-family="Poppins-Medium, Poppins" font-weight="500"><tspan x="293.48" y="21">See more</tspan></text></g></g><path d="M-448.757-72.262l12.65,11.745-12.65,11.852" transform="translate(2206.105 512.463)" fill="none" stroke="#46b175" stroke-width="5"/><g transform="translate(4 10)"><path d="M-448.757-72.262l12.65,11.745-12.65,11.852" transform="translate(2206.105 1527.664)" fill="none" stroke="#46b175" stroke-width="5"/><text transform="translate(1353 1451)" fill="#23454f" font-size="20" font-family="Poppins-Medium, Poppins" font-weight="500"><tspan x="293.48" y="21">See more</tspan></text></g><g transform="translate(4 556)"><path d="M-448.757-72.262l12.65,11.745-12.65,11.852" transform="translate(2206.105 1527.664)" fill="none" stroke="#46b175" stroke-width="5"/><text transform="translate(1353 1451)" fill="#23454f" font-size="20" font-family="Poppins-Medium, Poppins" font-weight="500"><tspan x="293.48" y="21">See more</tspan></text></g></g></svg>