<?xml version="1.0" encoding="utf-8"?>
<!-- Generator: Adobe Illustrator 24.0.0, SVG Export Plug-In . SVG Version: 6.00 Build 0)  -->
<svg version="1.1" id="Layer_1" xmlns="http://www.w3.org/2000/svg" xmlns:xlink="http://www.w3.org/1999/xlink" x="0px" y="0px"
	 viewBox="0 0 850.4 380" style="enable-background:new 0 0 850.4 380;" xml:space="preserve">
<style type="text/css">
	.st0{fill:#D6A22B;}
	.st1{fill:#FCFDFB;}
	.st2{fill:#D6A32B;}
	.st3{fill:#FDFDFD;}
	.st4{fill:#FBFBF9;}
	.st5{fill:#FCFCFB;}
	.st6{fill:#D7A32B;}
	.st7{fill:#D7A32C;}
	.st8{fill:#D6A22C;}
	.st9{fill:#D6A32C;}
	.st10{fill:#F4F3EE;}
	.st11{fill:#F8F0DC;}
	.st12{fill:#D4A12B;}
	.st13{fill:#D5A12B;}
	.st14{fill:#F9F9F6;}
	.st15{fill:#F8F8F3;}
	.st16{fill:#D39D1B;}
	.st17{fill:#D5A22B;}
	.st18{fill:#D4A12D;}
	.st19{fill:#D5A432;}
	.st20{fill:#FAFAF8;}
	.st21{fill:#D9A839;}
	.st22{fill:#DAAB41;}
	.st23{fill:#D9AA3B;}
	.st24{fill:#D8A738;}
	.st25{fill:#D2A232;}
	.st26{fill:#F4F4F0;}
	.st27{fill:#D29D19;}
	.st28{fill:#D9A737;}
	.st29{fill:#D8A737;}
	.st30{fill:#D1A02D;}
	.st31{fill:#D19F2D;}
	.st32{fill:#D9A837;}
	.st33{fill:#DAA93A;}
	.st34{fill:#D2A12F;}
	.st35{fill:#D2A231;}
	.st36{fill:#D4A335;}
	.st37{fill:#D4A233;}
	.st38{fill:#D3A337;}
	.st39{fill:#D9A93C;}
	.st40{fill:#D19E29;}
	.st41{fill:#D4A12C;}
	.st42{fill:#D2A02C;}
	.st43{fill:#D9A739;}
	.st44{fill:#F5F5F5;}
	.st45{fill:#F3F1E8;}
	.st46{fill:#FAFAF7;}
	.st47{fill:#FEFEFE;}
	.st48{fill:#F9F8F6;}
	.st49{fill:#D5A22C;}
	.st50{fill:#D3A12E;}
	.st51{fill:#D8A837;}
	.st52{fill:#D8A838;}
	.st53{fill:#CF9D1B;}
	.st54{fill:#D9A736;}
	.st55{fill:#D9AA3C;}
	.st56{fill:#D9A83A;}
	.st57{fill:#F8F7F2;}
	.st58{fill:#D9AB40;}
	.st59{fill:#D9A738;}
	.st60{fill:#D19E2C;}
	.st61{fill:#D8A635;}
	.st62{fill:#D49D1A;}
	.st63{fill:#CF9E2A;}
	.st64{fill:#F8F8F4;}
	.st65{fill:#D09F2D;}
	.st66{fill:#D19E2B;}
	.st67{fill:#D9A83C;}
	.st68{fill:#D5A12C;}
	.st69{fill:#D9A838;}
	.st70{fill:#F2F0E8;}
	.st71{fill-rule:evenodd;clip-rule:evenodd;fill:#A3C516;}
	.st72{fill-rule:evenodd;clip-rule:evenodd;fill:#23454F;}
	.st73{fill-rule:evenodd;clip-rule:evenodd;fill:#45B175;}
	.st74{enable-background:new    ;}
	.st75{fill:#5ACE8D;}
</style>
<path class="st71" d="M30.4,199l3.6,3.6l21.6-15c4.2-2.9,6.8-6.7,8-11.7L88.7,73c0.2-0.6-0.1-1.3-0.6-1.7c-0.5-0.4-1.2-0.5-1.8-0.2
	l-11.2,5.4L29.2,193.6C28.5,195.5,28.9,197.5,30.4,199L30.4,199z"/>
<path class="st72" d="M187,168.9L161.4,64L140,53.6c-5.7-2.7-11.7-2.7-17.3,0L101.2,64L75.6,168.9c-0.8,3.1-0.1,6,1.9,8.5
	c2,2.5,4.7,3.8,7.9,3.8h92c3.2,0,5.9-1.3,7.9-3.8C187.1,174.9,187.7,171.9,187,168.9L187,168.9z"/>
<path class="st71" d="M187.5,76.5l-11.2-5.4c-0.6-0.3-1.3-0.2-1.8,0.2c-0.5,0.4-0.7,1-0.6,1.7L199,175.8c1.2,4.9,3.8,8.8,8,11.7
	l21.6,15l3.6-3.6c1.4-1.4,1.9-3.5,1.1-5.4L187.5,76.5L187.5,76.5z"/>
<path class="st73" d="M194.8,191.2h-127l-25,17.4c-0.4,0.3-0.7,0.7-0.7,1.2c0,0.5,0.1,1,0.5,1.3l76.4,76.4c0.5,0.5,0.6,1.1,0.4,1.8
	s-0.8,1-1.5,1.1c-11.4,0.6-22.7,1.8-33.7,3.8c-15.7,2.8-30.9,6.9-45.5,12.3c-3.7,1.3-5.5,5.4-4.2,9c1.3,3.7,5.4,5.5,9,4.2
	c13.8-5.1,28.2-9,43.1-11.6c14.5-2.6,29.4-3.9,44.7-3.9c15.3,0,30.2,1.3,44.7,3.9c14.8,2.6,29.2,6.6,43.1,11.6
	c3.7,1.3,7.7-0.5,9-4.2c1.3-3.7-0.5-7.7-4.2-9c-14.6-5.4-29.8-9.5-45.5-12.3c-11-2-22.2-3.2-33.7-3.8c-0.7,0-1.2-0.4-1.5-1.1
	c-0.2-0.6-0.1-1.3,0.4-1.8l76.4-76.4c0.4-0.4,0.5-0.8,0.5-1.3c0-0.5-0.3-0.9-0.7-1.2L194.8,191.2L194.8,191.2z"/>
<path class="st72" d="M541.8,109.1v115H590c0.1,0,0.1,0,0.2,0c31.8,0,57.5-25.8,57.4-57.6c0-31.7-25.8-57.4-57.5-57.4
	c0,0-0.1,0-0.1,0L541.8,109.1L541.8,109.1z M316.8,109.1h-32v115h31v-60l39.2,60h31.9v-115h-31V169L316.8,109.1L316.8,109.1z
	 M490.6,153.6h-24.9v31H487c-5.3,6.7-13.5,10.9-22.6,11c-16,0-28.9-12.9-28.9-28.9c0-16,12.9-29,28.9-29c8.8,0,17,3.9,22.5,10.6
	l22-22c-11.4-12.5-27.4-19.7-44.5-19.7c-33.1,0-59.9,26.9-59.8,60c0,33.1,26.9,59.9,60,59.8c25.6,0,48.3-16.3,56.6-40.5
	c2.2-6.3,3.2-12.9,3.2-19.6c0-4.3-0.5-8.7-1.4-12.9L490.6,153.6L490.6,153.6z M572.8,193.2v-53.1H590c14.7,0,26.5,11.8,26.5,26.5
	c0,14.7-11.8,26.6-26.6,26.6L572.8,193.2L572.8,193.2z"/>
<g class="st74">
	<path class="st75" d="M357.5,264.8c3.4,3.5,5.1,8.3,5.1,14.5v27h-14.1v-25.1c0-3-0.8-5.3-2.4-6.9c-1.6-1.6-3.7-2.4-6.5-2.4
		c-2.8,0-4.9,0.8-6.5,2.4c-1.6,1.6-2.4,3.9-2.4,6.9v25.1h-14.1v-25.1c0-3-0.8-5.3-2.4-6.9c-1.6-1.6-3.7-2.4-6.5-2.4
		s-4.9,0.8-6.5,2.4c-1.6,1.6-2.4,3.9-2.4,6.9v25.1h-14.2v-46.2H299v5.8c1.4-1.9,3.3-3.5,5.6-4.6c2.3-1.1,4.9-1.7,7.9-1.7
		c3.5,0,6.6,0.7,9.3,2.2s4.9,3.6,6.4,6.4c1.6-2.5,3.8-4.6,6.5-6.2s5.8-2.4,9-2.4C349.5,259.6,354.1,261.4,357.5,264.8z"/>
	<path class="st75" d="M372.4,270.6c1.8-3.6,4.2-6.4,7.3-8.3c3.1-1.9,6.5-2.9,10.4-2.9c3.3,0,6.1,0.7,8.6,2s4.4,3.1,5.7,5.2v-6.5
		h14.2v46.2h-14.2v-6.5c-1.4,2.2-3.3,3.9-5.8,5.2c-2.5,1.3-5.3,2-8.6,2c-3.8,0-7.2-1-10.3-2.9c-3.1-2-5.5-4.7-7.3-8.4
		c-1.8-3.6-2.7-7.8-2.7-12.6C369.7,278.4,370.6,274.2,372.4,270.6z M401.4,274.9c-2-2-4.4-3.1-7.2-3.1c-2.8,0-5.2,1-7.2,3
		c-2,2-2.9,4.8-2.9,8.3c0,3.5,1,6.3,2.9,8.4c2,2.1,4.3,3.1,7.2,3.1c2.8,0,5.2-1,7.2-3.1s2.9-4.8,2.9-8.4
		C404.4,279.7,403.4,276.9,401.4,274.9z"/>
	<path class="st75" d="M449.2,261.8c2.5-1.5,5.2-2.2,8.3-2.2v15h-3.9c-3.5,0-6.2,0.8-8,2.3c-1.8,1.5-2.7,4.2-2.7,8v21.5h-14.2v-46.2
		H443v7.7C444.6,265.3,446.7,263.3,449.2,261.8z"/>
	<path class="st75" d="M492.6,306.4L478.5,287v19.4h-14.2V245h14.2v33.9l14-18.8H510l-19.2,23.2l19.4,23H492.6z"/>
	<path class="st75" d="M558.9,286.6h-32.1c0.2,2.9,1.1,5.1,2.8,6.6c1.6,1.5,3.6,2.3,6,2.3c3.5,0,6-1.5,7.4-4.5H558
		c-0.8,3-2.2,5.8-4.2,8.2c-2,2.4-4.5,4.3-7.6,5.7c-3,1.4-6.4,2.1-10.2,2.1c-4.5,0-8.6-1-12.1-2.9c-3.5-1.9-6.3-4.7-8.3-8.3
		c-2-3.6-3-7.8-3-12.6c0-4.8,1-9,2.9-12.6c2-3.6,4.7-6.4,8.2-8.3c3.5-1.9,7.6-2.9,12.2-2.9c4.5,0,8.5,0.9,11.9,2.8
		c3.5,1.9,6.2,4.6,8.2,8c2,3.5,2.9,7.5,2.9,12.2C559.1,283.8,559,285.2,558.9,286.6z M544.6,278.8c0-2.4-0.8-4.4-2.5-5.8
		c-1.7-1.4-3.7-2.2-6.2-2.2c-2.4,0-4.4,0.7-6,2.1c-1.6,1.4-2.6,3.3-3,5.9H544.6z"/>
	<path class="st75" d="M592.3,294.3v12h-7.2c-5.1,0-9.1-1.3-12-3.8c-2.9-2.5-4.3-6.6-4.3-12.3v-18.4h-5.6v-11.8h5.6v-11.3H583v11.3
		h9.3v11.8H583v18.6c0,1.4,0.3,2.4,1,3c0.7,0.6,1.8,0.9,3.3,0.9H592.3z"/>
	<path class="st75" d="M620.1,261.4c2.4-1.3,5.3-2,8.5-2c3.8,0,7.3,1,10.4,2.9c3.1,1.9,5.5,4.7,7.3,8.3c1.8,3.6,2.7,7.8,2.7,12.5
		c0,4.8-0.9,8.9-2.7,12.6c-1.8,3.6-4.2,6.4-7.3,8.4c-3.1,2-6.5,2.9-10.4,2.9c-3.2,0-6-0.7-8.5-2c-2.5-1.3-4.4-3-5.8-5.1v28.5h-14.2
		v-68.3h14.2v6.5C615.8,264.5,617.7,262.8,620.1,261.4z M631.7,274.8c-2-2-4.4-3-7.3-3c-2.8,0-5.2,1-7.2,3.1c-2,2-2.9,4.8-2.9,8.4
		c0,3.5,1,6.3,2.9,8.4c2,2,4.4,3.1,7.2,3.1s5.2-1,7.2-3.1c2-2.1,3-4.9,3-8.4C634.6,279.6,633.6,276.8,631.7,274.8z"/>
	<path class="st75" d="M670.7,245v61.3h-14.2V245H670.7z"/>
	<path class="st75" d="M680.8,270.6c1.8-3.6,4.2-6.4,7.3-8.3c3.1-1.9,6.5-2.9,10.4-2.9c3.3,0,6.1,0.7,8.6,2c2.5,1.3,4.4,3.1,5.7,5.2
		v-6.5h14.2v46.2h-14.2v-6.5c-1.4,2.2-3.3,3.9-5.8,5.2c-2.5,1.3-5.3,2-8.6,2c-3.8,0-7.2-1-10.3-2.9c-3.1-2-5.5-4.7-7.3-8.4
		c-1.8-3.6-2.7-7.8-2.7-12.6C678.1,278.4,679,274.2,680.8,270.6z M709.8,274.9c-2-2-4.4-3.1-7.2-3.1s-5.2,1-7.2,3
		c-2,2-2.9,4.8-2.9,8.3c0,3.5,1,6.3,2.9,8.4c2,2.1,4.3,3.1,7.2,3.1s5.2-1,7.2-3.1s2.9-4.8,2.9-8.4
		C712.8,279.7,711.8,276.9,709.8,274.9z"/>
	<path class="st75" d="M737.3,270.6c2-3.6,4.7-6.4,8.2-8.3c3.5-1.9,7.5-2.9,12.1-2.9c5.8,0,10.6,1.5,14.5,4.6
		c3.9,3,6.4,7.3,7.7,12.8h-15.1c-1.3-3.5-3.7-5.3-7.4-5.3c-2.6,0-4.7,1-6.2,3c-1.5,2-2.3,4.9-2.3,8.7c0,3.8,0.8,6.6,2.3,8.7
		c1.5,2,3.6,3,6.2,3c3.6,0,6.1-1.8,7.4-5.3h15.1c-1.2,5.4-3.8,9.7-7.7,12.8c-3.9,3.1-8.8,4.6-14.5,4.6c-4.5,0-8.6-1-12.1-2.9
		c-3.5-1.9-6.2-4.7-8.2-8.3c-2-3.6-2.9-7.8-2.9-12.6C734.4,278.4,735.4,274.2,737.3,270.6z"/>
	<path class="st75" d="M830.7,286.6h-32.1c0.2,2.9,1.1,5.1,2.8,6.6c1.6,1.5,3.6,2.3,6,2.3c3.5,0,6-1.5,7.4-4.5h15.1
		c-0.8,3-2.2,5.8-4.2,8.2c-2,2.4-4.5,4.3-7.6,5.7c-3,1.4-6.4,2.1-10.2,2.1c-4.5,0-8.6-1-12.1-2.9c-3.5-1.9-6.3-4.7-8.3-8.3
		c-2-3.6-3-7.8-3-12.6c0-4.8,1-9,2.9-12.6c2-3.6,4.7-6.4,8.2-8.3c3.5-1.9,7.6-2.9,12.2-2.9c4.5,0,8.5,0.9,11.9,2.8
		c3.5,1.9,6.2,4.6,8.2,8c2,3.5,2.9,7.5,2.9,12.2C830.9,283.8,830.8,285.2,830.7,286.6z M816.4,278.8c0-2.4-0.8-4.4-2.5-5.8
		c-1.7-1.4-3.7-2.2-6.2-2.2c-2.4,0-4.4,0.7-6,2.1c-1.6,1.4-2.6,3.3-3,5.9H816.4z"/>
</g>
</svg>
