<svg xmlns="http://www.w3.org/2000/svg" xmlns:xlink="http://www.w3.org/1999/xlink" width="1920" height="3727" viewBox="0 0 1920 3727"><defs><filter id="a" x="557" y="1487" width="408" height="433" filterUnits="userSpaceOnUse"><feOffset dy="3" input="SourceAlpha"/><feGaussianBlur stdDeviation="5" result="b"/><feFlood flood-opacity="0.161"/><feComposite operator="in" in2="b"/><feComposite in="SourceGraphic"/></filter><filter id="c" x="557" y="1023" width="408" height="433" filterUnits="userSpaceOnUse"><feOffset dy="3" input="SourceAlpha"/><feGaussianBlur stdDeviation="5" result="d"/><feFlood flood-opacity="0.161"/><feComposite operator="in" in2="d"/><feComposite in="SourceGraphic"/></filter><filter id="e" x="557" y="1954" width="408" height="433" filterUnits="userSpaceOnUse"><feOffset dy="3" input="SourceAlpha"/><feGaussianBlur stdDeviation="5" result="f"/><feFlood flood-opacity="0.161"/><feComposite operator="in" in2="f"/><feComposite in="SourceGraphic"/></filter><filter id="g" x="969" y="1487" width="408" height="433" filterUnits="userSpaceOnUse"><feOffset dy="3" input="SourceAlpha"/><feGaussianBlur stdDeviation="5" result="h"/><feFlood flood-opacity="0.161"/><feComposite operator="in" in2="h"/><feComposite in="SourceGraphic"/></filter><filter id="i" x="969" y="1023" width="408" height="433" filterUnits="userSpaceOnUse"><feOffset dy="3" input="SourceAlpha"/><feGaussianBlur stdDeviation="5" result="j"/><feFlood flood-opacity="0.161"/><feComposite operator="in" in2="j"/><feComposite in="SourceGraphic"/></filter><filter id="k" x="969" y="1954" width="408" height="433" filterUnits="userSpaceOnUse"><feOffset dy="3" input="SourceAlpha"/><feGaussianBlur stdDeviation="5" result="l"/><feFlood flood-opacity="0.161"/><feComposite operator="in" in2="l"/><feComposite in="SourceGraphic"/></filter><filter id="m" x="1381" y="1487" width="408" height="433" filterUnits="userSpaceOnUse"><feOffset dy="3" input="SourceAlpha"/><feGaussianBlur stdDeviation="5" result="n"/><feFlood flood-opacity="0.161"/><feComposite operator="in" in2="n"/><feComposite in="SourceGraphic"/></filter><filter id="o" x="1381" y="1023" width="408" height="433" filterUnits="userSpaceOnUse"><feOffset dy="3" input="SourceAlpha"/><feGaussianBlur stdDeviation="5" result="p"/><feFlood flood-opacity="0.161"/><feComposite operator="in" in2="p"/><feComposite in="SourceGraphic"/></filter><filter id="q" x="1381" y="1954" width="408" height="433" filterUnits="userSpaceOnUse"><feOffset dy="3" input="SourceAlpha"/><feGaussianBlur stdDeviation="5" result="r"/><feFlood flood-opacity="0.161"/><feComposite operator="in" in2="r"/><feComposite in="SourceGraphic"/></filter><pattern id="s" preserveAspectRatio="none" width="100%" height="100%" viewBox="0 0 3062 940"><image width="3062" height="940" xlink:href="Search%20result-image.png"/></pattern><clipPath id="t"><rect width="156" height="77" fill="#fff" stroke="#707070" stroke-width="1"/></clipPath><pattern id="u" preserveAspectRatio="none" width="100%" height="100%" viewBox="0 0 3398 1734"><image width="3398" height="1734" xlink:href="Search%20result-image2.png"/></pattern><filter id="v" x="557" y="563" width="408" height="433" filterUnits="userSpaceOnUse"><feOffset dy="3" input="SourceAlpha"/><feGaussianBlur stdDeviation="5" result="w"/><feFlood flood-opacity="0.161"/><feComposite operator="in" in2="w"/><feComposite in="SourceGraphic"/></filter><pattern id="x" preserveAspectRatio="xMidYMid slice" width="100%" height="100%" viewBox="0 0 426 280"><image width="426" height="280" xlink:href="Search%20result-image3.png"/></pattern><filter id="ab" x="969" y="563" width="408" height="433" filterUnits="userSpaceOnUse"><feOffset dy="3" input="SourceAlpha"/><feGaussianBlur stdDeviation="5" result="ac"/><feFlood flood-opacity="0.161"/><feComposite operator="in" in2="ac"/><feComposite in="SourceGraphic"/></filter><pattern id="ad" preserveAspectRatio="xMidYMid slice" width="100%" height="100%" viewBox="0 0 424 278"><image width="424" height="278" xlink:href="Search%20result-image4.png"/></pattern><filter id="ah" x="1381" y="563" width="408" height="433" filterUnits="userSpaceOnUse"><feOffset dy="3" input="SourceAlpha"/><feGaussianBlur stdDeviation="5" result="ai"/><feFlood flood-opacity="0.161"/><feComposite operator="in" in2="ai"/><feComposite in="SourceGraphic"/></filter><pattern id="aj" preserveAspectRatio="xMidYMid slice" width="100%" height="100%" viewBox="0 0 428 280"><image width="428" height="280" xlink:href="Search%20result-image5.png"/></pattern><filter id="an" x="563" y="461" width="212" height="69" filterUnits="userSpaceOnUse"><feOffset dy="3" input="SourceAlpha"/><feGaussianBlur stdDeviation="3" result="ao"/><feFlood flood-opacity="0.161"/><feComposite operator="in" in2="ao"/><feComposite in="SourceGraphic"/></filter><filter id="ap" x="786" y="461" width="212" height="69" filterUnits="userSpaceOnUse"><feOffset dy="3" input="SourceAlpha"/><feGaussianBlur stdDeviation="3" result="aq"/><feFlood flood-opacity="0.161"/><feComposite operator="in" in2="aq"/><feComposite in="SourceGraphic"/></filter><filter id="ar" x="1009" y="461" width="212" height="69" filterUnits="userSpaceOnUse"><feOffset dy="3" input="SourceAlpha"/><feGaussianBlur stdDeviation="3" result="as"/><feFlood flood-opacity="0.161"/><feComposite operator="in" in2="as"/><feComposite in="SourceGraphic"/></filter><filter id="at" x="1232" y="461" width="212" height="69" filterUnits="userSpaceOnUse"><feOffset dy="3" input="SourceAlpha"/><feGaussianBlur stdDeviation="3" result="au"/><feFlood flood-opacity="0.161"/><feComposite operator="in" in2="au"/><feComposite in="SourceGraphic"/></filter><pattern id="av" width="1" height="1" viewBox="32.071 34.267 742.296 420.948"><image preserveAspectRatio="xMidYMid slice" width="790" height="489.481" xlink:href="Search%20result-image6.jpg"/></pattern><clipPath id="ax"><rect width="1920" height="3727"/></clipPath></defs><g id="aw" clip-path="url(#ax)"><rect width="1920" height="3727" fill="#fff"/><g transform="translate(413 999)"><g transform="matrix(1, 0, 0, 1, -413, -999)" filter="url(#a)"><rect width="378" height="403" rx="16" transform="translate(572 1499)" fill="#fff"/></g><g transform="translate(178.771 772.504)"><g transform="translate(0.229 0.496)"><text fill="#23454f" font-size="20" font-family="Poppins-Bold, Poppins" font-weight="700"><tspan x="0" y="21">Name of asset and title category</tspan></text><text transform="translate(0 27)" fill="#23454f" font-size="15" font-family="Poppins-Medium, Poppins" font-weight="500"><tspan x="0" y="16">By </tspan><tspan y="16" fill="#46b175">House of motion studio</tspan><tspan y="16" xml:space="preserve"> in </tspan><tspan y="16" fill="#fa7808">Motion graphics </tspan></text></g></g><g transform="translate(178.771 837.518)"><rect width="64" height="45" transform="translate(0.229 0.482)" fill="#d7deb6"/><g transform="translate(8.859 7.875)"><g transform="translate(0 0)"><text transform="translate(0.37 22.607)" fill="#23454f" font-size="22" font-family="Poppins-SemiBold, Poppins" font-weight="600"><tspan x="0" y="0">N3k</tspan></text></g></g></g><g transform="translate(-200.608 -540.92)"><path d="M757.512,1398.24c0,1.149.039,2.3-.012,3.448-.036.794.215,1.111,1.047,1.077,1.369-.056,2.742,0,4.112-.022a1.49,1.49,0,0,1,1.624.883,1.811,1.811,0,0,1-.288,1.993c-2.787,2.84-5.564,5.691-8.405,8.477a1.657,1.657,0,0,1-2.492-.11c-2.717-2.723-5.411-5.469-8.119-8.2a1.826,1.826,0,0,1-.4-2.186,1.759,1.759,0,0,1,1.842-1.014c1.324.055,2.655-.027,3.979.03.769.033.974-.24.959-.98-.044-2.166-.022-4.332-.013-6.5.007-2.037,1.242-3.424,3.054-3.455a3.088,3.088,0,0,1,3.112,3.374C757.521,1396.117,757.512,1397.178,757.512,1398.24Z" transform="translate(-50.537 -2.355)" fill="#5ace8d"/><path d="M750.007,1446.727q-5.909,0-11.818,0a2.1,2.1,0,0,1-2.257-1.666,2.06,2.06,0,0,1,.988-2.4,3.051,3.051,0,0,1,1.663-.364c7.613-.008,15.227-.022,22.84.005,1.9.007,2.944,1.09,2.69,2.624-.192,1.159-1.056,1.792-2.554,1.8C757.709,1446.738,753.858,1446.729,750.007,1446.727Z" transform="translate(-46.544 -26.059)" fill="#5ace8d"/><path d="M661.837,1404.324q0,8.1-.006,16.2c0,.553.161,1.179-.494,1.536s-1.1-.144-1.56-.425c-3.247-1.981-6.489-3.97-9.705-6a1.43,1.43,0,0,0-1.772.007c-3.215,2.031-6.462,4.012-9.7,6-.473.29-.929.738-1.573.4-.661-.345-.5-.97-.5-1.525-.005-10.712.011-21.424-.023-32.135,0-1.273.46-1.729,1.709-1.724q11.025.045,22.05,0c1.191-.006,1.623.355,1.61,1.6C661.8,1393.612,661.837,1398.968,661.837,1404.324Zm-14.127,9.524a2.382,2.382,0,0,1,2.995.026c2.705,1.76,5.5,3.381,8.241,5.086.709.441,1.05.536,1.048-.52q-.033-14.473,0-28.947c0-.748-.225-.98-.978-.977q-9.83.038-19.659,0c-.712,0-1,.138-1,.935.026,9.957.016,19.915.016,30.141C641.632,1417.6,644.711,1415.786,647.709,1413.848Z" transform="translate(0)" fill="#5ace8d"/><path d="M651.386,1408.9c-.663,0-1.326.018-1.989-.005-.632-.022-1.179-.274-1.191-.977-.013-.779.566-1.043,1.251-1.055,1.149-.02,2.3-.036,3.447,0,.638.022.852-.21.83-.837-.038-1.1.008-2.209-.016-3.313-.015-.692.137-1.326.916-1.344s.969.6.952,1.3c-.025,1.015.059,2.037-.024,3.047-.08.968.305,1.214,1.2,1.153,1.012-.07,2.032-.026,3.048-.011.663.01,1.321.167,1.29.982-.028.721-.642.865-1.26.867-1.1,0-2.212.047-3.314-.012-.789-.043-.994.267-.932,1,.094,1.1.117,2.2.17,3.308.032.671-.091,1.337-.887,1.365s-.967-.6-.958-1.3c.014-.972-.061-1.949.02-2.915s-.207-1.409-1.231-1.26a9.317,9.317,0,0,1-1.324.01Z" transform="translate(-5.487 -6.891)" fill="#5ace8d"/></g></g><g transform="translate(413 535)"><g transform="matrix(1, 0, 0, 1, -413, -535)" filter="url(#c)"><rect width="378" height="403" rx="16" transform="translate(572 1035)" fill="#fff"/></g><g transform="translate(178.771 772.504)"><g transform="translate(0.229 0.496)"><text fill="#23454f" font-size="20" font-family="Poppins-Bold, Poppins" font-weight="700"><tspan x="0" y="21">Name of asset and title category</tspan></text><text transform="translate(0 27)" fill="#23454f" font-size="15" font-family="Poppins-Medium, Poppins" font-weight="500"><tspan x="0" y="16">By </tspan><tspan y="16" fill="#46b175">House of motion studio</tspan><tspan y="16" xml:space="preserve"> in </tspan><tspan y="16" fill="#fa7808">Motion graphics </tspan></text></g></g><g transform="translate(178.771 837.518)"><rect width="64" height="45" transform="translate(0.229 0.482)" fill="#d7deb6"/><g transform="translate(8.859 7.875)"><g transform="translate(0 0)"><text transform="translate(0.37 22.607)" fill="#23454f" font-size="22" font-family="Poppins-SemiBold, Poppins" font-weight="600"><tspan x="0" y="0">N3k</tspan></text></g></g></g><g transform="translate(-200.608 -540.92)"><path d="M757.512,1398.24c0,1.149.039,2.3-.012,3.448-.036.794.215,1.111,1.047,1.077,1.369-.056,2.742,0,4.112-.022a1.49,1.49,0,0,1,1.624.883,1.811,1.811,0,0,1-.288,1.993c-2.787,2.84-5.564,5.691-8.405,8.477a1.657,1.657,0,0,1-2.492-.11c-2.717-2.723-5.411-5.469-8.119-8.2a1.826,1.826,0,0,1-.4-2.186,1.759,1.759,0,0,1,1.842-1.014c1.324.055,2.655-.027,3.979.03.769.033.974-.24.959-.98-.044-2.166-.022-4.332-.013-6.5.007-2.037,1.242-3.424,3.054-3.455a3.088,3.088,0,0,1,3.112,3.374C757.521,1396.117,757.512,1397.178,757.512,1398.24Z" transform="translate(-50.537 -2.355)" fill="#5ace8d"/><path d="M750.007,1446.727q-5.909,0-11.818,0a2.1,2.1,0,0,1-2.257-1.666,2.06,2.06,0,0,1,.988-2.4,3.051,3.051,0,0,1,1.663-.364c7.613-.008,15.227-.022,22.84.005,1.9.007,2.944,1.09,2.69,2.624-.192,1.159-1.056,1.792-2.554,1.8C757.709,1446.738,753.858,1446.729,750.007,1446.727Z" transform="translate(-46.544 -26.059)" fill="#5ace8d"/><path d="M661.837,1404.324q0,8.1-.006,16.2c0,.553.161,1.179-.494,1.536s-1.1-.144-1.56-.425c-3.247-1.981-6.489-3.97-9.705-6a1.43,1.43,0,0,0-1.772.007c-3.215,2.031-6.462,4.012-9.7,6-.473.29-.929.738-1.573.4-.661-.345-.5-.97-.5-1.525-.005-10.712.011-21.424-.023-32.135,0-1.273.46-1.729,1.709-1.724q11.025.045,22.05,0c1.191-.006,1.623.355,1.61,1.6C661.8,1393.612,661.837,1398.968,661.837,1404.324Zm-14.127,9.524a2.382,2.382,0,0,1,2.995.026c2.705,1.76,5.5,3.381,8.241,5.086.709.441,1.05.536,1.048-.52q-.033-14.473,0-28.947c0-.748-.225-.98-.978-.977q-9.83.038-19.659,0c-.712,0-1,.138-1,.935.026,9.957.016,19.915.016,30.141C641.632,1417.6,644.711,1415.786,647.709,1413.848Z" transform="translate(0)" fill="#5ace8d"/><path d="M651.386,1408.9c-.663,0-1.326.018-1.989-.005-.632-.022-1.179-.274-1.191-.977-.013-.779.566-1.043,1.251-1.055,1.149-.02,2.3-.036,3.447,0,.638.022.852-.21.83-.837-.038-1.1.008-2.209-.016-3.313-.015-.692.137-1.326.916-1.344s.969.6.952,1.3c-.025,1.015.059,2.037-.024,3.047-.08.968.305,1.214,1.2,1.153,1.012-.07,2.032-.026,3.048-.011.663.01,1.321.167,1.29.982-.028.721-.642.865-1.26.867-1.1,0-2.212.047-3.314-.012-.789-.043-.994.267-.932,1,.094,1.1.117,2.2.17,3.308.032.671-.091,1.337-.887,1.365s-.967-.6-.958-1.3c.014-.972-.061-1.949.02-2.915s-.207-1.409-1.231-1.26a9.317,9.317,0,0,1-1.324.01Z" transform="translate(-5.487 -6.891)" fill="#5ace8d"/></g></g><g transform="translate(413 1466)"><g transform="matrix(1, 0, 0, 1, -413, -1466)" filter="url(#e)"><rect width="378" height="403" rx="16" transform="translate(572 1966)" fill="#fff"/></g><g transform="translate(178.771 772.504)"><g transform="translate(0.229 0.496)"><text fill="#23454f" font-size="20" font-family="Poppins-Bold, Poppins" font-weight="700"><tspan x="0" y="21">Name of asset and title category</tspan></text><text transform="translate(0 27)" fill="#23454f" font-size="15" font-family="Poppins-Medium, Poppins" font-weight="500"><tspan x="0" y="16">By </tspan><tspan y="16" fill="#46b175">House of motion studio</tspan><tspan y="16" xml:space="preserve"> in </tspan><tspan y="16" fill="#fa7808">Motion graphics </tspan></text></g></g><g transform="translate(178.771 837.518)"><rect width="64" height="45" transform="translate(0.229 0.482)" fill="#d7deb6"/><g transform="translate(8.859 7.875)"><g transform="translate(0 0)"><text transform="translate(0.37 22.607)" fill="#23454f" font-size="22" font-family="Poppins-SemiBold, Poppins" font-weight="600"><tspan x="0" y="0">N3k</tspan></text></g></g></g><g transform="translate(-200.608 -540.92)"><path d="M757.512,1398.24c0,1.149.039,2.3-.012,3.448-.036.794.215,1.111,1.047,1.077,1.369-.056,2.742,0,4.112-.022a1.49,1.49,0,0,1,1.624.883,1.811,1.811,0,0,1-.288,1.993c-2.787,2.84-5.564,5.691-8.405,8.477a1.657,1.657,0,0,1-2.492-.11c-2.717-2.723-5.411-5.469-8.119-8.2a1.826,1.826,0,0,1-.4-2.186,1.759,1.759,0,0,1,1.842-1.014c1.324.055,2.655-.027,3.979.03.769.033.974-.24.959-.98-.044-2.166-.022-4.332-.013-6.5.007-2.037,1.242-3.424,3.054-3.455a3.088,3.088,0,0,1,3.112,3.374C757.521,1396.117,757.512,1397.178,757.512,1398.24Z" transform="translate(-50.537 -2.355)" fill="#5ace8d"/><path d="M750.007,1446.727q-5.909,0-11.818,0a2.1,2.1,0,0,1-2.257-1.666,2.06,2.06,0,0,1,.988-2.4,3.051,3.051,0,0,1,1.663-.364c7.613-.008,15.227-.022,22.84.005,1.9.007,2.944,1.09,2.69,2.624-.192,1.159-1.056,1.792-2.554,1.8C757.709,1446.738,753.858,1446.729,750.007,1446.727Z" transform="translate(-46.544 -26.059)" fill="#5ace8d"/><path d="M661.837,1404.324q0,8.1-.006,16.2c0,.553.161,1.179-.494,1.536s-1.1-.144-1.56-.425c-3.247-1.981-6.489-3.97-9.705-6a1.43,1.43,0,0,0-1.772.007c-3.215,2.031-6.462,4.012-9.7,6-.473.29-.929.738-1.573.4-.661-.345-.5-.97-.5-1.525-.005-10.712.011-21.424-.023-32.135,0-1.273.46-1.729,1.709-1.724q11.025.045,22.05,0c1.191-.006,1.623.355,1.61,1.6C661.8,1393.612,661.837,1398.968,661.837,1404.324Zm-14.127,9.524a2.382,2.382,0,0,1,2.995.026c2.705,1.76,5.5,3.381,8.241,5.086.709.441,1.05.536,1.048-.52q-.033-14.473,0-28.947c0-.748-.225-.98-.978-.977q-9.83.038-19.659,0c-.712,0-1,.138-1,.935.026,9.957.016,19.915.016,30.141C641.632,1417.6,644.711,1415.786,647.709,1413.848Z" transform="translate(0)" fill="#5ace8d"/><path d="M651.386,1408.9c-.663,0-1.326.018-1.989-.005-.632-.022-1.179-.274-1.191-.977-.013-.779.566-1.043,1.251-1.055,1.149-.02,2.3-.036,3.447,0,.638.022.852-.21.83-.837-.038-1.1.008-2.209-.016-3.313-.015-.692.137-1.326.916-1.344s.969.6.952,1.3c-.025,1.015.059,2.037-.024,3.047-.08.968.305,1.214,1.2,1.153,1.012-.07,2.032-.026,3.048-.011.663.01,1.321.167,1.29.982-.028.721-.642.865-1.26.867-1.1,0-2.212.047-3.314-.012-.789-.043-.994.267-.932,1,.094,1.1.117,2.2.17,3.308.032.671-.091,1.337-.887,1.365s-.967-.6-.958-1.3c.014-.972-.061-1.949.02-2.915s-.207-1.409-1.231-1.26a9.317,9.317,0,0,1-1.324.01Z" transform="translate(-5.487 -6.891)" fill="#5ace8d"/></g></g><g transform="translate(825 999)"><g transform="matrix(1, 0, 0, 1, -825, -999)" filter="url(#g)"><rect width="378" height="403" rx="16" transform="translate(984 1499)" fill="#fff"/></g><g transform="translate(178.771 772.504)"><g transform="translate(0.229 0.496)"><text fill="#23454f" font-size="20" font-family="Poppins-Bold, Poppins" font-weight="700"><tspan x="0" y="21">Name of asset and title category</tspan></text><text transform="translate(0 27)" fill="#23454f" font-size="15" font-family="Poppins-Medium, Poppins" font-weight="500"><tspan x="0" y="16">By </tspan><tspan y="16" fill="#46b175">House of motion studio</tspan><tspan y="16" xml:space="preserve"> in </tspan><tspan y="16" fill="#fa7808">Motion graphics </tspan></text></g></g><g transform="translate(178.771 837.518)"><rect width="64" height="45" transform="translate(0.229 0.482)" fill="#d7deb6"/><g transform="translate(8.859 7.875)"><g transform="translate(0 0)"><text transform="translate(0.37 22.607)" fill="#23454f" font-size="22" font-family="Poppins-SemiBold, Poppins" font-weight="600"><tspan x="0" y="0">N3k</tspan></text></g></g></g><g transform="translate(-200.608 -540.92)"><path d="M757.512,1398.24c0,1.149.039,2.3-.012,3.448-.036.794.215,1.111,1.047,1.077,1.369-.056,2.742,0,4.112-.022a1.49,1.49,0,0,1,1.624.883,1.811,1.811,0,0,1-.288,1.993c-2.787,2.84-5.564,5.691-8.405,8.477a1.657,1.657,0,0,1-2.492-.11c-2.717-2.723-5.411-5.469-8.119-8.2a1.826,1.826,0,0,1-.4-2.186,1.759,1.759,0,0,1,1.842-1.014c1.324.055,2.655-.027,3.979.03.769.033.974-.24.959-.98-.044-2.166-.022-4.332-.013-6.5.007-2.037,1.242-3.424,3.054-3.455a3.088,3.088,0,0,1,3.112,3.374C757.521,1396.117,757.512,1397.178,757.512,1398.24Z" transform="translate(-50.537 -2.355)" fill="#5ace8d"/><path d="M750.007,1446.727q-5.909,0-11.818,0a2.1,2.1,0,0,1-2.257-1.666,2.06,2.06,0,0,1,.988-2.4,3.051,3.051,0,0,1,1.663-.364c7.613-.008,15.227-.022,22.84.005,1.9.007,2.944,1.09,2.69,2.624-.192,1.159-1.056,1.792-2.554,1.8C757.709,1446.738,753.858,1446.729,750.007,1446.727Z" transform="translate(-46.544 -26.059)" fill="#5ace8d"/><path d="M661.837,1404.324q0,8.1-.006,16.2c0,.553.161,1.179-.494,1.536s-1.1-.144-1.56-.425c-3.247-1.981-6.489-3.97-9.705-6a1.43,1.43,0,0,0-1.772.007c-3.215,2.031-6.462,4.012-9.7,6-.473.29-.929.738-1.573.4-.661-.345-.5-.97-.5-1.525-.005-10.712.011-21.424-.023-32.135,0-1.273.46-1.729,1.709-1.724q11.025.045,22.05,0c1.191-.006,1.623.355,1.61,1.6C661.8,1393.612,661.837,1398.968,661.837,1404.324Zm-14.127,9.524a2.382,2.382,0,0,1,2.995.026c2.705,1.76,5.5,3.381,8.241,5.086.709.441,1.05.536,1.048-.52q-.033-14.473,0-28.947c0-.748-.225-.98-.978-.977q-9.83.038-19.659,0c-.712,0-1,.138-1,.935.026,9.957.016,19.915.016,30.141C641.632,1417.6,644.711,1415.786,647.709,1413.848Z" transform="translate(0)" fill="#5ace8d"/><path d="M651.386,1408.9c-.663,0-1.326.018-1.989-.005-.632-.022-1.179-.274-1.191-.977-.013-.779.566-1.043,1.251-1.055,1.149-.02,2.3-.036,3.447,0,.638.022.852-.21.83-.837-.038-1.1.008-2.209-.016-3.313-.015-.692.137-1.326.916-1.344s.969.6.952,1.3c-.025,1.015.059,2.037-.024,3.047-.08.968.305,1.214,1.2,1.153,1.012-.07,2.032-.026,3.048-.011.663.01,1.321.167,1.29.982-.028.721-.642.865-1.26.867-1.1,0-2.212.047-3.314-.012-.789-.043-.994.267-.932,1,.094,1.1.117,2.2.17,3.308.032.671-.091,1.337-.887,1.365s-.967-.6-.958-1.3c.014-.972-.061-1.949.02-2.915s-.207-1.409-1.231-1.26a9.317,9.317,0,0,1-1.324.01Z" transform="translate(-5.487 -6.891)" fill="#5ace8d"/></g></g><g transform="translate(825 535)"><g transform="matrix(1, 0, 0, 1, -825, -535)" filter="url(#i)"><rect width="378" height="403" rx="16" transform="translate(984 1035)" fill="#fff"/></g><g transform="translate(178.771 772.504)"><g transform="translate(0.229 0.496)"><text fill="#23454f" font-size="20" font-family="Poppins-Bold, Poppins" font-weight="700"><tspan x="0" y="21">Name of asset and title category</tspan></text><text transform="translate(0 27)" fill="#23454f" font-size="15" font-family="Poppins-Medium, Poppins" font-weight="500"><tspan x="0" y="16">By </tspan><tspan y="16" fill="#46b175">House of motion studio</tspan><tspan y="16" xml:space="preserve"> in </tspan><tspan y="16" fill="#fa7808">Motion graphics </tspan></text></g></g><g transform="translate(178.771 837.518)"><rect width="64" height="45" transform="translate(0.229 0.482)" fill="#d7deb6"/><g transform="translate(8.859 7.875)"><g transform="translate(0 0)"><text transform="translate(0.37 22.607)" fill="#23454f" font-size="22" font-family="Poppins-SemiBold, Poppins" font-weight="600"><tspan x="0" y="0">N3k</tspan></text></g></g></g><g transform="translate(-200.608 -540.92)"><path d="M757.512,1398.24c0,1.149.039,2.3-.012,3.448-.036.794.215,1.111,1.047,1.077,1.369-.056,2.742,0,4.112-.022a1.49,1.49,0,0,1,1.624.883,1.811,1.811,0,0,1-.288,1.993c-2.787,2.84-5.564,5.691-8.405,8.477a1.657,1.657,0,0,1-2.492-.11c-2.717-2.723-5.411-5.469-8.119-8.2a1.826,1.826,0,0,1-.4-2.186,1.759,1.759,0,0,1,1.842-1.014c1.324.055,2.655-.027,3.979.03.769.033.974-.24.959-.98-.044-2.166-.022-4.332-.013-6.5.007-2.037,1.242-3.424,3.054-3.455a3.088,3.088,0,0,1,3.112,3.374C757.521,1396.117,757.512,1397.178,757.512,1398.24Z" transform="translate(-50.537 -2.355)" fill="#5ace8d"/><path d="M750.007,1446.727q-5.909,0-11.818,0a2.1,2.1,0,0,1-2.257-1.666,2.06,2.06,0,0,1,.988-2.4,3.051,3.051,0,0,1,1.663-.364c7.613-.008,15.227-.022,22.84.005,1.9.007,2.944,1.09,2.69,2.624-.192,1.159-1.056,1.792-2.554,1.8C757.709,1446.738,753.858,1446.729,750.007,1446.727Z" transform="translate(-46.544 -26.059)" fill="#5ace8d"/><path d="M661.837,1404.324q0,8.1-.006,16.2c0,.553.161,1.179-.494,1.536s-1.1-.144-1.56-.425c-3.247-1.981-6.489-3.97-9.705-6a1.43,1.43,0,0,0-1.772.007c-3.215,2.031-6.462,4.012-9.7,6-.473.29-.929.738-1.573.4-.661-.345-.5-.97-.5-1.525-.005-10.712.011-21.424-.023-32.135,0-1.273.46-1.729,1.709-1.724q11.025.045,22.05,0c1.191-.006,1.623.355,1.61,1.6C661.8,1393.612,661.837,1398.968,661.837,1404.324Zm-14.127,9.524a2.382,2.382,0,0,1,2.995.026c2.705,1.76,5.5,3.381,8.241,5.086.709.441,1.05.536,1.048-.52q-.033-14.473,0-28.947c0-.748-.225-.98-.978-.977q-9.83.038-19.659,0c-.712,0-1,.138-1,.935.026,9.957.016,19.915.016,30.141C641.632,1417.6,644.711,1415.786,647.709,1413.848Z" transform="translate(0)" fill="#5ace8d"/><path d="M651.386,1408.9c-.663,0-1.326.018-1.989-.005-.632-.022-1.179-.274-1.191-.977-.013-.779.566-1.043,1.251-1.055,1.149-.02,2.3-.036,3.447,0,.638.022.852-.21.83-.837-.038-1.1.008-2.209-.016-3.313-.015-.692.137-1.326.916-1.344s.969.6.952,1.3c-.025,1.015.059,2.037-.024,3.047-.08.968.305,1.214,1.2,1.153,1.012-.07,2.032-.026,3.048-.011.663.01,1.321.167,1.29.982-.028.721-.642.865-1.26.867-1.1,0-2.212.047-3.314-.012-.789-.043-.994.267-.932,1,.094,1.1.117,2.2.17,3.308.032.671-.091,1.337-.887,1.365s-.967-.6-.958-1.3c.014-.972-.061-1.949.02-2.915s-.207-1.409-1.231-1.26a9.317,9.317,0,0,1-1.324.01Z" transform="translate(-5.487 -6.891)" fill="#5ace8d"/></g></g><g transform="translate(825 1466)"><g transform="matrix(1, 0, 0, 1, -825, -1466)" filter="url(#k)"><rect width="378" height="403" rx="16" transform="translate(984 1966)" fill="#fff"/></g><g transform="translate(178.771 772.504)"><g transform="translate(0.229 0.496)"><text fill="#23454f" font-size="20" font-family="Poppins-Bold, Poppins" font-weight="700"><tspan x="0" y="21">Name of asset and title category</tspan></text><text transform="translate(0 27)" fill="#23454f" font-size="15" font-family="Poppins-Medium, Poppins" font-weight="500"><tspan x="0" y="16">By </tspan><tspan y="16" fill="#46b175">House of motion studio</tspan><tspan y="16" xml:space="preserve"> in </tspan><tspan y="16" fill="#fa7808">Motion graphics </tspan></text></g></g><g transform="translate(178.771 837.518)"><rect width="64" height="45" transform="translate(0.229 0.482)" fill="#d7deb6"/><g transform="translate(8.859 7.875)"><g transform="translate(0 0)"><text transform="translate(0.37 22.607)" fill="#23454f" font-size="22" font-family="Poppins-SemiBold, Poppins" font-weight="600"><tspan x="0" y="0">N3k</tspan></text></g></g></g><g transform="translate(-200.608 -540.92)"><path d="M757.512,1398.24c0,1.149.039,2.3-.012,3.448-.036.794.215,1.111,1.047,1.077,1.369-.056,2.742,0,4.112-.022a1.49,1.49,0,0,1,1.624.883,1.811,1.811,0,0,1-.288,1.993c-2.787,2.84-5.564,5.691-8.405,8.477a1.657,1.657,0,0,1-2.492-.11c-2.717-2.723-5.411-5.469-8.119-8.2a1.826,1.826,0,0,1-.4-2.186,1.759,1.759,0,0,1,1.842-1.014c1.324.055,2.655-.027,3.979.03.769.033.974-.24.959-.98-.044-2.166-.022-4.332-.013-6.5.007-2.037,1.242-3.424,3.054-3.455a3.088,3.088,0,0,1,3.112,3.374C757.521,1396.117,757.512,1397.178,757.512,1398.24Z" transform="translate(-50.537 -2.355)" fill="#5ace8d"/><path d="M750.007,1446.727q-5.909,0-11.818,0a2.1,2.1,0,0,1-2.257-1.666,2.06,2.06,0,0,1,.988-2.4,3.051,3.051,0,0,1,1.663-.364c7.613-.008,15.227-.022,22.84.005,1.9.007,2.944,1.09,2.69,2.624-.192,1.159-1.056,1.792-2.554,1.8C757.709,1446.738,753.858,1446.729,750.007,1446.727Z" transform="translate(-46.544 -26.059)" fill="#5ace8d"/><path d="M661.837,1404.324q0,8.1-.006,16.2c0,.553.161,1.179-.494,1.536s-1.1-.144-1.56-.425c-3.247-1.981-6.489-3.97-9.705-6a1.43,1.43,0,0,0-1.772.007c-3.215,2.031-6.462,4.012-9.7,6-.473.29-.929.738-1.573.4-.661-.345-.5-.97-.5-1.525-.005-10.712.011-21.424-.023-32.135,0-1.273.46-1.729,1.709-1.724q11.025.045,22.05,0c1.191-.006,1.623.355,1.61,1.6C661.8,1393.612,661.837,1398.968,661.837,1404.324Zm-14.127,9.524a2.382,2.382,0,0,1,2.995.026c2.705,1.76,5.5,3.381,8.241,5.086.709.441,1.05.536,1.048-.52q-.033-14.473,0-28.947c0-.748-.225-.98-.978-.977q-9.83.038-19.659,0c-.712,0-1,.138-1,.935.026,9.957.016,19.915.016,30.141C641.632,1417.6,644.711,1415.786,647.709,1413.848Z" transform="translate(0)" fill="#5ace8d"/><path d="M651.386,1408.9c-.663,0-1.326.018-1.989-.005-.632-.022-1.179-.274-1.191-.977-.013-.779.566-1.043,1.251-1.055,1.149-.02,2.3-.036,3.447,0,.638.022.852-.21.83-.837-.038-1.1.008-2.209-.016-3.313-.015-.692.137-1.326.916-1.344s.969.6.952,1.3c-.025,1.015.059,2.037-.024,3.047-.08.968.305,1.214,1.2,1.153,1.012-.07,2.032-.026,3.048-.011.663.01,1.321.167,1.29.982-.028.721-.642.865-1.26.867-1.1,0-2.212.047-3.314-.012-.789-.043-.994.267-.932,1,.094,1.1.117,2.2.17,3.308.032.671-.091,1.337-.887,1.365s-.967-.6-.958-1.3c.014-.972-.061-1.949.02-2.915s-.207-1.409-1.231-1.26a9.317,9.317,0,0,1-1.324.01Z" transform="translate(-5.487 -6.891)" fill="#5ace8d"/></g></g><g transform="translate(1237 999)"><g transform="matrix(1, 0, 0, 1, -1237, -999)" filter="url(#m)"><rect width="378" height="403" rx="16" transform="translate(1396 1499)" fill="#fff"/></g><g transform="translate(178.771 772.504)"><g transform="translate(0.229 0.496)"><text fill="#23454f" font-size="20" font-family="Poppins-Bold, Poppins" font-weight="700"><tspan x="0" y="21">Name of asset and title category</tspan></text><text transform="translate(0 27)" fill="#23454f" font-size="15" font-family="Poppins-Medium, Poppins" font-weight="500"><tspan x="0" y="16">By </tspan><tspan y="16" fill="#46b175">House of motion studio</tspan><tspan y="16" xml:space="preserve"> in </tspan><tspan y="16" fill="#fa7808">Motion graphics </tspan></text></g></g><g transform="translate(178.771 837.518)"><rect width="64" height="45" transform="translate(0.229 0.482)" fill="#d7deb6"/><g transform="translate(8.859 7.875)"><g transform="translate(0 0)"><text transform="translate(0.37 22.607)" fill="#23454f" font-size="22" font-family="Poppins-SemiBold, Poppins" font-weight="600"><tspan x="0" y="0">N3k</tspan></text></g></g></g><g transform="translate(-200.608 -540.92)"><path d="M757.512,1398.24c0,1.149.039,2.3-.012,3.448-.036.794.215,1.111,1.047,1.077,1.369-.056,2.742,0,4.112-.022a1.49,1.49,0,0,1,1.624.883,1.811,1.811,0,0,1-.288,1.993c-2.787,2.84-5.564,5.691-8.405,8.477a1.657,1.657,0,0,1-2.492-.11c-2.717-2.723-5.411-5.469-8.119-8.2a1.826,1.826,0,0,1-.4-2.186,1.759,1.759,0,0,1,1.842-1.014c1.324.055,2.655-.027,3.979.03.769.033.974-.24.959-.98-.044-2.166-.022-4.332-.013-6.5.007-2.037,1.242-3.424,3.054-3.455a3.088,3.088,0,0,1,3.112,3.374C757.521,1396.117,757.512,1397.178,757.512,1398.24Z" transform="translate(-50.537 -2.355)" fill="#5ace8d"/><path d="M750.007,1446.727q-5.909,0-11.818,0a2.1,2.1,0,0,1-2.257-1.666,2.06,2.06,0,0,1,.988-2.4,3.051,3.051,0,0,1,1.663-.364c7.613-.008,15.227-.022,22.84.005,1.9.007,2.944,1.09,2.69,2.624-.192,1.159-1.056,1.792-2.554,1.8C757.709,1446.738,753.858,1446.729,750.007,1446.727Z" transform="translate(-46.544 -26.059)" fill="#5ace8d"/><path d="M661.837,1404.324q0,8.1-.006,16.2c0,.553.161,1.179-.494,1.536s-1.1-.144-1.56-.425c-3.247-1.981-6.489-3.97-9.705-6a1.43,1.43,0,0,0-1.772.007c-3.215,2.031-6.462,4.012-9.7,6-.473.29-.929.738-1.573.4-.661-.345-.5-.97-.5-1.525-.005-10.712.011-21.424-.023-32.135,0-1.273.46-1.729,1.709-1.724q11.025.045,22.05,0c1.191-.006,1.623.355,1.61,1.6C661.8,1393.612,661.837,1398.968,661.837,1404.324Zm-14.127,9.524a2.382,2.382,0,0,1,2.995.026c2.705,1.76,5.5,3.381,8.241,5.086.709.441,1.05.536,1.048-.52q-.033-14.473,0-28.947c0-.748-.225-.98-.978-.977q-9.83.038-19.659,0c-.712,0-1,.138-1,.935.026,9.957.016,19.915.016,30.141C641.632,1417.6,644.711,1415.786,647.709,1413.848Z" transform="translate(0)" fill="#5ace8d"/><path d="M651.386,1408.9c-.663,0-1.326.018-1.989-.005-.632-.022-1.179-.274-1.191-.977-.013-.779.566-1.043,1.251-1.055,1.149-.02,2.3-.036,3.447,0,.638.022.852-.21.83-.837-.038-1.1.008-2.209-.016-3.313-.015-.692.137-1.326.916-1.344s.969.6.952,1.3c-.025,1.015.059,2.037-.024,3.047-.08.968.305,1.214,1.2,1.153,1.012-.07,2.032-.026,3.048-.011.663.01,1.321.167,1.29.982-.028.721-.642.865-1.26.867-1.1,0-2.212.047-3.314-.012-.789-.043-.994.267-.932,1,.094,1.1.117,2.2.17,3.308.032.671-.091,1.337-.887,1.365s-.967-.6-.958-1.3c.014-.972-.061-1.949.02-2.915s-.207-1.409-1.231-1.26a9.317,9.317,0,0,1-1.324.01Z" transform="translate(-5.487 -6.891)" fill="#5ace8d"/></g></g><g transform="translate(1237 535)"><g transform="matrix(1, 0, 0, 1, -1237, -535)" filter="url(#o)"><rect width="378" height="403" rx="16" transform="translate(1396 1035)" fill="#fff"/></g><g transform="translate(178.771 772.504)"><g transform="translate(0.229 0.496)"><text fill="#23454f" font-size="20" font-family="Poppins-Bold, Poppins" font-weight="700"><tspan x="0" y="21">Name of asset and title category</tspan></text><text transform="translate(0 27)" fill="#23454f" font-size="15" font-family="Poppins-Medium, Poppins" font-weight="500"><tspan x="0" y="16">By </tspan><tspan y="16" fill="#46b175">House of motion studio</tspan><tspan y="16" xml:space="preserve"> in </tspan><tspan y="16" fill="#fa7808">Motion graphics </tspan></text></g></g><g transform="translate(178.771 837.518)"><rect width="64" height="45" transform="translate(0.229 0.482)" fill="#d7deb6"/><g transform="translate(8.859 7.875)"><g transform="translate(0 0)"><text transform="translate(0.37 22.607)" fill="#23454f" font-size="22" font-family="Poppins-SemiBold, Poppins" font-weight="600"><tspan x="0" y="0">N3k</tspan></text></g></g></g><g transform="translate(-200.608 -540.92)"><path d="M757.512,1398.24c0,1.149.039,2.3-.012,3.448-.036.794.215,1.111,1.047,1.077,1.369-.056,2.742,0,4.112-.022a1.49,1.49,0,0,1,1.624.883,1.811,1.811,0,0,1-.288,1.993c-2.787,2.84-5.564,5.691-8.405,8.477a1.657,1.657,0,0,1-2.492-.11c-2.717-2.723-5.411-5.469-8.119-8.2a1.826,1.826,0,0,1-.4-2.186,1.759,1.759,0,0,1,1.842-1.014c1.324.055,2.655-.027,3.979.03.769.033.974-.24.959-.98-.044-2.166-.022-4.332-.013-6.5.007-2.037,1.242-3.424,3.054-3.455a3.088,3.088,0,0,1,3.112,3.374C757.521,1396.117,757.512,1397.178,757.512,1398.24Z" transform="translate(-50.537 -2.355)" fill="#5ace8d"/><path d="M750.007,1446.727q-5.909,0-11.818,0a2.1,2.1,0,0,1-2.257-1.666,2.06,2.06,0,0,1,.988-2.4,3.051,3.051,0,0,1,1.663-.364c7.613-.008,15.227-.022,22.84.005,1.9.007,2.944,1.09,2.69,2.624-.192,1.159-1.056,1.792-2.554,1.8C757.709,1446.738,753.858,1446.729,750.007,1446.727Z" transform="translate(-46.544 -26.059)" fill="#5ace8d"/><path d="M661.837,1404.324q0,8.1-.006,16.2c0,.553.161,1.179-.494,1.536s-1.1-.144-1.56-.425c-3.247-1.981-6.489-3.97-9.705-6a1.43,1.43,0,0,0-1.772.007c-3.215,2.031-6.462,4.012-9.7,6-.473.29-.929.738-1.573.4-.661-.345-.5-.97-.5-1.525-.005-10.712.011-21.424-.023-32.135,0-1.273.46-1.729,1.709-1.724q11.025.045,22.05,0c1.191-.006,1.623.355,1.61,1.6C661.8,1393.612,661.837,1398.968,661.837,1404.324Zm-14.127,9.524a2.382,2.382,0,0,1,2.995.026c2.705,1.76,5.5,3.381,8.241,5.086.709.441,1.05.536,1.048-.52q-.033-14.473,0-28.947c0-.748-.225-.98-.978-.977q-9.83.038-19.659,0c-.712,0-1,.138-1,.935.026,9.957.016,19.915.016,30.141C641.632,1417.6,644.711,1415.786,647.709,1413.848Z" transform="translate(0)" fill="#5ace8d"/><path d="M651.386,1408.9c-.663,0-1.326.018-1.989-.005-.632-.022-1.179-.274-1.191-.977-.013-.779.566-1.043,1.251-1.055,1.149-.02,2.3-.036,3.447,0,.638.022.852-.21.83-.837-.038-1.1.008-2.209-.016-3.313-.015-.692.137-1.326.916-1.344s.969.6.952,1.3c-.025,1.015.059,2.037-.024,3.047-.08.968.305,1.214,1.2,1.153,1.012-.07,2.032-.026,3.048-.011.663.01,1.321.167,1.29.982-.028.721-.642.865-1.26.867-1.1,0-2.212.047-3.314-.012-.789-.043-.994.267-.932,1,.094,1.1.117,2.2.17,3.308.032.671-.091,1.337-.887,1.365s-.967-.6-.958-1.3c.014-.972-.061-1.949.02-2.915s-.207-1.409-1.231-1.26a9.317,9.317,0,0,1-1.324.01Z" transform="translate(-5.487 -6.891)" fill="#5ace8d"/></g></g><g transform="translate(1237 1466)"><g transform="matrix(1, 0, 0, 1, -1237, -1466)" filter="url(#q)"><rect width="378" height="403" rx="16" transform="translate(1396 1966)" fill="#fff"/></g><g transform="translate(178.771 772.504)"><g transform="translate(0.229 0.496)"><text fill="#23454f" font-size="20" font-family="Poppins-Bold, Poppins" font-weight="700"><tspan x="0" y="21">Name of asset and title category</tspan></text><text transform="translate(0 27)" fill="#23454f" font-size="15" font-family="Poppins-Medium, Poppins" font-weight="500"><tspan x="0" y="16">By </tspan><tspan y="16" fill="#46b175">House of motion studio</tspan><tspan y="16" xml:space="preserve"> in </tspan><tspan y="16" fill="#fa7808">Motion graphics </tspan></text></g></g><g transform="translate(178.771 837.518)"><rect width="64" height="45" transform="translate(0.229 0.482)" fill="#d7deb6"/><g transform="translate(8.859 7.875)"><g transform="translate(0 0)"><text transform="translate(0.37 22.607)" fill="#23454f" font-size="22" font-family="Poppins-SemiBold, Poppins" font-weight="600"><tspan x="0" y="0">N3k</tspan></text></g></g></g><g transform="translate(-200.608 -540.92)"><path d="M757.512,1398.24c0,1.149.039,2.3-.012,3.448-.036.794.215,1.111,1.047,1.077,1.369-.056,2.742,0,4.112-.022a1.49,1.49,0,0,1,1.624.883,1.811,1.811,0,0,1-.288,1.993c-2.787,2.84-5.564,5.691-8.405,8.477a1.657,1.657,0,0,1-2.492-.11c-2.717-2.723-5.411-5.469-8.119-8.2a1.826,1.826,0,0,1-.4-2.186,1.759,1.759,0,0,1,1.842-1.014c1.324.055,2.655-.027,3.979.03.769.033.974-.24.959-.98-.044-2.166-.022-4.332-.013-6.5.007-2.037,1.242-3.424,3.054-3.455a3.088,3.088,0,0,1,3.112,3.374C757.521,1396.117,757.512,1397.178,757.512,1398.24Z" transform="translate(-50.537 -2.355)" fill="#5ace8d"/><path d="M750.007,1446.727q-5.909,0-11.818,0a2.1,2.1,0,0,1-2.257-1.666,2.06,2.06,0,0,1,.988-2.4,3.051,3.051,0,0,1,1.663-.364c7.613-.008,15.227-.022,22.84.005,1.9.007,2.944,1.09,2.69,2.624-.192,1.159-1.056,1.792-2.554,1.8C757.709,1446.738,753.858,1446.729,750.007,1446.727Z" transform="translate(-46.544 -26.059)" fill="#5ace8d"/><path d="M661.837,1404.324q0,8.1-.006,16.2c0,.553.161,1.179-.494,1.536s-1.1-.144-1.56-.425c-3.247-1.981-6.489-3.97-9.705-6a1.43,1.43,0,0,0-1.772.007c-3.215,2.031-6.462,4.012-9.7,6-.473.29-.929.738-1.573.4-.661-.345-.5-.97-.5-1.525-.005-10.712.011-21.424-.023-32.135,0-1.273.46-1.729,1.709-1.724q11.025.045,22.05,0c1.191-.006,1.623.355,1.61,1.6C661.8,1393.612,661.837,1398.968,661.837,1404.324Zm-14.127,9.524a2.382,2.382,0,0,1,2.995.026c2.705,1.76,5.5,3.381,8.241,5.086.709.441,1.05.536,1.048-.52q-.033-14.473,0-28.947c0-.748-.225-.98-.978-.977q-9.83.038-19.659,0c-.712,0-1,.138-1,.935.026,9.957.016,19.915.016,30.141C641.632,1417.6,644.711,1415.786,647.709,1413.848Z" transform="translate(0)" fill="#5ace8d"/><path d="M651.386,1408.9c-.663,0-1.326.018-1.989-.005-.632-.022-1.179-.274-1.191-.977-.013-.779.566-1.043,1.251-1.055,1.149-.02,2.3-.036,3.447,0,.638.022.852-.21.83-.837-.038-1.1.008-2.209-.016-3.313-.015-.692.137-1.326.916-1.344s.969.6.952,1.3c-.025,1.015.059,2.037-.024,3.047-.08.968.305,1.214,1.2,1.153,1.012-.07,2.032-.026,3.048-.011.663.01,1.321.167,1.29.982-.028.721-.642.865-1.26.867-1.1,0-2.212.047-3.314-.012-.789-.043-.994.267-.932,1,.094,1.1.117,2.2.17,3.308.032.671-.091,1.337-.887,1.365s-.967-.6-.958-1.3c.014-.972-.061-1.949.02-2.915s-.207-1.409-1.231-1.26a9.317,9.317,0,0,1-1.324.01Z" transform="translate(-5.487 -6.891)" fill="#5ace8d"/></g></g><rect width="1985" height="177" transform="translate(-28 203)" fill="#d5e6dd" opacity="0.613"/><rect width="845" height="13" transform="translate(0 113)" fill="#5ace8d"/><rect width="1920" height="589" transform="translate(0 3138)" fill="url(#s)"/><text transform="translate(156 327)" fill="#23454f" font-size="36" font-family="Poppins-Light, Poppins" font-weight="300"><tspan x="0" y="0">Asset Name / Searched Category </tspan></text><g transform="translate(156.411 246)"><g transform="translate(0)"><text transform="translate(-0.411 27)" fill="#23454f" font-size="20" font-family="Poppins-SemiBold, Poppins" font-weight="600"><tspan x="0" y="0">All Items / Category / Discipline / Sub-category</tspan></text></g></g><rect width="1960" height="148" transform="translate(-18 -22)" fill="#fff"/><g transform="translate(0 -10)"><g transform="translate(158 40)" clip-path="url(#t)"><rect width="2602" height="1327" transform="translate(-253 -24)" fill="url(#u)"/></g><text transform="translate(222 103)" fill="#5ace8d" font-size="19" font-family="Poppins-Bold, Poppins" font-weight="700"><tspan x="0" y="0">marketplace</tspan></text></g><g transform="translate(0 75)"><g transform="translate(413)"><g transform="matrix(1, 0, 0, 1, -413, -75)" filter="url(#v)"><rect width="378" height="403" rx="16" transform="translate(572 575)" fill="#fff"/></g><g transform="translate(178.771 772.504)"><g transform="translate(0.229 0.496)"><text fill="#23454f" font-size="20" font-family="Poppins-Bold, Poppins" font-weight="700"><tspan x="0" y="21">Name of asset and title category</tspan></text><text transform="translate(0 27)" fill="#23454f" font-size="15" font-family="Poppins-Medium, Poppins" font-weight="500"><tspan x="0" y="16">By </tspan><tspan y="16" fill="#46b175">House of motion studio</tspan><tspan y="16" xml:space="preserve"> in </tspan><tspan y="16" fill="#fa7808">Motion graphics </tspan></text></g></g><g transform="translate(178.771 837.518)"><rect width="64" height="45" transform="translate(0.229 0.482)" fill="#d7deb6"/><g transform="translate(8.859 7.875)"><g transform="translate(0 0)"><text transform="translate(0.37 22.607)" fill="#23454f" font-size="22" font-family="Poppins-SemiBold, Poppins" font-weight="600"><tspan x="0" y="0">N3k</tspan></text></g></g></g><g transform="translate(-200.608 -540.92)"><path d="M757.512,1398.24c0,1.149.039,2.3-.012,3.448-.036.794.215,1.111,1.047,1.077,1.369-.056,2.742,0,4.112-.022a1.49,1.49,0,0,1,1.624.883,1.811,1.811,0,0,1-.288,1.993c-2.787,2.84-5.564,5.691-8.405,8.477a1.657,1.657,0,0,1-2.492-.11c-2.717-2.723-5.411-5.469-8.119-8.2a1.826,1.826,0,0,1-.4-2.186,1.759,1.759,0,0,1,1.842-1.014c1.324.055,2.655-.027,3.979.03.769.033.974-.24.959-.98-.044-2.166-.022-4.332-.013-6.5.007-2.037,1.242-3.424,3.054-3.455a3.088,3.088,0,0,1,3.112,3.374C757.521,1396.117,757.512,1397.178,757.512,1398.24Z" transform="translate(-50.537 -2.355)" fill="#5ace8d"/><path d="M750.007,1446.727q-5.909,0-11.818,0a2.1,2.1,0,0,1-2.257-1.666,2.06,2.06,0,0,1,.988-2.4,3.051,3.051,0,0,1,1.663-.364c7.613-.008,15.227-.022,22.84.005,1.9.007,2.944,1.09,2.69,2.624-.192,1.159-1.056,1.792-2.554,1.8C757.709,1446.738,753.858,1446.729,750.007,1446.727Z" transform="translate(-46.544 -26.059)" fill="#5ace8d"/><path d="M661.837,1404.324q0,8.1-.006,16.2c0,.553.161,1.179-.494,1.536s-1.1-.144-1.56-.425c-3.247-1.981-6.489-3.97-9.705-6a1.43,1.43,0,0,0-1.772.007c-3.215,2.031-6.462,4.012-9.7,6-.473.29-.929.738-1.573.4-.661-.345-.5-.97-.5-1.525-.005-10.712.011-21.424-.023-32.135,0-1.273.46-1.729,1.709-1.724q11.025.045,22.05,0c1.191-.006,1.623.355,1.61,1.6C661.8,1393.612,661.837,1398.968,661.837,1404.324Zm-14.127,9.524a2.382,2.382,0,0,1,2.995.026c2.705,1.76,5.5,3.381,8.241,5.086.709.441,1.05.536,1.048-.52q-.033-14.473,0-28.947c0-.748-.225-.98-.978-.977q-9.83.038-19.659,0c-.712,0-1,.138-1,.935.026,9.957.016,19.915.016,30.141C641.632,1417.6,644.711,1415.786,647.709,1413.848Z" transform="translate(0)" fill="#5ace8d"/><path d="M651.386,1408.9c-.663,0-1.326.018-1.989-.005-.632-.022-1.179-.274-1.191-.977-.013-.779.566-1.043,1.251-1.055,1.149-.02,2.3-.036,3.447,0,.638.022.852-.21.83-.837-.038-1.1.008-2.209-.016-3.313-.015-.692.137-1.326.916-1.344s.969.6.952,1.3c-.025,1.015.059,2.037-.024,3.047-.08.968.305,1.214,1.2,1.153,1.012-.07,2.032-.026,3.048-.011.663.01,1.321.167,1.29.982-.028.721-.642.865-1.26.867-1.1,0-2.212.047-3.314-.012-.789-.043-.994.267-.932,1,.094,1.1.117,2.2.17,3.308.032.671-.091,1.337-.887,1.365s-.967-.6-.958-1.3c.014-.972-.061-1.949.02-2.915s-.207-1.409-1.231-1.26a9.317,9.317,0,0,1-1.324.01Z" transform="translate(-5.487 -6.891)" fill="#5ace8d"/></g></g><rect width="378" height="256" transform="translate(571 500)" fill="url(#x)"/></g><rect width="378" height="256" transform="translate(571 1499)" fill="url(#x)"/><rect width="378" height="256" transform="translate(571 1035)" fill="url(#x)"/><rect width="378" height="256" transform="translate(571 1966)" fill="url(#x)"/><g transform="translate(0 75)"><g transform="translate(825)"><g transform="matrix(1, 0, 0, 1, -825, -75)" filter="url(#ab)"><rect width="378" height="403" rx="16" transform="translate(984 575)" fill="#fff"/></g><g transform="translate(178.771 772.504)"><g transform="translate(0.229 0.496)"><text fill="#23454f" font-size="20" font-family="Poppins-Bold, Poppins" font-weight="700"><tspan x="0" y="21">Name of asset and title category</tspan></text><text transform="translate(0 27)" fill="#23454f" font-size="15" font-family="Poppins-Medium, Poppins" font-weight="500"><tspan x="0" y="16">By </tspan><tspan y="16" fill="#46b175">House of motion studio</tspan><tspan y="16" xml:space="preserve"> in </tspan><tspan y="16" fill="#fa7808">Motion graphics </tspan></text></g></g><g transform="translate(178.771 837.518)"><rect width="64" height="45" transform="translate(0.229 0.482)" fill="#d7deb6"/><g transform="translate(8.859 7.875)"><g transform="translate(0 0)"><text transform="translate(0.37 22.607)" fill="#23454f" font-size="22" font-family="Poppins-SemiBold, Poppins" font-weight="600"><tspan x="0" y="0">N3k</tspan></text></g></g></g><g transform="translate(-200.608 -540.92)"><path d="M757.512,1398.24c0,1.149.039,2.3-.012,3.448-.036.794.215,1.111,1.047,1.077,1.369-.056,2.742,0,4.112-.022a1.49,1.49,0,0,1,1.624.883,1.811,1.811,0,0,1-.288,1.993c-2.787,2.84-5.564,5.691-8.405,8.477a1.657,1.657,0,0,1-2.492-.11c-2.717-2.723-5.411-5.469-8.119-8.2a1.826,1.826,0,0,1-.4-2.186,1.759,1.759,0,0,1,1.842-1.014c1.324.055,2.655-.027,3.979.03.769.033.974-.24.959-.98-.044-2.166-.022-4.332-.013-6.5.007-2.037,1.242-3.424,3.054-3.455a3.088,3.088,0,0,1,3.112,3.374C757.521,1396.117,757.512,1397.178,757.512,1398.24Z" transform="translate(-50.537 -2.355)" fill="#5ace8d"/><path d="M750.007,1446.727q-5.909,0-11.818,0a2.1,2.1,0,0,1-2.257-1.666,2.06,2.06,0,0,1,.988-2.4,3.051,3.051,0,0,1,1.663-.364c7.613-.008,15.227-.022,22.84.005,1.9.007,2.944,1.09,2.69,2.624-.192,1.159-1.056,1.792-2.554,1.8C757.709,1446.738,753.858,1446.729,750.007,1446.727Z" transform="translate(-46.544 -26.059)" fill="#5ace8d"/><path d="M661.837,1404.324q0,8.1-.006,16.2c0,.553.161,1.179-.494,1.536s-1.1-.144-1.56-.425c-3.247-1.981-6.489-3.97-9.705-6a1.43,1.43,0,0,0-1.772.007c-3.215,2.031-6.462,4.012-9.7,6-.473.29-.929.738-1.573.4-.661-.345-.5-.97-.5-1.525-.005-10.712.011-21.424-.023-32.135,0-1.273.46-1.729,1.709-1.724q11.025.045,22.05,0c1.191-.006,1.623.355,1.61,1.6C661.8,1393.612,661.837,1398.968,661.837,1404.324Zm-14.127,9.524a2.382,2.382,0,0,1,2.995.026c2.705,1.76,5.5,3.381,8.241,5.086.709.441,1.05.536,1.048-.52q-.033-14.473,0-28.947c0-.748-.225-.98-.978-.977q-9.83.038-19.659,0c-.712,0-1,.138-1,.935.026,9.957.016,19.915.016,30.141C641.632,1417.6,644.711,1415.786,647.709,1413.848Z" transform="translate(0)" fill="#5ace8d"/><path d="M651.386,1408.9c-.663,0-1.326.018-1.989-.005-.632-.022-1.179-.274-1.191-.977-.013-.779.566-1.043,1.251-1.055,1.149-.02,2.3-.036,3.447,0,.638.022.852-.21.83-.837-.038-1.1.008-2.209-.016-3.313-.015-.692.137-1.326.916-1.344s.969.6.952,1.3c-.025,1.015.059,2.037-.024,3.047-.08.968.305,1.214,1.2,1.153,1.012-.07,2.032-.026,3.048-.011.663.01,1.321.167,1.29.982-.028.721-.642.865-1.26.867-1.1,0-2.212.047-3.314-.012-.789-.043-.994.267-.932,1,.094,1.1.117,2.2.17,3.308.032.671-.091,1.337-.887,1.365s-.967-.6-.958-1.3c.014-.972-.061-1.949.02-2.915s-.207-1.409-1.231-1.26a9.317,9.317,0,0,1-1.324.01Z" transform="translate(-5.487 -6.891)" fill="#5ace8d"/></g></g><rect width="378" height="256" transform="translate(984 500)" fill="url(#ad)"/></g><rect width="378" height="256" transform="translate(984 1499)" fill="url(#ad)"/><rect width="378" height="256" transform="translate(984 1035)" fill="url(#ad)"/><rect width="378" height="256" transform="translate(984 1966)" fill="url(#ad)"/><g transform="translate(0 75)"><g transform="translate(1237)"><g transform="matrix(1, 0, 0, 1, -1237, -75)" filter="url(#ah)"><rect width="378" height="403" rx="16" transform="translate(1396 575)" fill="#fff"/></g><g transform="translate(178.771 772.504)"><g transform="translate(0.229 0.496)"><text fill="#23454f" font-size="20" font-family="Poppins-Bold, Poppins" font-weight="700"><tspan x="0" y="21">Name of asset and title category</tspan></text><text transform="translate(0 27)" fill="#23454f" font-size="15" font-family="Poppins-Medium, Poppins" font-weight="500"><tspan x="0" y="16">By </tspan><tspan y="16" fill="#46b175">House of motion studio</tspan><tspan y="16" xml:space="preserve"> in </tspan><tspan y="16" fill="#fa7808">Motion graphics </tspan></text></g></g><g transform="translate(178.771 837.518)"><rect width="64" height="45" transform="translate(0.229 0.482)" fill="#d7deb6"/><g transform="translate(8.859 7.875)"><g transform="translate(0 0)"><text transform="translate(0.37 22.607)" fill="#23454f" font-size="22" font-family="Poppins-SemiBold, Poppins" font-weight="600"><tspan x="0" y="0">N3k</tspan></text></g></g></g><g transform="translate(-200.608 -540.92)"><path d="M757.512,1398.24c0,1.149.039,2.3-.012,3.448-.036.794.215,1.111,1.047,1.077,1.369-.056,2.742,0,4.112-.022a1.49,1.49,0,0,1,1.624.883,1.811,1.811,0,0,1-.288,1.993c-2.787,2.84-5.564,5.691-8.405,8.477a1.657,1.657,0,0,1-2.492-.11c-2.717-2.723-5.411-5.469-8.119-8.2a1.826,1.826,0,0,1-.4-2.186,1.759,1.759,0,0,1,1.842-1.014c1.324.055,2.655-.027,3.979.03.769.033.974-.24.959-.98-.044-2.166-.022-4.332-.013-6.5.007-2.037,1.242-3.424,3.054-3.455a3.088,3.088,0,0,1,3.112,3.374C757.521,1396.117,757.512,1397.178,757.512,1398.24Z" transform="translate(-50.537 -2.355)" fill="#5ace8d"/><path d="M750.007,1446.727q-5.909,0-11.818,0a2.1,2.1,0,0,1-2.257-1.666,2.06,2.06,0,0,1,.988-2.4,3.051,3.051,0,0,1,1.663-.364c7.613-.008,15.227-.022,22.84.005,1.9.007,2.944,1.09,2.69,2.624-.192,1.159-1.056,1.792-2.554,1.8C757.709,1446.738,753.858,1446.729,750.007,1446.727Z" transform="translate(-46.544 -26.059)" fill="#5ace8d"/><path d="M661.837,1404.324q0,8.1-.006,16.2c0,.553.161,1.179-.494,1.536s-1.1-.144-1.56-.425c-3.247-1.981-6.489-3.97-9.705-6a1.43,1.43,0,0,0-1.772.007c-3.215,2.031-6.462,4.012-9.7,6-.473.29-.929.738-1.573.4-.661-.345-.5-.97-.5-1.525-.005-10.712.011-21.424-.023-32.135,0-1.273.46-1.729,1.709-1.724q11.025.045,22.05,0c1.191-.006,1.623.355,1.61,1.6C661.8,1393.612,661.837,1398.968,661.837,1404.324Zm-14.127,9.524a2.382,2.382,0,0,1,2.995.026c2.705,1.76,5.5,3.381,8.241,5.086.709.441,1.05.536,1.048-.52q-.033-14.473,0-28.947c0-.748-.225-.98-.978-.977q-9.83.038-19.659,0c-.712,0-1,.138-1,.935.026,9.957.016,19.915.016,30.141C641.632,1417.6,644.711,1415.786,647.709,1413.848Z" transform="translate(0)" fill="#5ace8d"/><path d="M651.386,1408.9c-.663,0-1.326.018-1.989-.005-.632-.022-1.179-.274-1.191-.977-.013-.779.566-1.043,1.251-1.055,1.149-.02,2.3-.036,3.447,0,.638.022.852-.21.83-.837-.038-1.1.008-2.209-.016-3.313-.015-.692.137-1.326.916-1.344s.969.6.952,1.3c-.025,1.015.059,2.037-.024,3.047-.08.968.305,1.214,1.2,1.153,1.012-.07,2.032-.026,3.048-.011.663.01,1.321.167,1.29.982-.028.721-.642.865-1.26.867-1.1,0-2.212.047-3.314-.012-.789-.043-.994.267-.932,1,.094,1.1.117,2.2.17,3.308.032.671-.091,1.337-.887,1.365s-.967-.6-.958-1.3c.014-.972-.061-1.949.02-2.915s-.207-1.409-1.231-1.26a9.317,9.317,0,0,1-1.324.01Z" transform="translate(-5.487 -6.891)" fill="#5ace8d"/></g></g><rect width="378" height="256" transform="translate(1396 500)" fill="url(#aj)"/></g><rect width="378" height="256" transform="translate(1396 1499)" fill="url(#aj)"/><rect width="378" height="256" transform="translate(1396 1035)" fill="url(#aj)"/><rect width="378" height="256" transform="translate(1396 1966)" fill="url(#aj)"/><path d="M-448.757-72.262l12.65,11.745-12.65,11.852" transform="translate(2206.106 1588.463)" fill="none" stroke="#46b175" stroke-width="5"/><g transform="translate(-308.25 -430.999)"><g transform="translate(425 557)" fill="#f2f2f2" stroke="#707070" stroke-width="1"><rect width="1344.5" height="78" rx="31" stroke="none"/><rect x="0.5" y="0.5" width="1343.5" height="77" rx="30.5" fill="none"/></g><path d="M-567.009,1658.683c3.375-3.384,6.419-6.458,9.5-9.5a1.142,1.142,0,0,0,.288-1.62,10.055,10.055,0,0,1,.713-11.063,10.125,10.125,0,0,1,10.26-4.271,10.584,10.584,0,0,1,8.783,10.4,10.593,10.593,0,0,1-8.759,10.311,10.162,10.162,0,0,1-6.851-1.2.885.885,0,0,0-1.294.184c-2.9,2.945-5.852,5.84-8.741,8.8-.6.618-.951.593-1.53,0C-565.352,1659.994-566.184,1659.384-567.009,1658.683Zm12.714-15.812a6.28,6.28,0,0,0,6.59,6.064,6.357,6.357,0,0,0,6.025-6.841,6.315,6.315,0,0,0-6.559-5.8A6.24,6.24,0,0,0-554.3,1642.871Z" transform="translate(1216.232 -1048.641)" fill="#5ace8d"/><text transform="translate(703.5 605)" fill="#9a9a9a" font-size="20" font-family="Poppins-Light, Poppins" font-weight="300"><tspan x="0" y="0">Search photos, vectors, brushes, and many more</tspan></text><path d="M376,78H31A30.974,30.974,0,0,1,0,47V31A30.974,30.974,0,0,1,31,0H376V78Z" transform="translate(251 557)" fill="#5ace8d"/><g transform="translate(465 581)"><text transform="translate(0 25)" fill="#fff" font-size="24" font-family="Poppins-SemiBold, Poppins" font-weight="600"><tspan x="0" y="0">All items</tspan></text><path d="M13087.789,897.3l8.134,8.4,8.55-8.4" transform="translate(-12969.463 -884.499)" fill="none" stroke="#fff" stroke-width="2"/></g></g><g transform="translate(853.72 -2280.402)"><path d="M4.76,0H117.227c2.629,0,4.76,2.807,4.76,6.269V41.534c0,3.462-2.131,6.269-4.76,6.269H4.76C2.131,47.8,0,45,0,41.534V6.269C0,2.807,2.131,0,4.76,0Z" transform="translate(798.293 2329)" fill="#5ace8d"/><text transform="translate(836.952 2358.62)" fill="#fff" font-size="20" font-family="Poppins-Bold, Poppins" font-weight="700"><tspan x="0" y="0">Join</tspan></text></g><g transform="translate(716.045 -2284)"><text transform="translate(847.624 2367)" fill="#23454f" font-size="22" font-family="Poppins-Medium, Poppins" font-weight="500"><tspan x="0" y="0">Log in</tspan></text></g><g transform="translate(616.701 -2284)"><text transform="translate(847.624 2367)" fill="#23454f" font-size="22" font-family="Poppins-Medium, Poppins" font-weight="500"><tspan x="0" y="0">Pricing</tspan></text></g><g transform="translate(517.357 -2284)"><text transform="translate(798.624 2367)" fill="#23454f" font-size="22" font-family="Poppins-Medium, Poppins" font-weight="500"><tspan x="0" y="0">Contribute</tspan></text></g><g transform="translate(1050 126)" fill="#fff" stroke="#707070" stroke-width="1"><rect width="905" height="78" stroke="none"/><rect x="0.5" y="0.5" width="904" height="77" fill="none"/></g><g transform="translate(861.376 -2194.5)"><text transform="translate(856.624 2368)" fill="#46b175" font-size="22" font-family="Poppins-Medium, Poppins" font-weight="500"><tspan x="0" y="0">More</tspan></text></g><g transform="translate(-179.643 -2189)"><text transform="translate(1279.643 2362)" fill="#23454f" font-size="19" font-family="Poppins-Medium, Poppins" font-weight="500"><tspan x="0" y="0" xml:space="preserve">Graphics    Fonts    Photos    Illustrations    Icons   Mockups    3D</tspan></text></g><g transform="translate(1368 -522)"><g transform="translate(188 845)"><text transform="translate(-203 -8)" fill="#23454f" font-size="20" font-family="Poppins-Medium, Poppins" font-weight="500"><tspan x="293.48" y="21">See more</tspan></text></g></g><g transform="translate(1643.668 -358.5)"><g transform="translate(-15 837)"><text transform="translate(0.332)" fill="#23454f" font-size="20" font-family="Poppins-Medium, Poppins" font-weight="500"><tspan x="42.64" y="21">Sort by</tspan></text></g></g><g transform="translate(586 -419)"><g transform="translate(-15 837)"><text fill="#23454f" font-size="20" font-family="Poppins-Medium, Poppins" font-weight="500"><tspan x="0" y="21">Trending</tspan></text></g></g><path d="M-448.757-72.262l12.65,11.745-12.65,11.852" transform="translate(2206.105 390.463)" fill="none" stroke="#46b175" stroke-width="5"/><rect width="555" height="2183" transform="translate(-28 380)" fill="#d5e6dd" opacity="0.2"/><g transform="matrix(1, 0, 0, 1, 0, 0)" filter="url(#an)"><g transform="translate(572 467)" fill="#fff" stroke="#46b175" stroke-width="1" opacity="0.76"><rect width="194" height="51" rx="11" stroke="none"/><rect x="0.5" y="0.5" width="193" height="50" rx="10.5" fill="none"/></g></g><g transform="matrix(1, 0, 0, 1, 0, 0)" filter="url(#ap)"><g transform="translate(795 467)" fill="#fff" stroke="#46b175" stroke-width="1" opacity="0.76"><rect width="194" height="51" rx="11" stroke="none"/><rect x="0.5" y="0.5" width="193" height="50" rx="10.5" fill="none"/></g></g><g transform="matrix(1, 0, 0, 1, 0, 0)" filter="url(#ar)"><g transform="translate(1018 467)" fill="#fff" stroke="#46b175" stroke-width="1" opacity="0.76"><rect width="194" height="51" rx="11" stroke="none"/><rect x="0.5" y="0.5" width="193" height="50" rx="10.5" fill="none"/></g></g><g transform="matrix(1, 0, 0, 1, 0, 0)" filter="url(#at)"><g transform="translate(1241 467)" fill="#fff" stroke="#46b175" stroke-width="1" opacity="0.76"><rect width="194" height="51" rx="11" stroke="none"/><rect x="0.5" y="0.5" width="193" height="50" rx="10.5" fill="none"/></g></g><path d="M-448.757-72.262l12.65,11.745-12.65,11.852" transform="translate(1703.211 934.431) rotate(90)" fill="none" stroke="#46b175" stroke-width="5"/><path d="M-448.757-72.262l12.65,11.745-12.65,11.852" transform="translate(50.242 370.836) rotate(180)" fill="none" stroke="#46b175" stroke-width="5"/><g transform="translate(-444.533 -905.366)"><path d="M613.018,1445.891c3.023,0,6.047-.059,9.067.023a3.448,3.448,0,0,0,3.44-1.624,5.222,5.222,0,0,1,6.383-1.853c2.447.9,3.716,2.992,3.627,5.973a5.285,5.285,0,0,1-3.822,5.047,5.432,5.432,0,0,1-6.608-2.65,2.3,2.3,0,0,0-2.387-1.31c-6.612.04-13.224-.013-19.835.043-1.512.013-2-.582-1.96-2.013.038-1.194.479-1.673,1.7-1.655C606.091,1445.926,609.555,1445.892,613.018,1445.891Z" transform="translate(-0.315 -99.435)" fill="#23454f"/><path d="M606.641,1388.135c-1.384,0-2.771-.061-4.151.016-1.331.074-1.951-.346-1.958-1.786-.007-1.515.632-1.95,2.06-1.908,2.765.08,5.539.109,8.3-.033a3.406,3.406,0,0,0,2.234-1.184c2.676-3.445,6.908-3.421,9.6.049a3.4,3.4,0,0,0,2.258,1.137c2.761.137,5.534.1,8.3.038,1.5-.032,1.953.643,1.961,2.057.007,1.43-.724,1.644-1.9,1.626-2.767-.042-5.539-.1-8.3.041a3.4,3.4,0,0,0-2.271,1.132c-2.732,3.56-7.006,3.566-9.728.011a3.684,3.684,0,0,0-2.264-1.145A31.049,31.049,0,0,0,606.641,1388.135Z" transform="translate(0 -49.692)" fill="#23454f"/><path d="M623.474,1326.79c-3.142,0-6.285.05-9.425-.02a3.141,3.141,0,0,0-3.106,1.519,5.5,5.5,0,0,1-6.676,2.02,5.719,5.719,0,0,1-3.546-5.676,5.633,5.633,0,0,1,4.712-5.171,5.222,5.222,0,0,1,5.549,2.381,2.848,2.848,0,0,0,2.787,1.393c6.472-.035,12.945-.008,19.417-.018,1.24,0,2.237.106,2.2,1.782-.026,1.259-.4,1.827-1.733,1.806C630.261,1326.751,626.867,1326.787,623.474,1326.79Z" transform="translate(-0.137 0)" fill="#23454f"/></g><g transform="translate(231 -424)"><g transform="translate(-15 837)"><text fill="#23454f" font-size="22" font-family="Poppins-SemiBold, Poppins" font-weight="600"><tspan x="0" y="23">Filters</tspan></text></g></g><g transform="translate(171 -337)"><g transform="translate(-15 837)"><text fill="#23454f" font-size="22" font-family="Poppins-SemiBold, Poppins" font-weight="600"><tspan x="0" y="23">Refine by</tspan></text></g></g><g transform="translate(171 -290)"><g transform="translate(-15 837)"><text fill="#23454f" font-size="20" font-family="Poppins-Medium, Poppins" font-weight="500"><tspan x="0" y="21">Categories</tspan></text></g></g><g transform="translate(171 152.095)"><g transform="translate(-15 837)"><text fill="#23454f" font-size="20" font-family="Poppins-Medium, Poppins" font-weight="500"><tspan x="0" y="21">Sub categories</tspan></text></g></g><g transform="translate(171 594.095)"><g transform="translate(-15 837)"><text fill="#23454f" font-size="20" font-family="Poppins-Medium, Poppins" font-weight="500"><tspan x="0" y="21">Sub categories</tspan></text></g></g><g transform="translate(156 620)" fill="#fff" stroke="#707070" stroke-width="1"><rect width="30" height="30" rx="4" stroke="none"/><rect x="0.5" y="0.5" width="29" height="29" rx="3.5" fill="none"/></g><g transform="translate(156 1062)" fill="#fff" stroke="#707070" stroke-width="1"><rect width="30" height="30" rx="4" stroke="none"/><rect x="0.5" y="0.5" width="29" height="29" rx="3.5" fill="none"/></g><g transform="translate(156 1504)" fill="#fff" stroke="#707070" stroke-width="1"><rect width="30" height="30" rx="4" stroke="none"/><rect x="0.5" y="0.5" width="29" height="29" rx="3.5" fill="none"/></g><g transform="translate(156 670)" fill="#fff" stroke="#707070" stroke-width="1"><rect width="30" height="30" rx="4" stroke="none"/><rect x="0.5" y="0.5" width="29" height="29" rx="3.5" fill="none"/></g><g transform="translate(156 1112)" fill="#fff" stroke="#707070" stroke-width="1"><rect width="30" height="30" rx="4" stroke="none"/><rect x="0.5" y="0.5" width="29" height="29" rx="3.5" fill="none"/></g><g transform="translate(156 1554)" fill="#fff" stroke="#707070" stroke-width="1"><rect width="30" height="30" rx="4" stroke="none"/><rect x="0.5" y="0.5" width="29" height="29" rx="3.5" fill="none"/></g><g transform="translate(156 870)" fill="#fff" stroke="#707070" stroke-width="1"><rect width="30" height="30" rx="4" stroke="none"/><rect x="0.5" y="0.5" width="29" height="29" rx="3.5" fill="none"/></g><g transform="translate(156 1312)" fill="#fff" stroke="#707070" stroke-width="1"><rect width="30" height="30" rx="4" stroke="none"/><rect x="0.5" y="0.5" width="29" height="29" rx="3.5" fill="none"/></g><g transform="translate(156 1754)" fill="#fff" stroke="#707070" stroke-width="1"><rect width="30" height="30" rx="4" stroke="none"/><rect x="0.5" y="0.5" width="29" height="29" rx="3.5" fill="none"/></g><g transform="translate(156 820)" fill="#fff" stroke="#707070" stroke-width="1"><rect width="30" height="30" rx="4" stroke="none"/><rect x="0.5" y="0.5" width="29" height="29" rx="3.5" fill="none"/></g><g transform="translate(156 1262)" fill="#fff" stroke="#707070" stroke-width="1"><rect width="30" height="30" rx="4" stroke="none"/><rect x="0.5" y="0.5" width="29" height="29" rx="3.5" fill="none"/></g><g transform="translate(156 1704)" fill="#fff" stroke="#707070" stroke-width="1"><rect width="30" height="30" rx="4" stroke="none"/><rect x="0.5" y="0.5" width="29" height="29" rx="3.5" fill="none"/></g><g transform="translate(156 770)" fill="#fff" stroke="#707070" stroke-width="1"><rect width="30" height="30" rx="4" stroke="none"/><rect x="0.5" y="0.5" width="29" height="29" rx="3.5" fill="none"/></g><g transform="translate(156 1212)" fill="#fff" stroke="#707070" stroke-width="1"><rect width="30" height="30" rx="4" stroke="none"/><rect x="0.5" y="0.5" width="29" height="29" rx="3.5" fill="none"/></g><g transform="translate(156 1654)" fill="#fff" stroke="#707070" stroke-width="1"><rect width="30" height="30" rx="4" stroke="none"/><rect x="0.5" y="0.5" width="29" height="29" rx="3.5" fill="none"/></g><g transform="translate(156 720)" fill="#fff" stroke="#707070" stroke-width="1"><rect width="30" height="30" rx="4" stroke="none"/><rect x="0.5" y="0.5" width="29" height="29" rx="3.5" fill="none"/></g><g transform="translate(156 1162)" fill="#fff" stroke="#707070" stroke-width="1"><rect width="30" height="30" rx="4" stroke="none"/><rect x="0.5" y="0.5" width="29" height="29" rx="3.5" fill="none"/></g><g transform="translate(156 1604)" fill="#fff" stroke="#707070" stroke-width="1"><rect width="30" height="30" rx="4" stroke="none"/><rect x="0.5" y="0.5" width="29" height="29" rx="3.5" fill="none"/></g><g transform="translate(156 920)" fill="#fff" stroke="#707070" stroke-width="1"><rect width="30" height="30" rx="4" stroke="none"/><rect x="0.5" y="0.5" width="29" height="29" rx="3.5" fill="none"/></g><g transform="translate(156 1362)" fill="#fff" stroke="#707070" stroke-width="1"><rect width="30" height="30" rx="4" stroke="none"/><rect x="0.5" y="0.5" width="29" height="29" rx="3.5" fill="none"/></g><g transform="translate(156 1804)" fill="#fff" stroke="#707070" stroke-width="1"><rect width="30" height="30" rx="4" stroke="none"/><rect x="0.5" y="0.5" width="29" height="29" rx="3.5" fill="none"/></g><text transform="translate(199 623)" fill="#23454f" font-size="18" font-family="Poppins-Medium, Poppins" font-weight="500"><tspan x="0" y="19">Category 1</tspan><tspan x="0" y="69">Category 1</tspan><tspan x="0" y="119">Category 1</tspan><tspan x="0" y="169">Category 1</tspan><tspan x="0" y="219">Category 1</tspan><tspan x="0" y="269">Category 1</tspan><tspan x="0" y="319">Category 1</tspan></text><text transform="translate(199 1065)" fill="#23454f" font-size="18" font-family="Poppins-Medium, Poppins" font-weight="500"><tspan x="0" y="19">Category 1</tspan><tspan x="0" y="69">Category 1</tspan><tspan x="0" y="119">Category 1</tspan><tspan x="0" y="169">Category 1</tspan><tspan x="0" y="219">Category 1</tspan><tspan x="0" y="269">Category 1</tspan><tspan x="0" y="319">Category 1</tspan></text><text transform="translate(199 1507)" fill="#23454f" font-size="18" font-family="Poppins-Medium, Poppins" font-weight="500"><tspan x="0" y="19">Category 1</tspan><tspan x="0" y="69">Category 1</tspan><tspan x="0" y="119">Category 1</tspan><tspan x="0" y="169">Category 1</tspan><tspan x="0" y="219">Category 1</tspan><tspan x="0" y="269">Category 1</tspan><tspan x="0" y="319">Category 1</tspan></text><path d="M16882,795.9h272" transform="translate(-16726 -203)" fill="none" stroke="#707070" stroke-width="1"/><path d="M16882,795.9h272" transform="translate(-16726 239.095)" fill="none" stroke="#707070" stroke-width="1"/><path d="M16882,795.9h272" transform="translate(-16726 681.095)" fill="none" stroke="#707070" stroke-width="1"/><g transform="translate(-25.558)"><path d="M524.83,1361.516c6.919,0,13.838-.015,20.758,0,4.078.011,6.091,2.056,6.093,6.162q.011,20.746,0,41.491c0,3.922-2.125,6.022-6.083,6.024q-20.676.01-41.352,0c-4.194,0-6.257-2.033-6.259-6.177q-.013-20.745,0-41.491c0-3.951,2.082-6,6.084-6.01Q514.45,1361.5,524.83,1361.516Z" transform="translate(552.777 1071.49)" fill="#5ace8d"/><path d="M1077.7,1408.474a.782.782,0,0,1-.813-.42.742.742,0,0,1,.164-.9c.3-.309.635-.595.969-.874,2.674-2.238,5.326-4.5,8.04-6.69.844-.681.776-1.057-.021-1.708-2.783-2.276-5.518-4.61-8.256-6.94-.467-.4-1.3-.819-.731-1.553.628-.815,1.262-.122,1.792.323,3.127,2.63,6.228,5.29,9.374,7.9,1.056.874,1.117,1.527,0,2.439-3.12,2.552-6.172,5.188-9.251,7.79C1078.6,1408.155,1078.264,1408.537,1077.7,1408.474Z" transform="translate(338.078 1061.983)" fill="#23454f"/><path d="M431.468,1408.34c-.491.023-.8-.32-1.126-.593-3.164-2.651-6.308-5.327-9.482-7.966-.966-.8-.892-1.464.031-2.231,3.217-2.674,6.408-5.378,9.621-8.056.417-.348.857-1.093,1.479-.4.589.657.079,1.21-.444,1.648-2.248,1.884-4.565,3.689-6.746,5.647-3.1,2.784-3.02,1.841-.035,4.55,2.169,1.97,4.5,3.765,6.746,5.646.419.351.853.726.611,1.375A.636.636,0,0,1,431.468,1408.34Z" transform="translate(579.676 1062.053)" fill="#23454f"/><path d="M310.6,1389.326a.726.726,0,0,1,.719.432.928.928,0,0,1-.355,1.143c-1.487,1.269-2.959,2.554-4.442,3.828-1.277,1.1-2.517,2.24-3.857,3.253-.891.672-.737,1.112,0,1.734,2.615,2.2,5.2,4.442,7.807,6.654.5.421,1.269.826.759,1.54-.533.747-1.168.137-1.659-.274q-4.684-3.916-9.349-7.854c-.665-.561-.787-1.167-.071-1.773q4.975-4.2,9.965-8.388A3.312,3.312,0,0,1,310.6,1389.326Z" transform="translate(621.328 1061.875)" fill="#23454f"/><path d="M325.152,1408.2c-.483-.026-.762-.385-1.093-.661-3.086-2.583-6.166-5.174-9.263-7.744-.883-.734-.7-1.3.1-1.964,3.139-2.6,6.251-5.241,9.378-7.861.429-.359.878-1.093,1.461-.353.52.66,0,1.215-.529,1.656-2.166,1.818-4.359,3.605-6.5,5.455-2.873,2.484-2.86,1.769.043,4.28,2.139,1.85,4.333,3.635,6.5,5.456.426.359.823.755.576,1.392C325.712,1408.151,325.432,1408.191,325.152,1408.2Z" transform="translate(616.303 1061.885)" fill="#23454f"/><text transform="translate(1075 2446)" fill="#fff" font-size="22" font-family="Poppins-Bold, Poppins" font-weight="700"><tspan x="0" y="23" xml:space="preserve">1   </tspan><tspan y="23" xml:space="preserve" fill="#23454f">         2            3            4            5</tspan></text></g><rect width="1920" height="579" transform="translate(0 2563)" fill="#23454f"/><g transform="translate(159 2962)"><path d="M10.695,0H263.355c5.906,0,10.695,3.582,10.695,8V53c0,4.418-4.788,8-10.695,8H10.695C4.788,61,0,57.418,0,53V8C0,3.582,4.788,0,10.695,0Z" fill="#5ace8d"/><text transform="translate(27 38)" fill="#fff" font-size="26" font-family="Poppins-Bold, Poppins" font-weight="700"><tspan x="0" y="0">Open your shop</tspan></text></g><g transform="translate(450.408 2962)"><rect width="309" height="61" rx="8" transform="translate(-0.408)" fill="#a3c517"/><text transform="translate(23.592 39)" fill="#fff" font-size="26" font-family="Poppins-Bold, Poppins" font-weight="700"><tspan x="0" y="0">Become an affiliate</tspan></text></g><text transform="translate(158 2746)" fill="#fff" font-size="60" font-family="Poppins-Bold, Poppins" font-weight="700"><tspan x="0" y="0">Do good design</tspan><tspan x="0" y="70">Earn correct pay</tspan></text><text transform="translate(159 2865)" fill="#fff" font-size="22" font-family="Poppins-Regular, Poppins"><tspan x="0" y="23">Make money by promoting other artists on NGD or by </tspan><tspan x="0" y="56">selling your creations to buyers across the globe.</tspan></text><rect width="790" height="448" rx="20" transform="translate(984 2629)" fill="url(#av)"/></g></svg>